OpenSans-ExtraLight.ufo
<glyph name="quotedbl" format="2">
	<unicode hex="0022"/>
	<advance width="715"/>
	<outline>
		<contour>
			<point x="245.571" y="1462" type="line"/>
			<point x="145.857" y="1462" type="line"/>
			<point x="158.571" y="934" type="line"/>
			<point x="232.857" y="934" type="line"/>
		</contour>
		<contour>
			<point x="569.714" y="1462" type="line"/>
			<point x="470" y="1462" type="line"/>
			<point x="482.714" y="934" type="line"/>
			<point x="557" y="934" type="line"/>
		</contour>
	</outline>
</glyph>
<glyph name="numbersign" format="2">
	<unicode hex="0023"/>
	<advance width="1328"/>
	<outline>
		<contour>
			<point x="968.286" y="927" type="line"/>
			<point x="1273.57" y="927" type="line"/>
			<point x="1273.57" y="1006.14" type="line"/>
			<point x="982.857" y="1006.14" type="line"/>
			<point x="1070.43" y="1462" type="line"/>
			<point x="988.429" y="1462" type="line"/>
			<point x="900.143" y="1006.14" type="line"/>
			<point x="527.571" y="1006.14" type="line"/>
			<point x="615.286" y="1462" type="line"/>
			<point x="533.286" y="1462" type="line"/>
			<point x="445.857" y="1006.14" type="line"/>
			<point x="132.286" y="1006.14" type="line"/>
			<point x="132.286" y="927" type="line"/>
			<point x="431.143" y="927" type="line"/>
			<point x="354.714" y="532.714" type="line"/>
			<point x="54.1429" y="532.714" type="line"/>
			<point x="54.1429" y="454.429" type="line"/>
			<point x="340.857" y="454.429" type="line"/>
			<point x="253.429" y="0" type="line"/>
			<point x="335.286" y="0" type="line"/>
			<point x="423.429" y="454.429" type="line"/>
			<point x="796.286" y="454.429" type="line"/>
			<point x="708.714" y="0" type="line"/>
			<point x="790.714" y="0" type="line"/>
			<point x="878.429" y="454.429" type="line"/>
			<point x="1195.86" y="454.429" type="line"/>
			<point x="1195.86" y="532.714" type="line"/>
			<point x="892" y="532.714" type="line"/>
		</contour>
		<contour>
			<point x="437.429" y="532.714" type="line"/>
			<point x="513.714" y="927" type="line"/>
			<point x="886.286" y="927" type="line"/>
			<point x="809.857" y="532.714" type="line"/>
		</contour>
	</outline>
</glyph>
<glyph name="ampersand" format="2">
	<unicode hex="0026"/>
	<advance width="1466"/>
	<outline>
		<contour>
			<point x="630.571" y="1484.43" type="curve" smooth="yes"/>
			<point x="415" y="1484.43"/>
			<point x="274.714" y="1359.86"/>
			<point x="274.714" y="1173.29" type="curve" smooth="yes"/>
			<point x="274.714" y="1032.71"/>
			<point x="346" y="944.714"/>
			<point x="481.143" y="808.714" type="curve"/>
			<point x="250.286" y="697.286"/>
			<point x="120.857" y="593.714"/>
			<point x="120.857" y="372.571" type="curve" smooth="yes"/>
			<point x="120.857" y="124.571"/>
			<point x="305.429" y="-20"/>
			<point x="578.857" y="-20" type="curve" smooth="yes"/>
			<point x="822.857" y="-20"/>
			<point x="960.286" y="71.5714"/>
			<point x="1084.86" y="198.857" type="curve"/>
			<point x="1272.14" y="0" type="line"/>
			<point x="1406.14" y="0" type="line"/>
			<point x="1153" y="258.143" type="line"/>
			<point x="1247" y="377.429"/>
			<point x="1323.43" y="521"/>
			<point x="1363" y="693.286" type="curve"/>
			<point x="1257.86" y="693.286" type="line"/>
			<point x="1226.71" y="549"/>
			<point x="1161.43" y="422.143"/>
			<point x="1085.29" y="327.857" type="curve"/>
			<point x="630" y="788.571" type="line"/>
			<point x="834.857" y="889.429"/>
			<point x="967.714" y="995.571"/>
			<point x="967.714" y="1181.86" type="curve" smooth="yes"/>
			<point x="967.714" y="1369.14"/>
			<point x="829.429" y="1484.43"/>
		</contour>
		<contour>
			<point x="543.286" y="746.286" type="curve"/>
			<point x="1021" y="262.857" type="line"/>
			<point x="909.429" y="143.571"/>
			<point x="788.714" y="68.1429"/>
			<point x="584.143" y="68.1429" type="curve" smooth="yes"/>
			<point x="370.429" y="68.1429"/>
			<point x="225.571" y="180.286"/>
			<point x="225.571" y="376.571" type="curve" smooth="yes"/>
			<point x="225.571" y="566.286"/>
			<point x="336.286" y="647.571"/>
		</contour>
		<contour>
			<point x="629.714" y="1404.14" type="curve" smooth="yes"/>
			<point x="774.143" y="1404.14"/>
			<point x="870.286" y="1320.57"/>
			<point x="870.286" y="1181.86" type="curve" smooth="yes"/>
			<point x="870.286" y="1029"/>
			<point x="753.857" y="934.286"/>
			<point x="565.571" y="850.143" type="curve"/>
			<point x="443.143" y="972.857"/>
			<point x="372.143" y="1055.86"/>
			<point x="372.143" y="1171.43" type="curve" smooth="yes"/>
			<point x="372.143" y="1314.86"/>
			<point x="470" y="1404.14"/>
		</contour>
	</outline>
</glyph>
<glyph name="plus" format="2">
	<unicode hex="002B"/>
	<advance width="1172"/>
	<outline>
		<contour>
			<point x="625.857" y="763.429" type="line"/>
			<point x="625.857" y="1198.14" type="line"/>
			<point x="545.571" y="1198.14" type="line"/>
			<point x="545.571" y="763.429" type="line"/>
			<point x="110" y="763.429" type="line"/>
			<point x="110" y="682.286" type="line"/>
			<point x="545.571" y="682.286" type="line"/>
			<point x="545.571" y="248.429" type="line"/>
			<point x="625.857" y="248.429" type="line"/>
			<point x="625.857" y="682.286" type="line"/>
			<point x="1062.29" y="682.286" type="line"/>
			<point x="1062.29" y="763.429" type="line"/>
		</contour>
	</outline>
</glyph>
<glyph name="comma" format="2">
	<unicode hex="002C"/>
	<advance width="412"/>
	<outline>
		<contour>
			<point x="285.429" y="246.714" type="line"/>
			<point x="187.714" y="246.714" type="line"/>
			<point x="165.286" y="89.5714"/>
			<point x="131.143" y="-70.5714"/>
			<point x="75" y="-267" type="curve"/>
			<point x="153.429" y="-267" type="line"/>
			<point x="211.857" y="-124.429"/>
			<point x="260.714" y="70.7143"/>
			<point x="292.571" y="222" type="curve"/>
		</contour>
	</outline>
</glyph>
<glyph name="three" format="2">
	<unicode hex="0033"/>
	<advance width="1172"/>
	<outline>
		<contour>
			<point x="978.714" y="1130.43" type="curve" smooth="yes"/>
			<point x="978.714" y="1356"/>
			<point x="811.857" y="1483"/>
			<point x="563.143" y="1483" type="curve" smooth="yes"/>
			<point x="372.571" y="1483"/>
			<point x="227.286" y="1422.14"/>
			<point x="107.143" y="1331.57" type="curve"/>
			<point x="154.571" y="1257" type="line"/>
			<point x="274.714" y="1343.14"/>
			<point x="404.143" y="1393.86"/>
			<point x="554.286" y="1393.86" type="curve" smooth="yes"/>
			<point x="747.571" y="1393.86"/>
			<point x="876" y="1303.71"/>
			<point x="876" y="1117" type="curve" smooth="yes"/>
			<point x="876" y="901"/>
			<point x="693.429" y="801.857"/>
			<point x="474.714" y="801.857" type="curve" smooth="yes"/>
			<point x="315.857" y="801.857" type="line"/>
			<point x="315.857" y="715.714" type="line"/>
			<point x="474.429" y="715.714" type="line" smooth="yes"/>
			<point x="744.429" y="715.714"/>
			<point x="915.714" y="628.429"/>
			<point x="915.714" y="403.429" type="curve" smooth="yes"/>
			<point x="915.714" y="199.143"/>
			<point x="778.143" y="68.1429"/>
			<point x="497.857" y="68.1429" type="curve" smooth="yes"/>
			<point x="351.714" y="68.1429"/>
			<point x="198.714" y="107.714"/>
			<point x="92.2857" y="160.714" type="curve"/>
			<point x="92.2857" y="65" type="line"/>
			<point x="200.143" y="15.1429"/>
			<point x="340.143" y="-20"/>
			<point x="506" y="-20" type="curve" smooth="yes"/>
			<point x="847.714" y="-20"/>
			<point x="1023.43" y="157.429"/>
			<point x="1023.43" y="400" type="curve" smooth="yes"/>
			<point x="1023.43" y="615.571"/>
			<point x="893.857" y="733.286"/>
			<point x="665.143" y="764" type="curve"/>
			<point x="665.143" y="768.286" type="line"/>
			<point x="842.571" y="801.571"/>
			<point x="978.714" y="936"/>
		</contour>
	</outline>
</glyph>
<glyph name="seven" format="2">
	<unicode hex="0037"/>
	<advance width="1172"/>
	<outline>
		<contour>
			<point x="351.286" y="0" type="line"/>
			<point x="460.286" y="0" type="line"/>
			<point x="1056.71" y="1398.71" type="line"/>
			<point x="1056.71" y="1462" type="line"/>
			<point x="113.143" y="1462" type="line"/>
			<point x="113.143" y="1371.57" type="line"/>
			<point x="944.143" y="1371.57" type="line"/>
		</contour>
	</outline>
</glyph>
<glyph name="less" format="2">
	<unicode hex="003C"/>
	<advance width="1172"/>
	<outline>
		<contour>
			<point x="1060.29" y="268" type="line"/>
			<point x="1060.29" y="355.571" type="line"/>
			<point x="228.429" y="738.714" type="line"/>
			<point x="1060.29" y="1127.14" type="line"/>
			<point x="1060.29" y="1215" type="line"/>
			<point x="111.714" y="765.571" type="line"/>
			<point x="111.714" y="709.286" type="line"/>
		</contour>
	</outline>
</glyph>
<glyph name="equal" format="2">
	<unicode hex="003D"/>
	<advance width="1172"/>
	<outline>
		<contour>
			<point x="110" y="893.857" type="line"/>
			<point x="1062.57" y="893.857" type="line"/>
			<point x="1062.57" y="974.143" type="line"/>
			<point x="110" y="974.143" type="line"/>
		</contour>
		<contour>
			<point x="110" y="470.286" type="line"/>
			<point x="1062.57" y="470.286" type="line"/>
			<point x="1062.57" y="551.857" type="line"/>
			<point x="110" y="551.857" type="line"/>
		</contour>
	</outline>
</glyph>
<glyph name="B" format="2">
	<unicode hex="0042"/>
	<advance width="1273"/>
	<outline>
		<contour>
			<point x="203.429" y="1462" type="line"/>
			<point x="203.429" y="0" type="line"/>
			<point x="636.143" y="0" type="line" smooth="yes"/>
			<point x="941.571" y="0"/>
			<point x="1161.43" y="121.714"/>
			<point x="1161.43" y="417.714" type="curve" smooth="yes"/>
			<point x="1161.43" y="608.857"/>
			<point x="1069.57" y="731.571"/>
			<point x="845.143" y="767.714" type="curve"/>
			<point x="845.143" y="772.571" type="line"/>
			<point x="1022.71" y="804.714"/>
			<point x="1125.57" y="938.429"/>
			<point x="1125.57" y="1108.29" type="curve" smooth="yes"/>
			<point x="1125.57" y="1344.14"/>
			<point x="979.429" y="1462"/>
			<point x="611.429" y="1462" type="curve" smooth="yes"/>
		</contour>
		<contour>
			<point x="305.286" y="810.143" type="line"/>
			<point x="305.286" y="1375.57" type="line"/>
			<point x="605.714" y="1375.57" type="line" smooth="yes"/>
			<point x="895.571" y="1375.57"/>
			<point x="1020.57" y="1294"/>
			<point x="1020.57" y="1098.29" type="curve" smooth="yes"/>
			<point x="1020.57" y="909.857"/>
			<point x="893.857" y="810.143"/>
			<point x="628.286" y="810.143" type="curve" smooth="yes"/>
		</contour>
		<contour>
			<point x="305.286" y="724.286" type="line"/>
			<point x="624" y="724.286" type="line" smooth="yes"/>
			<point x="896.143" y="724.286"/>
			<point x="1055.29" y="647.857"/>
			<point x="1055.29" y="420.714" type="curve" smooth="yes"/>
			<point x="1055.29" y="191.857"/>
			<point x="902.714" y="87.2857"/>
			<point x="644.857" y="87.2857" type="curve" smooth="yes"/>
			<point x="305.286" y="87.2857" type="line"/>
		</contour>
	</outline>
	<anchor name="bottom" x="638.571" y="0"/>
	<anchor name="top" x="638.286" y="1462"/>
	<anchor name="topright" x="1231.86" y="1462"/>
</glyph>
<glyph name="F" format="2">
	<unicode hex="0046"/>
	<advance width="1022"/>
	<outline>
		<contour>
			<point x="304.429" y="0" type="line"/>
			<point x="304.429" y="656.143" type="line"/>
			<point x="966.143" y="656.143" type="line"/>
			<point x="966.143" y="745.143" type="line"/>
			<point x="304.429" y="745.143" type="line"/>
			<point x="304.429" y="1373" type="line"/>
			<point x="1004" y="1373" type="line"/>
			<point x="1004" y="1462" type="line"/>
			<point x="203.429" y="1462" type="line"/>
			<point x="203.429" y="0" type="line"/>
		</contour>
	</outline>
	<anchor name="bottom" x="511" y="0"/>
	<anchor name="top" x="603.714" y="1462"/>
	<anchor name="topright" x="980.714" y="1462"/>
</glyph>
<glyph name="H" format="2">
	<unicode hex="0048"/>
	<advance width="1464"/>
	<outline>
		<contour>
			<point x="1260.14" y="0" type="line"/>
			<point x="1260.14" y="1462" type="line"/>
			<point x="1158" y="1462" type="line"/>
			<point x="1158" y="812.857" type="line"/>
			<point x="305.571" y="812.857" type="line"/>
			<point x="305.571" y="1462" type="line"/>
			<point x="203.429" y="1462" type="line"/>
			<point x="203.429" y="0" type="line"/>
			<point x="305.571" y="0" type="line"/>
			<point x="305.571" y="722" type="line"/>
			<point x="1158" y="722" type="line"/>
			<point x="1158" y="0" type="line"/>
		</contour>
	</outline>
	<anchor name="bottom" x="731.714" y="0"/>
	<anchor name="center" x="731.714" y="731"/>
	<anchor name="top" x="731.714" y="1462"/>
	<anchor name="topright" x="1422.57" y="1462"/>
</glyph>
<glyph name="I" format="2">
	<unicode hex="0049"/>
	<advance width="509"/>
	<outline>
		<contour>
			<point x="203.429" y="0" type="line"/>
			<point x="305.571" y="0" type="line"/>
			<point x="305.571" y="1462" type="line"/>
			<point x="203.429" y="1462" type="line"/>
		</contour>
	</outline>
	<anchor name="bottom" x="254.857" y="0"/>
	<anchor name="top" x="254.857" y="1462"/>
	<anchor name="topright" x="419.143" y="1462"/>
</glyph>
<glyph name="K" format="2">
	<unicode hex="004B"/>
	<advance width="1181"/>
	<outline>
		<contour>
			<point x="1180.71" y="0" type="line"/>
			<point x="582" y="847.286" type="line"/>
			<point x="1170.71" y="1462" type="line"/>
			<point x="1043" y="1462" type="line"/>
			<point x="411.143" y="804.857" type="line" smooth="yes"/>
			<point x="373.571" y="764.857"/>
			<point x="336.857" y="725.571"/>
			<point x="305.571" y="687.286" type="curve"/>
			<point x="305.571" y="1462" type="line"/>
			<point x="203.429" y="1462" type="line"/>
			<point x="203.429" y="0" type="line"/>
			<point x="305.571" y="0" type="line"/>
			<point x="305.571" y="584.143" type="line"/>
			<point x="506.571" y="778.429" type="line"/>
			<point x="1057" y="0" type="line"/>
		</contour>
	</outline>
	<anchor name="bottom" x="594.714" y="0"/>
	<anchor name="top" x="595.857" y="1462"/>
	<anchor name="topright" x="1139.71" y="1462"/>
</glyph>
<glyph name="M" format="2">
	<unicode hex="004D"/>
	<advance width="1752"/>
	<outline>
		<contour>
			<point x="830.143" y="0" type="line"/>
			<point x="919" y="0" type="line"/>
			<point x="1448.86" y="1340.71" type="line"/>
			<point x="1453.57" y="1340.71" type="line"/>
			<point x="1450.86" y="1270.71"/>
			<point x="1449.71" y="1203.14"/>
			<point x="1449.71" y="1148.43" type="curve" smooth="yes"/>
			<point x="1449.71" y="0" type="line"/>
			<point x="1547" y="0" type="line"/>
			<point x="1547" y="1462" type="line"/>
			<point x="1401.43" y="1462" type="line"/>
			<point x="879.571" y="144.571" type="line"/>
			<point x="873.286" y="144.571" type="line"/>
			<point x="352.286" y="1462" type="line"/>
			<point x="203.429" y="1462" type="line"/>
			<point x="203.429" y="0" type="line"/>
			<point x="298.857" y="0" type="line"/>
			<point x="298.857" y="1137.29" type="line" smooth="yes"/>
			<point x="298.857" y="1210.86"/>
			<point x="296.857" y="1272.71"/>
			<point x="294.143" y="1342.71" type="curve"/>
			<point x="298.857" y="1342.71" type="line"/>
		</contour>
	</outline>
	<anchor name="bottom" x="876.143" y="0"/>
	<anchor name="top" x="877.857" y="1462"/>
	<anchor name="topright" x="1711" y="1462"/>
</glyph>
<glyph name="N" format="2">
	<unicode hex="004E"/>
	<advance width="1470"/>
	<outline>
		<contour>
			<point x="1264.57" y="0" type="line"/>
			<point x="1264.57" y="1462" type="line"/>
			<point x="1168" y="1462" type="line"/>
			<point x="1168" y="484.714" type="line" smooth="yes"/>
			<point x="1168" y="389.714"/>
			<point x="1169.14" y="271.857"/>
			<point x="1171.71" y="170.857" type="curve"/>
			<point x="1167.43" y="170.857" type="line"/>
			<point x="312.286" y="1462" type="line"/>
			<point x="203.429" y="1462" type="line"/>
			<point x="203.429" y="0" type="line"/>
			<point x="298.857" y="0" type="line"/>
			<point x="298.857" y="975.286" type="line" smooth="yes"/>
			<point x="298.857" y="1084.29"/>
			<point x="297.429" y="1182"/>
			<point x="294.429" y="1296.57" type="curve"/>
			<point x="299.143" y="1296.57" type="line"/>
			<point x="1157.14" y="0" type="line"/>
		</contour>
	</outline>
	<anchor name="bottom" x="734.857" y="0"/>
	<anchor name="top" x="734.857" y="1462"/>
	<anchor name="topright" x="1428.71" y="1462"/>
</glyph>
<glyph name="P" format="2">
	<unicode hex="0050"/>
	<advance width="1191"/>
	<outline>
		<contour>
			<point x="568.857" y="1462" type="curve" smooth="yes"/>
			<point x="203.429" y="1462" type="line"/>
			<point x="203.429" y="0" type="line"/>
			<point x="305.286" y="0" type="line"/>
			<point x="305.286" y="605" type="line"/>
			<point x="544" y="605" type="line" smooth="yes"/>
			<point x="881" y="605"/>
			<point x="1080.14" y="743"/>
			<point x="1080.14" y="1053.57" type="curve" smooth="yes"/>
			<point x="1080.14" y="1340.29"/>
			<point x="901.143" y="1462"/>
		</contour>
		<contour>
			<point x="560.714" y="1372.71" type="line" smooth="yes"/>
			<point x="843.714" y="1372.71"/>
			<point x="975.571" y="1276.14"/>
			<point x="975.571" y="1050.43" type="curve" smooth="yes"/>
			<point x="975.571" y="775.143"/>
			<point x="796.429" y="694.714"/>
			<point x="535.857" y="694.714" type="curve" smooth="yes"/>
			<point x="305.286" y="694.714" type="line"/>
			<point x="305.286" y="1372.71" type="line"/>
		</contour>
	</outline>
	<anchor name="bottom" x="596.429" y="0"/>
	<anchor name="top" x="599.143" y="1462"/>
	<anchor name="topright" x="1150.14" y="1462"/>
</glyph>
<glyph name="Q" format="2">
	<unicode hex="0051"/>
	<advance width="1557"/>
	<outline>
		<contour>
			<point x="1429.14" y="733" type="curve" smooth="yes"/>
			<point x="1429.14" y="1205.14"/>
			<point x="1204.71" y="1485"/>
			<point x="787" y="1485" type="curve" smooth="yes"/>
			<point x="356.571" y="1485"/>
			<point x="125.429" y="1178"/>
			<point x="125.429" y="735" type="curve" smooth="yes"/>
			<point x="125.429" y="291"/>
			<point x="341.143" y="-20"/>
			<point x="776.429" y="-20" type="curve" smooth="yes"/>
			<point x="799.857" y="-20"/>
			<point x="821.857" y="-18.2857"/>
			<point x="843.571" y="-16.5714" type="curve"/>
			<point x="1117" y="-348" type="line"/>
			<point x="1250.71" y="-348" type="line"/>
			<point x="950.286" y="2.14286" type="line"/>
			<point x="1272" y="66.8571"/>
			<point x="1429.14" y="356"/>
		</contour>
		<contour>
			<point x="232" y="734.714" type="curve" smooth="yes"/>
			<point x="232" y="1118.71"/>
			<point x="412.571" y="1395"/>
			<point x="787" y="1395" type="curve" smooth="yes"/>
			<point x="1134" y="1395"/>
			<point x="1322.57" y="1152.14"/>
			<point x="1322.57" y="733" type="curve" smooth="yes"/>
			<point x="1322.57" y="340.429"/>
			<point x="1153.71" y="70.7143"/>
			<point x="778.143" y="70.7143" type="curve" smooth="yes"/>
			<point x="406" y="70.7143"/>
			<point x="232" y="346.429"/>
		</contour>
	</outline>
	<anchor name="bottom" x="778.429" y="-348"/>
	<anchor name="top" x="778.429" y="1462"/>
	<anchor name="topright" x="1515.57" y="1462"/>
</glyph>
<glyph name="R" format="2">
	<unicode hex="0052"/>
	<advance width="1211"/>
	<outline>
		<contour>
			<point x="551.286" y="1462" type="curve" smooth="yes"/>
			<point x="203.429" y="1462" type="line"/>
			<point x="203.429" y="0" type="line"/>
			<point x="305.286" y="0" type="line"/>
			<point x="305.286" y="637.429" type="line"/>
			<point x="667.571" y="637.429" type="line"/>
			<point x="1047" y="0" type="line"/>
			<point x="1168.43" y="0" type="line"/>
			<point x="763.857" y="665.286" type="line"/>
			<point x="963.286" y="724.714"/>
			<point x="1082.14" y="857.143"/>
			<point x="1082.14" y="1068.57" type="curve" smooth="yes"/>
			<point x="1082.14" y="1369"/>
			<point x="896.857" y="1462"/>
		</contour>
		<contour>
			<point x="541" y="1375.57" type="line" smooth="yes"/>
			<point x="835.714" y="1375.57"/>
			<point x="977.143" y="1302.29"/>
			<point x="977.143" y="1064.29" type="curve" smooth="yes"/>
			<point x="977.143" y="844.857"/>
			<point x="823.429" y="724.429"/>
			<point x="602.143" y="724.429" type="curve" smooth="yes"/>
			<point x="305.286" y="724.429" type="line"/>
			<point x="305.286" y="1375.57" type="line"/>
		</contour>
	</outline>
	<anchor name="bottom" x="624.714" y="0"/>
	<anchor name="top" x="606.571" y="1462"/>
	<anchor name="topright" x="1170.29" y="1462"/>
</glyph>
<glyph name="U" format="2">
	<unicode hex="0055"/>
	<advance width="1471"/>
	<outline>
		<contour>
			<point x="1285.29" y="1462" type="line"/>
			<point x="1182.57" y="1462" type="line"/>
			<point x="1182.57" y="515.143" type="line" smooth="yes"/>
			<point x="1182.57" y="217.857"/>
			<point x="1008.29" y="70.7143"/>
			<point x="735.714" y="70.7143" type="curve" smooth="yes"/>
			<point x="452.714" y="70.7143"/>
			<point x="290.714" y="225.571"/>
			<point x="290.714" y="535.429" type="curve" smooth="yes"/>
			<point x="290.714" y="1462" type="line"/>
			<point x="188.571" y="1462" type="line"/>
			<point x="188.571" y="527.571" type="line" smooth="yes"/>
			<point x="188.571" y="170.143"/>
			<point x="385.857" y="-20"/>
			<point x="733.143" y="-20" type="curve" smooth="yes"/>
			<point x="1065.14" y="-20"/>
			<point x="1285.29" y="160.714"/>
			<point x="1285.29" y="525.429" type="curve" smooth="yes"/>
		</contour>
	</outline>
	<anchor name="bottom" x="735.143" y="0"/>
	<anchor name="top" x="735.714" y="1462"/>
	<anchor name="topright" x="1430.14" y="1462"/>
</glyph>
<glyph name="W" format="2">
	<unicode hex="0057"/>
	<advance width="1830"/>
	<outline>
		<contour>
			<point x="1772.14" y="1462" type="line"/>
			<point x="1670.57" y="1462" type="line"/>
			<point x="1377.43" y="398.714" type="line"/>
			<point x="1348.57" y="297.286"/>
			<point x="1332.14" y="217.429"/>
			<point x="1315.86" y="132.857" type="curve"/>
			<point x="1297.71" y="226"/>
			<point x="1275.86" y="317.571"/>
			<point x="1246.29" y="424.714" type="curve" smooth="yes"/>
			<point x="959.286" y="1462" type="line"/>
			<point x="863.286" y="1462" type="line"/>
			<point x="583.429" y="429.857" type="line"/>
			<point x="554.429" y="325.571"/>
			<point x="532.286" y="230.286"/>
			<point x="513.857" y="139.714" type="curve"/>
			<point x="495.857" y="220.286"/>
			<point x="472.286" y="306.429"/>
			<point x="446.714" y="402.429" type="curve" smooth="yes"/>
			<point x="164.286" y="1462" type="line"/>
			<point x="62.7143" y="1462" type="line"/>
			<point x="456.429" y="0" type="line"/>
			<point x="565.143" y="0" type="line"/>
			<point x="871.571" y="1151.29" type="line" smooth="yes"/>
			<point x="883.429" y="1198.29"/>
			<point x="896.714" y="1253.29"/>
			<point x="909.286" y="1326.71" type="curve"/>
			<point x="924.429" y="1249.86"/>
			<point x="942.571" y="1186.29"/>
			<point x="962" y="1112.71" type="curve" smooth="yes"/>
			<point x="1264.86" y="0" type="line"/>
			<point x="1373.57" y="0" type="line"/>
		</contour>
	</outline>
	<anchor name="bottom" x="916.143" y="0"/>
	<anchor name="top" x="915.857" y="1462"/>
	<anchor name="topright" x="1788.71" y="1462"/>
</glyph>
<glyph name="grave" format="2">
	<unicode hex="0060"/>
	<advance width="559"/>
	<outline>
		<contour>
			<point x="195.714" y="1569" type="curve"/>
			<point x="82" y="1569" type="line"/>
			<point x="82" y="1553.14" type="line"/>
			<point x="157.714" y="1463.14"/>
			<point x="294.143" y="1328.14"/>
			<point x="403.429" y="1241" type="curve"/>
			<point x="477.429" y="1241" type="line"/>
			<point x="477.429" y="1255.43" type="line"/>
			<point x="389" y="1336.57"/>
			<point x="257.143" y="1480.43"/>
		</contour>
	</outline>
</glyph>
<glyph name="i" format="2">
	<unicode hex="0069"/>
	<advance width="459"/>
	<outline>
		<contour>
			<point x="279.429" y="1088.43" type="line"/>
			<point x="177.286" y="1088.43" type="line"/>
			<point x="177.286" y="0" type="line"/>
			<point x="279.429" y="0" type="line"/>
		</contour>
		<contour>
			<point x="228.571" y="1493" type="curve" smooth="yes"/>
			<point x="177" y="1493"/>
			<point x="155.286" y="1461.43"/>
			<point x="155.286" y="1413.29" type="curve" smooth="yes"/>
			<point x="155.286" y="1364"/>
			<point x="177" y="1334.71"/>
			<point x="228.571" y="1334.71" type="curve" smooth="yes"/>
			<point x="286.571" y="1334.71"/>
			<point x="305.571" y="1364"/>
			<point x="305.571" y="1413.29" type="curve" smooth="yes"/>
			<point x="305.571" y="1461.43"/>
			<point x="286.571" y="1493"/>
		</contour>
	</outline>
	<anchor name="bottom" x="231.143" y="0"/>
	<anchor name="top" x="230.286" y="1493"/>
	<anchor name="topright" x="417.571" y="1493"/>
</glyph>
<glyph name="j" format="2">
	<unicode hex="006A"/>
	<advance width="458"/>
	<outline>
		<contour>
			<point x="34.8571" y="-492" type="curve" smooth="yes"/>
			<point x="178.857" y="-492"/>
			<point x="279.143" y="-395.571"/>
			<point x="279.143" y="-224" type="curve" smooth="yes"/>
			<point x="279.143" y="1088.43" type="line"/>
			<point x="177" y="1088.43" type="line"/>
			<point x="177" y="-205.429" type="line" smooth="yes"/>
			<point x="177" y="-333.857"/>
			<point x="123.714" y="-402.857"/>
			<point x="22" y="-402.857" type="curve" smooth="yes"/>
			<point x="-19.5714" y="-402.857"/>
			<point x="-61" y="-398.571"/>
			<point x="-102.286" y="-381.429" type="curve"/>
			<point x="-102.286" y="-470.429" type="line"/>
			<point x="-67.2857" y="-482.714"/>
			<point x="-18.7143" y="-492"/>
		</contour>
		<contour>
			<point x="155" y="1413.29" type="curve" smooth="yes"/>
			<point x="155" y="1364"/>
			<point x="176.714" y="1334.71"/>
			<point x="228.286" y="1334.71" type="curve" smooth="yes"/>
			<point x="286.286" y="1334.71"/>
			<point x="305.286" y="1364"/>
			<point x="305.286" y="1413.29" type="curve" smooth="yes"/>
			<point x="305.286" y="1461.43"/>
			<point x="286.286" y="1493"/>
			<point x="228.286" y="1493" type="curve" smooth="yes"/>
			<point x="176.714" y="1493"/>
			<point x="155" y="1461.43"/>
		</contour>
	</outline>
	<anchor name="bottom" x="34.8571" y="-492"/>
	<anchor name="top" x="230" y="1493"/>
	<anchor name="topright" x="417.571" y="1493"/>
</glyph>
<glyph name="n" format="2">
	<unicode hex="006E"/>
	<advance width="1202"/>
	<outline>
		<contour>
			<point x="663.143" y="1109.29" type="curve" smooth="yes"/>
			<point x="443.143" y="1109.29"/>
			<point x="327.286" y="994.857"/>
			<point x="276.857" y="872.429" type="curve"/>
			<point x="271.286" y="872.429" type="line"/>
			<point x="256" y="1088.43" type="line"/>
			<point x="177" y="1088.43" type="line"/>
			<point x="177" y="0" type="line"/>
			<point x="279.143" y="0" type="line"/>
			<point x="279.143" y="600.571" type="line" smooth="yes"/>
			<point x="279.143" y="885.571"/>
			<point x="421" y="1021.71"/>
			<point x="644.429" y="1021.71" type="curve" smooth="yes"/>
			<point x="827.857" y="1021.71"/>
			<point x="934" y="920.571"/>
			<point x="934" y="694.286" type="curve" smooth="yes"/>
			<point x="934" y="0" type="line"/>
			<point x="1035.29" y="0" type="line"/>
			<point x="1035.29" y="713" type="line" smooth="yes"/>
			<point x="1035.29" y="984.286"/>
			<point x="896.143" y="1109.29"/>
		</contour>
	</outline>
	<anchor name="bottom" x="602" y="0"/>
	<anchor name="top" x="602" y="1088.43"/>
	<anchor name="topright" x="1157.29" y="1088.43"/>
</glyph>
<glyph name="o" format="2">
	<unicode hex="006F"/>
	<advance width="1196"/>
	<outline>
		<contour>
			<point x="1078.14" y="545" type="curve" smooth="yes"/>
			<point x="1078.14" y="866.857"/>
			<point x="932.143" y="1109.29"/>
			<point x="606.143" y="1109.29" type="curve" smooth="yes"/>
			<point x="297.571" y="1109.29"/>
			<point x="116" y="893.429"/>
			<point x="116" y="545" type="curve" smooth="yes"/>
			<point x="116" y="214.857"/>
			<point x="280.857" y="-20"/>
			<point x="595" y="-20" type="curve" smooth="yes"/>
			<point x="920.429" y="-20"/>
			<point x="1078.14" y="218.286"/>
		</contour>
		<contour>
			<point x="219.857" y="545" type="curve" smooth="yes"/>
			<point x="219.857" y="846"/>
			<point x="357.143" y="1024"/>
			<point x="605.571" y="1024" type="curve" smooth="yes"/>
			<point x="870.857" y="1024"/>
			<point x="973.286" y="814.286"/>
			<point x="973.286" y="545" type="curve" smooth="yes"/>
			<point x="973.286" y="262.714"/>
			<point x="858" y="65.1429"/>
			<point x="595.571" y="65.1429" type="curve" smooth="yes"/>
			<point x="340.571" y="65.1429"/>
			<point x="219.857" y="259.286"/>
		</contour>
	</outline>
	<anchor name="bottom" x="598.429" y="0"/>
	<anchor name="center" x="599" y="544.714"/>
	<anchor name="top" x="599" y="1088.43"/>
	<anchor name="topright" x="1155.14" y="1088.43"/>
</glyph>
<glyph name="q" format="2">
	<unicode hex="0071"/>
	<advance width="1212"/>
	<outline>
		<contour>
			<point x="929" y="-477.429" type="line"/>
			<point x="1031.14" y="-477.429" type="line"/>
			<point x="1031.14" y="1088.43" type="line"/>
			<point x="944.286" y="1088.43" type="line"/>
			<point x="932.429" y="885.857" type="line"/>
			<point x="927.857" y="885.857" type="line"/>
			<point x="879.143" y="1009.29"/>
			<point x="760.429" y="1109.29"/>
			<point x="571.714" y="1109.29" type="curve" smooth="yes"/>
			<point x="254" y="1109.29"/>
			<point x="110.857" y="862.286"/>
			<point x="110.857" y="541" type="curve" smooth="yes"/>
			<point x="110.857" y="173.429"/>
			<point x="262" y="-22.5714"/>
			<point x="542.571" y="-22.5714" type="curve" smooth="yes"/>
			<point x="742.143" y="-22.5714"/>
			<point x="882.714" y="86.4286"/>
			<point x="929" y="234.714" type="curve"/>
			<point x="934.143" y="234.714" type="line"/>
			<point x="931.286" y="168.571"/>
			<point x="929" y="66.4286"/>
			<point x="929" y="1.85714" type="curve" smooth="yes"/>
		</contour>
		<contour>
			<point x="565.286" y="65.2857" type="curve" smooth="yes"/>
			<point x="331.286" y="65.2857"/>
			<point x="214.714" y="224"/>
			<point x="214.714" y="540.143" type="curve" smooth="yes"/>
			<point x="214.714" y="847.714"/>
			<point x="345" y="1022.29"/>
			<point x="592.714" y="1022.29" type="curve" smooth="yes"/>
			<point x="824.286" y="1022.29"/>
			<point x="933.286" y="862"/>
			<point x="933.286" y="564.143" type="curve" smooth="yes"/>
			<point x="933.286" y="540.286" type="line" smooth="yes"/>
			<point x="933.286" y="242.857"/>
			<point x="820" y="65.2857"/>
		</contour>
	</outline>
	<anchor name="bottom" x="979.857" y="-477.429"/>
	<anchor name="top" x="606.714" y="1088.43"/>
	<anchor name="topright" x="1165.57" y="1088.43"/>
</glyph>
<glyph name="braceleft" format="2">
	<unicode hex="007B"/>
	<advance width="718"/>
	<outline>
		<contour>
			<point x="643.571" y="-326.857" type="curve"/>
			<point x="643.571" y="-242.571" type="line"/>
			<point x="465.857" y="-242.143"/>
			<point x="376.429" y="-180.714"/>
			<point x="376.429" y="-29.2857" type="curve" smooth="yes"/>
			<point x="376.429" y="311.857" type="line" smooth="yes"/>
			<point x="376.429" y="454.143"/>
			<point x="329.286" y="544.143"/>
			<point x="203.286" y="566.429" type="curve"/>
			<point x="203.286" y="571.571" type="line"/>
			<point x="328.714" y="594.286"/>
			<point x="376.429" y="684.286"/>
			<point x="376.429" y="827" type="curve" smooth="yes"/>
			<point x="376.429" y="1163.14" type="line" smooth="yes"/>
			<point x="376.429" y="1319.14"/>
			<point x="465.571" y="1381.14"/>
			<point x="643.571" y="1381.43" type="curve"/>
			<point x="643.571" y="1465" type="line"/>
			<point x="391.571" y="1465"/>
			<point x="283" y="1365.71"/>
			<point x="283" y="1179.86" type="curve" smooth="yes"/>
			<point x="283" y="843.571" type="line" smooth="yes"/>
			<point x="283" y="674"/>
			<point x="212.857" y="611.857"/>
			<point x="54.1429" y="611.857" type="curve"/>
			<point x="54.1429" y="526.857" type="line"/>
			<point x="212.286" y="526.857"/>
			<point x="283" y="458.429"/>
			<point x="283" y="295.143" type="curve" smooth="yes"/>
			<point x="283" y="-40.2857" type="line" smooth="yes"/>
			<point x="283" y="-227.143"/>
			<point x="392.429" y="-326.857"/>
		</contour>
	</outline>
</glyph>
<glyph name="bar" format="2">
	<unicode hex="007C"/>
	<advance width="1088"/>
	<outline>
		<contour>
			<point x="499.286" y="1562" type="line"/>
			<point x="499.286" y="-504.286" type="line"/>
			<point x="581.286" y="-504.286" type="line"/>
			<point x="581.286" y="1562" type="line"/>
		</contour>
	</outline>
</glyph>
<glyph name="exclamdown" format="2">
	<unicode hex="00A1"/>
	<advance width="477"/>
	<outline>
		<contour>
			<point x="191.286" y="708.857" type="line"/>
			<point x="180.571" y="-374.286" type="line"/>
			<point x="291.143" y="-374.286" type="line"/>
			<point x="280.429" y="708.857" type="line"/>
		</contour>
		<contour>
			<point x="313.714" y="1023.86" type="curve" smooth="yes"/>
			<point x="313.714" y="1073.14"/>
			<point x="290.571" y="1105.86"/>
			<point x="239" y="1105.86" type="curve" smooth="yes"/>
			<point x="180.857" y="1105.86"/>
			<point x="162.286" y="1073.14"/>
			<point x="162.286" y="1023.86" type="curve" smooth="yes"/>
			<point x="162.286" y="975.286"/>
			<point x="180.857" y="942.286"/>
			<point x="239" y="942.286" type="curve" smooth="yes"/>
			<point x="290.571" y="942.286"/>
			<point x="313.714" y="975.286"/>
		</contour>
	</outline>
</glyph>
<glyph name="currency" format="2">
	<unicode hex="00A4"/>
	<advance width="1166"/>
	<outline>
		<contour>
			<point x="173.143" y="724.714" type="curve" smooth="yes"/>
			<point x="173.143" y="631.571"/>
			<point x="205" y="538.857"/>
			<point x="266.429" y="465" type="curve"/>
			<point x="114.286" y="310.857" type="line"/>
			<point x="165.429" y="257.143" type="line"/>
			<point x="319.571" y="410.714" type="line"/>
			<point x="394.143" y="346.857"/>
			<point x="486.571" y="315.429"/>
			<point x="580.429" y="315.429" type="curve" smooth="yes"/>
			<point x="673.571" y="315.429"/>
			<point x="768" y="347.714"/>
			<point x="842.286" y="411" type="curve"/>
			<point x="994.857" y="256.857" type="line"/>
			<point x="1048.71" y="310.571" type="line"/>
			<point x="894.286" y="464.714" type="line"/>
			<point x="957.429" y="538.571"/>
			<point x="989.286" y="631.286"/>
			<point x="989.286" y="724.714" type="curve" smooth="yes"/>
			<point x="989.286" y="817.714"/>
			<point x="957.143" y="912"/>
			<point x="894.286" y="985" type="curve"/>
			<point x="1047.86" y="1138.29" type="line"/>
			<point x="994.857" y="1191.43" type="line"/>
			<point x="842.286" y="1037.86" type="line"/>
			<point x="767.143" y="1102.29"/>
			<point x="673.571" y="1134.29"/>
			<point x="580.429" y="1134.29" type="curve" smooth="yes"/>
			<point x="488" y="1134.29"/>
			<point x="394.429" y="1102"/>
			<point x="320.143" y="1038.43" type="curve"/>
			<point x="165.429" y="1193.14" type="line"/>
			<point x="114" y="1138.86" type="line"/>
			<point x="266.429" y="984.714" type="line"/>
			<point x="205.571" y="911.429"/>
			<point x="173.143" y="817.714"/>
		</contour>
		<contour>
			<point x="248.286" y="724.714" type="curve" smooth="yes"/>
			<point x="248.286" y="909.857"/>
			<point x="399.429" y="1058.86"/>
			<point x="582.143" y="1058.86" type="curve" smooth="yes"/>
			<point x="763" y="1058.86"/>
			<point x="914.429" y="908.143"/>
			<point x="914.429" y="726.429" type="curve" smooth="yes"/>
			<point x="914.429" y="543.286"/>
			<point x="763" y="390.857"/>
			<point x="578.714" y="390.857" type="curve" smooth="yes"/>
			<point x="401.143" y="390.857"/>
			<point x="248.286" y="534.714"/>
		</contour>
	</outline>
</glyph>
<glyph name="section" format="2">
	<unicode hex="00A7"/>
	<advance width="1056"/>
	<outline>
		<contour>
			<point x="159.143" y="808.143" type="curve" smooth="yes"/>
			<point x="159.143" y="615.714"/>
			<point x="304.857" y="563.714"/>
			<point x="489.714" y="504" type="curve"/>
			<point x="659.429" y="451.286"/>
			<point x="784" y="406.286"/>
			<point x="784" y="275" type="curve" smooth="yes"/>
			<point x="784" y="151.143"/>
			<point x="695" y="68.4286"/>
			<point x="476.143" y="68.4286" type="curve" smooth="yes"/>
			<point x="357.571" y="68.4286"/>
			<point x="237.286" y="98"/>
			<point x="130.714" y="150.714" type="curve"/>
			<point x="130.714" y="65.2857" type="line"/>
			<point x="209.857" y="28.8571"/>
			<point x="333.714" y="-5.28571"/>
			<point x="475.857" y="-5.28571" type="curve" smooth="yes"/>
			<point x="740" y="-5.28571"/>
			<point x="871.571" y="107.571"/>
			<point x="871.571" y="276.143" type="curve" smooth="yes"/>
			<point x="871.571" y="396.857"/>
			<point x="800" y="461.571"/>
			<point x="702.857" y="506.429" type="curve"/>
			<point x="806.857" y="559.429"/>
			<point x="886" y="651.429"/>
			<point x="886" y="783.286" type="curve" smooth="yes"/>
			<point x="886" y="972.286"/>
			<point x="720.429" y="1026"/>
			<point x="538" y="1086.71" type="curve" smooth="yes"/>
			<point x="381.857" y="1138.57"/>
			<point x="260.286" y="1166.71"/>
			<point x="260.286" y="1294" type="curve" smooth="yes"/>
			<point x="260.286" y="1421"/>
			<point x="364.429" y="1483.71"/>
			<point x="538" y="1483.71" type="curve" smooth="yes"/>
			<point x="639.143" y="1483.71"/>
			<point x="752.429" y="1459.29"/>
			<point x="827.571" y="1420.86" type="curve"/>
			<point x="861.286" y="1494.43" type="line"/>
			<point x="774.714" y="1531.43"/>
			<point x="663.429" y="1557.29"/>
			<point x="538.429" y="1557.29" type="curve" smooth="yes"/>
			<point x="310.857" y="1557.29"/>
			<point x="172.714" y="1457.43"/>
			<point x="172.714" y="1294" type="curve" smooth="yes"/>
			<point x="172.714" y="1167.14"/>
			<point x="255.143" y="1110.57"/>
			<point x="372" y="1064.29" type="curve"/>
			<point x="248.286" y="1020.43"/>
			<point x="159.143" y="937"/>
		</contour>
		<contour>
			<point x="246.143" y="812.571" type="curve" smooth="yes"/>
			<point x="246.143" y="934.143"/>
			<point x="340.286" y="998.857"/>
			<point x="460.143" y="1031.14" type="curve"/>
			<point x="678" y="973"/>
			<point x="798.143" y="914.714"/>
			<point x="798.143" y="776" type="curve" smooth="yes"/>
			<point x="798.143" y="667.143"/>
			<point x="732.286" y="582.857"/>
			<point x="631.143" y="539.571" type="curve"/>
			<point x="521.857" y="575" type="line"/>
			<point x="367.571" y="627.857"/>
			<point x="246.143" y="664"/>
		</contour>
	</outline>
</glyph>
<glyph name="registered" format="2">
	<unicode hex="00AE"/>
	<advance width="1702"/>
	<outline>
		<contour>
			<point x="596.857" y="295.857" type="line"/>
			<point x="679.714" y="295.857" type="line"/>
			<point x="679.714" y="659.571" type="line"/>
			<point x="882.714" y="659.571" type="line"/>
			<point x="1094.71" y="295.857" type="line"/>
			<point x="1191" y="295.857" type="line"/>
			<point x="962.714" y="674.286" type="line"/>
			<point x="1067.43" y="707.857"/>
			<point x="1146.57" y="784.857"/>
			<point x="1146.57" y="919.714" type="curve" smooth="yes"/>
			<point x="1146.57" y="1091.71"/>
			<point x="1028.71" y="1168.29"/>
			<point x="844.143" y="1168.29" type="curve" smooth="yes"/>
			<point x="596.857" y="1168.29" type="line"/>
		</contour>
		<contour>
			<point x="677.143" y="723.286" type="line"/>
			<point x="677.143" y="1098.43" type="line"/>
			<point x="841" y="1098.43" type="line" smooth="yes"/>
			<point x="972.571" y="1098.43"/>
			<point x="1066" y="1047.57"/>
			<point x="1066" y="918.143" type="curve" smooth="yes"/>
			<point x="1066" y="780.857"/>
			<point x="965.714" y="723.286"/>
			<point x="837.286" y="723.286" type="curve" smooth="yes"/>
		</contour>
		<contour>
			<point x="850.857" y="-16.5714" type="curve" smooth="yes"/>
			<point x="1266.29" y="-16.5714"/>
			<point x="1601" y="315.571"/>
			<point x="1601" y="731" type="curve" smooth="yes"/>
			<point x="1601" y="1125"/>
			<point x="1286.86" y="1479.57"/>
			<point x="850.857" y="1479.57" type="curve" smooth="yes"/>
			<point x="438.857" y="1479.57"/>
			<point x="100.571" y="1158.43"/>
			<point x="100.571" y="731" type="curve" smooth="yes"/>
			<point x="100.571" y="318.143"/>
			<point x="413.143" y="-16.5714"/>
		</contour>
		<contour>
			<point x="850.857" y="50.4286" type="curve" smooth="yes"/>
			<point x="446" y="50.4286"/>
			<point x="172.571" y="356.714"/>
			<point x="172.571" y="731" type="curve" smooth="yes"/>
			<point x="172.571" y="1112.14"/>
			<point x="467.429" y="1411.57"/>
			<point x="850.857" y="1411.57" type="curve" smooth="yes"/>
			<point x="1240.57" y="1411.57"/>
			<point x="1528.43" y="1101.86"/>
			<point x="1528.43" y="731" type="curve" smooth="yes"/>
			<point x="1528.43" y="363.571"/>
			<point x="1240.57" y="50.4286"/>
		</contour>
	</outline>
</glyph>
<glyph name="periodcentered" format="2">
	<unicode hex="00B7"/>
	<advance width="471"/>
	<outline>
		<contour>
			<point x="161.429" y="654.429" type="curve" smooth="yes"/>
			<point x="161.429" y="605.143"/>
			<point x="183.714" y="573.143"/>
			<point x="235.571" y="573.143" type="curve" smooth="yes"/>
			<point x="293.429" y="573.143"/>
			<point x="312.857" y="605.143"/>
			<point x="312.857" y="654.429" type="curve" smooth="yes"/>
			<point x="312.857" y="702.857"/>
			<point x="293.429" y="736.714"/>
			<point x="235.571" y="736.714" type="curve" smooth="yes"/>
			<point x="183.714" y="736.714"/>
			<point x="161.429" y="702.857"/>
		</contour>
	</outline>
</glyph>
<glyph name="onequarter" format="2">
	<unicode hex="00BC"/>
	<advance width="1485"/>
	<outline>
		<contour>
			<point x="308.857" y="0" type="line"/>
			<point x="400.714" y="0" type="line"/>
			<point x="1161.57" y="1462" type="line"/>
			<point x="1069.71" y="1462" type="line"/>
		</contour>
		<contour>
			<point x="294" y="586" type="line"/>
			<point x="379.857" y="586" type="line"/>
			<point x="379.857" y="1462" type="line"/>
			<point x="313.429" y="1462" type="line"/>
			<point x="26.5714" y="1295.14" type="line"/>
			<point x="66.1429" y="1232.29" type="line"/>
			<point x="161.286" y="1286.57" type="line" smooth="yes"/>
			<point x="220.857" y="1320.29"/>
			<point x="256" y="1339.86"/>
			<point x="297.143" y="1368.14" type="curve"/>
			<point x="294.286" y="1294.14"/>
			<point x="294" y="1200.43"/>
			<point x="294" y="1128" type="curve" smooth="yes"/>
		</contour>
		<contour>
			<point x="1235.29" y="0" type="line"/>
			<point x="1319" y="0" type="line"/>
			<point x="1319" y="249.571" type="line"/>
			<point x="1466.29" y="249.571" type="line"/>
			<point x="1466.29" y="320.286" type="line"/>
			<point x="1319" y="320.286" type="line"/>
			<point x="1319" y="883" type="line"/>
			<point x="1227.14" y="883" type="line"/>
			<point x="824.857" y="308.286" type="line"/>
			<point x="824.857" y="249.571" type="line"/>
			<point x="1235.29" y="249.571" type="line"/>
		</contour>
		<contour>
			<point x="911" y="320.286" type="line"/>
			<point x="1169.86" y="687.143" type="line" smooth="yes"/>
			<point x="1196" y="725.429"/>
			<point x="1211.71" y="748.714"/>
			<point x="1237.86" y="797" type="curve"/>
			<point x="1235.57" y="745.429"/>
			<point x="1235.29" y="695.286"/>
			<point x="1235.29" y="632" type="curve" smooth="yes"/>
			<point x="1235.29" y="320.286" type="line"/>
		</contour>
	</outline>
</glyph>
<glyph name="threequarters" format="2">
	<unicode hex="00BE"/>
	<advance width="1601"/>
	<outline>
		<contour>
			<point x="429.857" y="0" type="line"/>
			<point x="521.714" y="0" type="line"/>
			<point x="1282.57" y="1462" type="line"/>
			<point x="1190.71" y="1462" type="line"/>
		</contour>
		<contour>
			<point x="321.857" y="576.714" type="curve" smooth="yes"/>
			<point x="524.714" y="576.714"/>
			<point x="644.571" y="670.571"/>
			<point x="644.571" y="835.857" type="curve" smooth="yes"/>
			<point x="644.571" y="951.714"/>
			<point x="581" y="1021.43"/>
			<point x="465.714" y="1047.43" type="curve"/>
			<point x="465.714" y="1052.14" type="line"/>
			<point x="560.286" y="1075.43"/>
			<point x="622.429" y="1150.71"/>
			<point x="622.429" y="1264.29" type="curve" smooth="yes"/>
			<point x="622.429" y="1399"/>
			<point x="519.286" y="1477.57"/>
			<point x="359.143" y="1477.57" type="curve" smooth="yes"/>
			<point x="246.429" y="1477.57"/>
			<point x="152.286" y="1443.71"/>
			<point x="73.7143" y="1389.14" type="curve"/>
			<point x="107.571" y="1326.29" type="line"/>
			<point x="184.571" y="1374.43"/>
			<point x="257.429" y="1402.86"/>
			<point x="354.143" y="1402.86" type="curve" smooth="yes"/>
			<point x="472.714" y="1402.86"/>
			<point x="537.857" y="1343.86"/>
			<point x="537.857" y="1255.14" type="curve" smooth="yes"/>
			<point x="537.857" y="1141.86"/>
			<point x="461.429" y="1078.57"/>
			<point x="322.571" y="1078.57" type="curve" smooth="yes"/>
			<point x="193.714" y="1078.57" type="line"/>
			<point x="193.714" y="1007.14" type="line"/>
			<point x="326.143" y="1007.14" type="line" smooth="yes"/>
			<point x="483.286" y="1007.14"/>
			<point x="558" y="955.857"/>
			<point x="558" y="840.857" type="curve" smooth="yes"/>
			<point x="558" y="722.143"/>
			<point x="475.286" y="652.143"/>
			<point x="320.143" y="652.143" type="curve" smooth="yes"/>
			<point x="222.286" y="652.143"/>
			<point x="139.714" y="674.714"/>
			<point x="58.2857" y="712.571" type="curve"/>
			<point x="58.2857" y="630.429" type="line"/>
			<point x="130.286" y="597.143"/>
			<point x="222" y="576.714"/>
		</contour>
		<contour>
			<point x="1350.86" y="0" type="line"/>
			<point x="1433.86" y="0" type="line"/>
			<point x="1433.86" y="249.571" type="line"/>
			<point x="1582" y="249.571" type="line"/>
			<point x="1582" y="320.286" type="line"/>
			<point x="1433.86" y="320.286" type="line"/>
			<point x="1433.86" y="883" type="line"/>
			<point x="1342.86" y="883" type="line"/>
			<point x="939.714" y="308.286" type="line"/>
			<point x="939.714" y="249.571" type="line"/>
			<point x="1350.86" y="249.571" type="line"/>
		</contour>
		<contour>
			<point x="1026.71" y="320.286" type="line"/>
			<point x="1285.57" y="687.143" type="line" smooth="yes"/>
			<point x="1311.71" y="725.429"/>
			<point x="1327.43" y="748.714"/>
			<point x="1353.57" y="797" type="curve"/>
			<point x="1351.29" y="745.429"/>
			<point x="1350.86" y="695.286"/>
			<point x="1350.86" y="632" type="curve" smooth="yes"/>
			<point x="1350.86" y="320.286" type="line"/>
		</contour>
	</outline>
</glyph>
<glyph name="Aring" format="2">
	<unicode hex="00C5"/>
	<advance width="1226"/>
	<outline>
		<contour>
			<point x="1114.14" y="0" type="line"/>
			<point x="1225.57" y="0" type="line"/>
			<point x="682.571" y="1466.29" type="line"/>
			<point x="563.571" y="1466.29" type="line"/>
			<point x="0" y="0" type="line"/>
			<point x="110.857" y="0" type="line"/>
			<point x="309.143" y="514.857" type="line"/>
			<point x="921.286" y="514.857" type="line"/>
		</contour>
		<contour>
			<point x="892.429" y="604.857" type="line"/>
			<point x="337.143" y="604.857" type="line"/>
			<point x="549.286" y="1160.29" type="line"/>
			<point x="570.857" y="1222"/>
			<point x="600.714" y="1305.14"/>
			<point x="620.429" y="1372.71" type="curve"/>
			<point x="646.286" y="1293.14"/>
			<point x="673" y="1214.14"/>
			<point x="690.571" y="1162.86" type="curve"/>
		</contour>
		<contour>
			<point x="617.857" y="1407.57" type="curve" smooth="yes"/>
			<point x="735.571" y="1407.57"/>
			<point x="832.429" y="1493.29"/>
			<point x="832.429" y="1619.57" type="curve" smooth="yes"/>
			<point x="832.429" y="1738.71"/>
			<point x="735.286" y="1831.29"/>
			<point x="617.857" y="1831.29" type="curve" smooth="yes"/>
			<point x="498.429" y="1831.29"/>
			<point x="402.714" y="1742.14"/>
			<point x="402.714" y="1619.29" type="curve" smooth="yes"/>
			<point x="402.714" y="1491.57"/>
			<point x="500.143" y="1407.57"/>
		</contour>
		<contour>
			<point x="617.857" y="1473.57" type="curve" smooth="yes"/>
			<point x="531.143" y="1473.57"/>
			<point x="470.429" y="1538.57"/>
			<point x="470.429" y="1619.29" type="curve" smooth="yes"/>
			<point x="470.429" y="1700.29"/>
			<point x="534" y="1765"/>
			<point x="617.857" y="1765" type="curve" smooth="yes"/>
			<point x="696.571" y="1765"/>
			<point x="762.714" y="1700.29"/>
			<point x="762.714" y="1619.29" type="curve" smooth="yes"/>
			<point x="762.714" y="1538.57"/>
			<point x="703.429" y="1473.57"/>
		</contour>
	</outline>
	<anchor name="bottom" x="613.571" y="0"/>
	<anchor name="top" x="613.571" y="1831.14"/>
</glyph>
<glyph name="ae" format="2">
	<unicode hex="00E6"/>
	<advance width="1766"/>
	<outline>
		<contour>
			<point x="1251.29" y="1109.29" type="curve" smooth="yes"/>
			<point x="1056.86" y="1109.29"/>
			<point x="931.571" y="992.857"/>
			<point x="867.571" y="825" type="curve"/>
			<point x="838.143" y="1020.86"/>
			<point x="732.571" y="1107.57"/>
			<point x="551.286" y="1107.57" type="curve" smooth="yes"/>
			<point x="429" y="1107.57"/>
			<point x="309.429" y="1076.29"/>
			<point x="198.429" y="1024.71" type="curve"/>
			<point x="229.571" y="942.714" type="line"/>
			<point x="345.143" y="1000.29"/>
			<point x="445.714" y="1024.43"/>
			<point x="546.857" y="1024.43" type="curve" smooth="yes"/>
			<point x="708" y="1024.43"/>
			<point x="796" y="933.714"/>
			<point x="796" y="707.286" type="curve" smooth="yes"/>
			<point x="796" y="629.286" type="line"/>
			<point x="601" y="618.143" type="line" smooth="yes"/>
			<point x="288.286" y="599.571"/>
			<point x="94.5714" y="496.857"/>
			<point x="94.5714" y="276.571" type="curve" smooth="yes"/>
			<point x="94.5714" y="92.8571"/>
			<point x="214.286" y="-20"/>
			<point x="430.571" y="-20" type="curve" smooth="yes"/>
			<point x="662" y="-20"/>
			<point x="784" y="94.4286"/>
			<point x="846.714" y="278.857" type="curve"/>
			<point x="905.143" y="102.429"/>
			<point x="1046.43" y="-20"/>
			<point x="1267.29" y="-20" type="curve" smooth="yes"/>
			<point x="1395.43" y="-20"/>
			<point x="1495.29" y="0.857143"/>
			<point x="1601" y="49.2857" type="curve"/>
			<point x="1601" y="136.571" type="line"/>
			<point x="1473.71" y="78.4286"/>
			<point x="1389.86" y="63.4286"/>
			<point x="1274.71" y="63.4286" type="curve" smooth="yes"/>
			<point x="1037.29" y="63.4286"/>
			<point x="893" y="234.286"/>
			<point x="895.571" y="533" type="curve"/>
			<point x="1646.43" y="533" type="line"/>
			<point x="1646.43" y="601.286" type="line"/>
			<point x="1656.71" y="895.286"/>
			<point x="1516.86" y="1109.29"/>
		</contour>
		<contour>
			<point x="796.286" y="554.857" type="line"/>
			<point x="796.286" y="446.286" type="line"/>
			<point x="792.857" y="220"/>
			<point x="683.143" y="63.1429"/>
			<point x="452.286" y="63.1429" type="curve" smooth="yes"/>
			<point x="290" y="63.1429"/>
			<point x="201.286" y="142.429"/>
			<point x="201.286" y="277.143" type="curve" smooth="yes"/>
			<point x="201.286" y="453.143"/>
			<point x="363.714" y="533.143"/>
			<point x="618.857" y="545.714" type="curve" smooth="yes"/>
		</contour>
		<contour>
			<point x="1248.14" y="1027.57" type="curve" smooth="yes"/>
			<point x="1447.29" y="1027.57"/>
			<point x="1550.71" y="857.286"/>
			<point x="1549.29" y="611.857" type="curve"/>
			<point x="898.143" y="611.857" type="line"/>
			<point x="921" y="885.429"/>
			<point x="1063.86" y="1027.57"/>
		</contour>
	</outline>
	<anchor name="bottom" x="882.571" y="0"/>
	<anchor name="top" x="886.429" y="1088.43"/>
</glyph>
<glyph name="odieresis" format="2">
	<unicode hex="00F6"/>
	<advance width="1196"/>
	<outline>
		<contour>
			<point x="1078.14" y="545" type="curve" smooth="yes"/>
			<point x="1078.14" y="866.857"/>
			<point x="932.143" y="1109.29"/>
			<point x="606.143" y="1109.29" type="curve" smooth="yes"/>
			<point x="297.571" y="1109.29"/>
			<point x="116" y="893.429"/>
			<point x="116" y="545" type="curve" smooth="yes"/>
			<point x="116" y="214.857"/>
			<point x="280.857" y="-20"/>
			<point x="595" y="-20" type="curve" smooth="yes"/>
			<point x="920.429" y="-20"/>
			<point x="1078.14" y="218.286"/>
		</contour>
		<contour>
			<point x="219.857" y="545" type="curve" smooth="yes"/>
			<point x="219.857" y="846"/>
			<point x="357.143" y="1024"/>
			<point x="605.571" y="1024" type="curve" smooth="yes"/>
			<point x="870.857" y="1024"/>
			<point x="973.286" y="814.286"/>
			<point x="973.286" y="545" type="curve" smooth="yes"/>
			<point x="973.286" y="262.714"/>
			<point x="858" y="65.1429"/>
			<point x="595.571" y="65.1429" type="curve" smooth="yes"/>
			<point x="340.571" y="65.1429"/>
			<point x="219.857" y="259.286"/>
		</contour>
		<contour>
			<point x="332.714" y="1392.43" type="curve" smooth="yes"/>
			<point x="332.714" y="1347.29"/>
			<point x="351.857" y="1315.29"/>
			<point x="397.286" y="1315.29" type="curve" smooth="yes"/>
			<point x="449" y="1315.29"/>
			<point x="465.571" y="1347.29"/>
			<point x="465.571" y="1392.43" type="curve" smooth="yes"/>
			<point x="465.571" y="1435.43"/>
			<point x="449" y="1469"/>
			<point x="397.286" y="1469" type="curve" smooth="yes"/>
			<point x="351.857" y="1469"/>
			<point x="332.714" y="1435.43"/>
		</contour>
		<contour>
			<point x="726" y="1392.43" type="curve" smooth="yes"/>
			<point x="726" y="1347.29"/>
			<point x="745.143" y="1315.29"/>
			<point x="790.857" y="1315.29" type="curve" smooth="yes"/>
			<point x="842.714" y="1315.29"/>
			<point x="859.286" y="1347.29"/>
			<point x="859.286" y="1392.43" type="curve" smooth="yes"/>
			<point x="859.286" y="1435.43"/>
			<point x="842.714" y="1469"/>
			<point x="790.857" y="1469" type="curve" smooth="yes"/>
			<point x="745.143" y="1469"/>
			<point x="726" y="1435.43"/>
		</contour>
	</outline>
	<anchor name="bottom" x="598.429" y="0"/>
	<anchor name="top" x="599" y="1469"/>
</glyph>
<glyph name="divide" format="2">
	<unicode hex="00F7"/>
	<advance width="1172"/>
	<outline>
		<contour>
			<point x="110" y="682.286" type="line"/>
			<point x="1062.29" y="682.286" type="line"/>
			<point x="1062.29" y="763.429" type="line"/>
			<point x="110" y="763.429" type="line"/>
		</contour>
		<contour>
			<point x="584.286" y="276" type="curve" smooth="yes"/>
			<point x="638" y="276"/>
			<point x="654" y="308.143"/>
			<point x="654" y="354.286" type="curve" smooth="yes"/>
			<point x="654" y="400.714"/>
			<point x="638" y="433.429"/>
			<point x="584.286" y="433.429" type="curve" smooth="yes"/>
			<point x="537.143" y="433.429"/>
			<point x="517.429" y="400.714"/>
			<point x="517.429" y="354.286" type="curve" smooth="yes"/>
			<point x="517.429" y="308.143"/>
			<point x="537.143" y="276"/>
		</contour>
		<contour>
			<point x="584.286" y="1012.29" type="curve" smooth="yes"/>
			<point x="638" y="1012.29"/>
			<point x="654" y="1044.43"/>
			<point x="654" y="1090.57" type="curve" smooth="yes"/>
			<point x="654" y="1137"/>
			<point x="638" y="1169.71"/>
			<point x="584.286" y="1169.71" type="curve" smooth="yes"/>
			<point x="537.143" y="1169.71"/>
			<point x="517.429" y="1137"/>
			<point x="517.429" y="1090.57" type="curve" smooth="yes"/>
			<point x="517.429" y="1044.43"/>
			<point x="537.143" y="1012.29"/>
		</contour>
	</outline>
</glyph>
<glyph name="oslash" format="2">
	<unicode hex="00F8"/>
	<advance width="1204"/>
	<outline>
		<contour>
			<point x="1086.29" y="545" type="curve" smooth="yes"/>
			<point x="1086.29" y="713.714"/>
			<point x="1044.57" y="859.714"/>
			<point x="959.714" y="961.143" type="curve"/>
			<point x="1074.71" y="1106.29" type="line"/>
			<point x="1017.29" y="1149.57" type="line"/>
			<point x="905.143" y="1006.86" type="line"/>
			<point x="833.429" y="1072.14"/>
			<point x="736.286" y="1109.29"/>
			<point x="610.286" y="1109.29" type="curve" smooth="yes"/>
			<point x="299" y="1109.29"/>
			<point x="116" y="893.429"/>
			<point x="116" y="545" type="curve" smooth="yes"/>
			<point x="116" y="384.143"/>
			<point x="157.714" y="246.429"/>
			<point x="235.429" y="146.429" type="curve"/>
			<point x="103.286" y="-21.1429" type="line"/>
			<point x="161" y="-63.8571" type="line"/>
			<point x="288.714" y="97.1429" type="line"/>
			<point x="363.714" y="23.7143"/>
			<point x="465.714" y="-20"/>
			<point x="599.143" y="-20" type="curve" smooth="yes"/>
			<point x="927.286" y="-20"/>
			<point x="1086.29" y="218.286"/>
		</contour>
		<contour>
			<point x="216.714" y="545" type="curve" smooth="yes"/>
			<point x="216.714" y="848"/>
			<point x="355.143" y="1027"/>
			<point x="609.714" y="1027" type="curve" smooth="yes"/>
			<point x="716.143" y="1027"/>
			<point x="795.286" y="993"/>
			<point x="852.857" y="936.857" type="curve"/>
			<point x="292.143" y="227.429" type="line"/>
			<point x="241.857" y="309"/>
			<point x="216.714" y="416.857"/>
		</contour>
		<contour>
			<point x="984.714" y="545" type="curve" smooth="yes"/>
			<point x="984.714" y="260.571"/>
			<point x="868.571" y="62.2857"/>
			<point x="599.714" y="62.2857" type="curve" smooth="yes"/>
			<point x="486.714" y="62.2857"/>
			<point x="400.143" y="101.143"/>
			<point x="339.429" y="167.143" type="curve"/>
			<point x="901" y="877.429" type="line"/>
			<point x="960.429" y="793.429"/>
			<point x="984.714" y="676.286"/>
		</contour>
	</outline>
	<anchor name="bottom" x="603.143" y="0"/>
	<anchor name="top" x="603.429" y="1088.43"/>
</glyph>
<glyph name="thorn" format="2">
	<unicode hex="00FE"/>
	<advance width="1212"/>
	<outline>
		<contour>
			<point x="1098.71" y="553.571" type="curve" smooth="yes"/>
			<point x="1098.71" y="916.857"/>
			<point x="947.286" y="1109.29"/>
			<point x="667.571" y="1109.29" type="curve" smooth="yes"/>
			<point x="453.429" y="1109.29"/>
			<point x="326.857" y="989.857"/>
			<point x="280.857" y="853.286" type="curve"/>
			<point x="274.857" y="853.286" type="line"/>
			<point x="277.714" y="917.429"/>
			<point x="280.857" y="1023.14"/>
			<point x="280.857" y="1094.57" type="curve" smooth="yes"/>
			<point x="280.857" y="1556" type="line"/>
			<point x="178.714" y="1556" type="line"/>
			<point x="178.714" y="-477.429" type="line"/>
			<point x="280.857" y="-477.429" type="line"/>
			<point x="280.857" y="-32.7143" type="line" smooth="yes"/>
			<point x="280.857" y="47.1429"/>
			<point x="280" y="134"/>
			<point x="275.429" y="219.571" type="curve"/>
			<point x="280.857" y="219.571" type="line"/>
			<point x="327.714" y="86.7143"/>
			<point x="444" y="-20"/>
			<point x="648.429" y="-20" type="curve" smooth="yes"/>
			<point x="929.571" y="-20"/>
			<point x="1098.71" y="185.429"/>
		</contour>
		<contour>
			<point x="994.714" y="554.143" type="curve" smooth="yes"/>
			<point x="994.714" y="233.286"/>
			<point x="861" y="68.7143"/>
			<point x="630.571" y="68.7143" type="curve" smooth="yes"/>
			<point x="412.714" y="68.7143"/>
			<point x="282.571" y="217"/>
			<point x="282.571" y="541.857" type="curve" smooth="yes"/>
			<point x="282.571" y="551.143" type="line"/>
			<point x="283.143" y="848"/>
			<point x="406.143" y="1021.71"/>
			<point x="646.857" y="1021.71" type="curve" smooth="yes"/>
			<point x="877" y="1021.71"/>
			<point x="994.714" y="869.429"/>
		</contour>
	</outline>
	<anchor name="bottom" x="606.714" y="-477.429"/>
	<anchor name="top" x="606.714" y="1556"/>
</glyph>
<glyph name="eogonek" format="2">
	<unicode hex="0119"/>
	<advance width="1129"/>
	<outline>
		<component base="e"/>
		<contour>
			<point x="745.286" y="-256.286" type="curve" smooth="yes"/>
			<point x="745.286" y="-158.714"/>
			<point x="822.571" y="-67.7143"/>
			<point x="946.571" y="44.1429" type="curve"/>
			<point x="871.857" y="45.8571" type="line"/>
			<point x="719.857" y="-77.1429"/>
			<point x="663.714" y="-176.571"/>
			<point x="663.714" y="-273.714" type="curve" smooth="yes"/>
			<point x="663.714" y="-391"/>
			<point x="743.429" y="-450.857"/>
			<point x="846.286" y="-450.857" type="curve" smooth="yes"/>
			<point x="893.714" y="-450.857"/>
			<point x="933.286" y="-442.143"/>
			<point x="959.429" y="-433.286" type="curve"/>
			<point x="959.429" y="-359.714" type="line"/>
			<point x="935.571" y="-368.286"/>
			<point x="897.714" y="-374.857"/>
			<point x="859.286" y="-374.857" type="curve" smooth="yes"/>
			<point x="784" y="-374.857"/>
			<point x="745.286" y="-332.286"/>
		</contour>
	</outline>
	<anchor name="bottom" x="571.429" y="-450.857"/>
	<anchor name="top" x="564.429" y="1088.43"/>
</glyph>
<glyph name="hbar" format="2">
	<unicode hex="0127"/>
	<advance width="1205"/>
	<outline>
		<contour>
			<point x="282.143" y="1556" type="line"/>
			<point x="180" y="1556" type="line"/>
			<point x="180" y="1350.71" type="line"/>
			<point x="28.2857" y="1350.71" type="line"/>
			<point x="28.2857" y="1272.43" type="line"/>
			<point x="180" y="1272.43" type="line"/>
			<point x="180" y="0" type="line"/>
			<point x="282.143" y="0" type="line"/>
			<point x="282.143" y="586.143" type="line" smooth="yes"/>
			<point x="282.143" y="871.286"/>
			<point x="424.857" y="1007.29"/>
			<point x="647.286" y="1007.29" type="curve" smooth="yes"/>
			<point x="830.143" y="1007.29"/>
			<point x="936.571" y="906.286"/>
			<point x="936.571" y="680" type="curve" smooth="yes"/>
			<point x="936.571" y="0" type="line"/>
			<point x="1038.29" y="0" type="line"/>
			<point x="1038.29" y="699" type="line" smooth="yes"/>
			<point x="1038.29" y="970"/>
			<point x="897.571" y="1095"/>
			<point x="665.714" y="1095" type="curve" smooth="yes"/>
			<point x="449" y="1095"/>
			<point x="330.429" y="986.571"/>
			<point x="283" y="859.571" type="curve"/>
			<point x="275.429" y="859.571" type="line"/>
			<point x="279" y="919.143"/>
			<point x="281.857" y="969.571"/>
			<point x="281.857" y="1031.71" type="curve" smooth="yes"/>
			<point x="281.857" y="1272.43" type="line"/>
			<point x="739.714" y="1272.43" type="line"/>
			<point x="739.714" y="1350.71" type="line"/>
			<point x="282.143" y="1350.71" type="line"/>
		</contour>
	</outline>
	<anchor name="bottom" x="603.429" y="0"/>
	<anchor name="top" x="552" y="1556"/>
</glyph>
<glyph name="Lslash" format="2">
	<unicode hex="0141"/>
	<advance width="1066"/>
	<outline>
		<contour>
			<point x="211.286" y="0" type="line"/>
			<point x="1020.14" y="0" type="line"/>
			<point x="1020.14" y="89.2857" type="line"/>
			<point x="313.143" y="89.2857" type="line"/>
			<point x="313.143" y="629.857" type="line"/>
			<point x="691" y="872.571" type="line"/>
			<point x="643.286" y="944.286" type="line"/>
			<point x="313.143" y="732.714" type="line"/>
			<point x="313.143" y="1462" type="line"/>
			<point x="211.286" y="1462" type="line"/>
			<point x="211.286" y="667.857" type="line"/>
			<point x="12.7143" y="541.714" type="line"/>
			<point x="59.5714" y="469.429" type="line"/>
			<point x="211.286" y="565.857" type="line"/>
		</contour>
	</outline>
	<anchor name="bottom" x="587.571" y="0"/>
	<anchor name="top" x="253.714" y="1462"/>
</glyph>
<glyph name="lslash" format="2">
	<unicode hex="0142"/>
	<advance width="485"/>
	<outline>
		<contour>
			<point x="198.714" y="0" type="line"/>
			<point x="300.143" y="0" type="line"/>
			<point x="300.143" y="716.143" type="line"/>
			<point x="500.143" y="847" type="line"/>
			<point x="458.714" y="915.714" type="line"/>
			<point x="300.143" y="810.714" type="line"/>
			<point x="300.143" y="1556" type="line"/>
			<point x="198.714" y="1556" type="line"/>
			<point x="198.714" y="751.286" type="line"/>
			<point x="12.7143" y="631.143" type="line"/>
			<point x="57.5714" y="558.857" type="line"/>
			<point x="198.714" y="652.429" type="line"/>
		</contour>
	</outline>
	<anchor name="bottom" x="243.714" y="0"/>
	<anchor name="top" x="243.714" y="1556"/>
</glyph>
<glyph name="Eng" format="2">
	<unicode hex="014A"/>
	<advance width="1470"/>
	<outline>
		<contour>
			<point x="927.714" y="-375" type="curve" smooth="yes"/>
			<point x="1143.86" y="-375"/>
			<point x="1264.57" y="-235.429"/>
			<point x="1264.57" y="4" type="curve" smooth="yes"/>
			<point x="1264.57" y="1462" type="line"/>
			<point x="1168" y="1462" type="line"/>
			<point x="1168" y="523.857" type="line" smooth="yes"/>
			<point x="1168" y="423.714"/>
			<point x="1169.43" y="299"/>
			<point x="1172" y="200.429" type="curve"/>
			<point x="1167.43" y="200.429" type="line"/>
			<point x="306.429" y="1462" type="line"/>
			<point x="203.429" y="1462" type="line"/>
			<point x="203.429" y="0" type="line"/>
			<point x="298.857" y="0" type="line"/>
			<point x="298.857" y="968.857" type="line" smooth="yes"/>
			<point x="298.857" y="1083.71"/>
			<point x="297.429" y="1184"/>
			<point x="294.429" y="1296.57" type="curve"/>
			<point x="299.143" y="1296.57" type="line"/>
			<point x="1171" y="17.1429" type="line"/>
			<point x="1169.43" y="-191.286"/>
			<point x="1088.71" y="-285.714"/>
			<point x="918.714" y="-285.714" type="curve" smooth="yes"/>
			<point x="858.429" y="-285.714"/>
			<point x="800.286" y="-275.429"/>
			<point x="756.143" y="-262.286" type="curve"/>
			<point x="756.143" y="-349.857" type="line"/>
			<point x="789.143" y="-361.571"/>
			<point x="859.714" y="-375"/>
		</contour>
	</outline>
	<anchor name="bottom" x="734.857" y="-375"/>
	<anchor name="top" x="734.857" y="1462"/>
</glyph>
<glyph name="OE" format="2">
	<unicode hex="0152"/>
	<advance width="1858"/>
	<outline>
		<contour>
			<point x="776" y="1470.43" type="curve" smooth="yes"/>
			<point x="359.143" y="1470.43"/>
			<point x="125.429" y="1177.71"/>
			<point x="125.429" y="735" type="curve" smooth="yes"/>
			<point x="125.429" y="291.286"/>
			<point x="342.286" y="-8"/>
			<point x="770.571" y="-8" type="curve" smooth="yes"/>
			<point x="838.857" y="-8"/>
			<point x="899.286" y="-3.42857"/>
			<point x="946" y="0" type="curve"/>
			<point x="1735.14" y="0" type="line"/>
			<point x="1735.14" y="89.7143" type="line"/>
			<point x="1037.57" y="89.7143" type="line"/>
			<point x="1037.57" y="724" type="line"/>
			<point x="1694.71" y="724" type="line"/>
			<point x="1694.71" y="813.857" type="line"/>
			<point x="1037.57" y="813.857" type="line"/>
			<point x="1037.57" y="1373" type="line"/>
			<point x="1735.14" y="1373" type="line"/>
			<point x="1735.14" y="1462" type="line"/>
			<point x="964.286" y="1462" type="line"/>
			<point x="895" y="1465.86"/>
			<point x="844.857" y="1470.43"/>
		</contour>
		<contour>
			<point x="776.286" y="1380.43" type="curve" smooth="yes"/>
			<point x="846.571" y="1380.43"/>
			<point x="902.571" y="1372.71"/>
			<point x="935.571" y="1366.57" type="curve"/>
			<point x="935.571" y="95.7143" type="line"/>
			<point x="896.857" y="86.5714"/>
			<point x="841.143" y="82.7143"/>
			<point x="770.857" y="82.7143" type="curve" smooth="yes"/>
			<point x="405.714" y="82.7143"/>
			<point x="232" y="343"/>
			<point x="232" y="734.714" type="curve" smooth="yes"/>
			<point x="232" y="1118.71"/>
			<point x="410.857" y="1380.43"/>
		</contour>
	</outline>
	<anchor name="bottom" x="930.429" y="0"/>
	<anchor name="top" x="930.429" y="1462"/>
</glyph>
<glyph name="oe" format="2">
	<unicode hex="0153"/>
	<advance width="1984"/>
	<outline>
		<contour>
			<point x="1457.43" y="1109.29" type="curve" smooth="yes"/>
			<point x="1225.29" y="1109.29"/>
			<point x="1087.71" y="968.857"/>
			<point x="1028.29" y="778.286" type="curve"/>
			<point x="975.714" y="972.857"/>
			<point x="845" y="1109.29"/>
			<point x="606.143" y="1109.29" type="curve" smooth="yes"/>
			<point x="297.571" y="1109.29"/>
			<point x="116" y="893.429"/>
			<point x="116" y="545" type="curve" smooth="yes"/>
			<point x="116" y="214.857"/>
			<point x="280.857" y="-20"/>
			<point x="595" y="-20" type="curve" smooth="yes"/>
			<point x="831.571" y="-20"/>
			<point x="970" y="111"/>
			<point x="1027.86" y="304.714" type="curve"/>
			<point x="1084.14" y="108.714"/>
			<point x="1224.29" y="-20"/>
			<point x="1474.29" y="-20" type="curve" smooth="yes"/>
			<point x="1614.29" y="-20"/>
			<point x="1714.14" y="0.857143"/>
			<point x="1819.86" y="49.2857" type="curve"/>
			<point x="1819.86" y="136.571" type="line"/>
			<point x="1692.57" y="78.4286"/>
			<point x="1608.71" y="63.4286"/>
			<point x="1481.57" y="63.4286" type="curve" smooth="yes"/>
			<point x="1216.71" y="63.4286"/>
			<point x="1073.29" y="234.286"/>
			<point x="1075.86" y="533" type="curve"/>
			<point x="1864.43" y="533" type="line"/>
			<point x="1864.43" y="601.286" type="line" smooth="yes"/>
			<point x="1864.43" y="895.286"/>
			<point x="1735.71" y="1109.29"/>
		</contour>
		<contour>
			<point x="605.571" y="1024" type="curve" smooth="yes"/>
			<point x="870.857" y="1024"/>
			<point x="973.286" y="814.286"/>
			<point x="973.286" y="545" type="curve" smooth="yes"/>
			<point x="973.286" y="262.714"/>
			<point x="858" y="65.1429"/>
			<point x="595.571" y="65.1429" type="curve" smooth="yes"/>
			<point x="340.571" y="65.1429"/>
			<point x="220.143" y="259.286"/>
			<point x="220.143" y="545" type="curve" smooth="yes"/>
			<point x="220.143" y="846"/>
			<point x="357.143" y="1024"/>
		</contour>
		<contour>
			<point x="1454.14" y="1027.57" type="curve" smooth="yes"/>
			<point x="1666.14" y="1027.57"/>
			<point x="1768.71" y="857.286"/>
			<point x="1767.29" y="611.857" type="curve"/>
			<point x="1078.43" y="611.857" type="line"/>
			<point x="1100.43" y="885.429"/>
			<point x="1244.14" y="1027.57"/>
		</contour>
	</outline>
	<anchor name="bottom" x="992.857" y="0"/>
	<anchor name="top" x="992.857" y="1088.43"/>
</glyph>
<glyph name="Uogonek" format="2">
	<unicode hex="0172"/>
	<advance width="1471"/>
	<outline>
		<component base="U"/>
		<contour>
			<point x="908.714" y="-240" type="curve" smooth="yes"/>
			<point x="908.714" y="-98.1429"/>
			<point x="1017.57" y="10.4286"/>
			<point x="1098.86" y="94.5714" type="curve"/>
			<point x="1043.71" y="104.714" type="line"/>
			<point x="913.143" y="-6.28571"/>
			<point x="827.857" y="-121.857"/>
			<point x="827.857" y="-255.714" type="curve" smooth="yes"/>
			<point x="827.857" y="-392.714"/>
			<point x="906.857" y="-450.857"/>
			<point x="1009.57" y="-450.857" type="curve" smooth="yes"/>
			<point x="1057" y="-450.857"/>
			<point x="1096.57" y="-442.143"/>
			<point x="1122.86" y="-433.286" type="curve"/>
			<point x="1122.86" y="-359.714" type="line"/>
			<point x="1099" y="-368.286"/>
			<point x="1059.43" y="-374.857"/>
			<point x="1021" y="-374.857" type="curve" smooth="yes"/>
			<point x="946.571" y="-374.857"/>
			<point x="908.714" y="-335.429"/>
		</contour>
	</outline>
	<anchor name="bottom" x="735.143" y="-450.857"/>
	<anchor name="top" x="735.714" y="1462"/>
</glyph>
<glyph name="longs" format="2">
	<unicode hex="017F"/>
	<advance width="634"/>
	<outline>
		<contour>
			<point x="512.429" y="1483.14" type="curve" smooth="yes"/>
			<point x="571.714" y="1483.14"/>
			<point x="608.143" y="1474.57"/>
			<point x="652.143" y="1460.43" type="curve"/>
			<point x="668" y="1543" type="line"/>
			<point x="617.857" y="1558.29"/>
			<point x="566" y="1567"/>
			<point x="500.429" y="1567" type="curve" smooth="yes"/>
			<point x="291.857" y="1567"/>
			<point x="178.714" y="1432.14"/>
			<point x="178.714" y="1190.43" type="curve" smooth="yes"/>
			<point x="178.714" y="0" type="line"/>
			<point x="280.857" y="0" type="line"/>
			<point x="280.857" y="1184.14" type="line" smooth="yes"/>
			<point x="280.857" y="1379.29"/>
			<point x="354.143" y="1483.14"/>
		</contour>
	</outline>
	<anchor name="bottom" x="317.143" y="0"/>
	<anchor name="top" x="431.286" y="1567"/>
</glyph>
<glyph name="uni0184" format="2">
	<unicode hex="0184"/>
	<advance width="1218"/>
	<outline>
		<contour>
			<point x="658.714" y="-4.42857" type="curve" smooth="yes"/>
			<point x="937.286" y="-4.42857"/>
			<point x="1089.29" y="163.714"/>
			<point x="1089.29" y="422.143" type="curve" smooth="yes"/>
			<point x="1089.29" y="712.714"/>
			<point x="903.571" y="824"/>
			<point x="588.571" y="824" type="curve" smooth="yes"/>
			<point x="306.429" y="824" type="line"/>
			<point x="306.429" y="1462" type="line"/>
			<point x="203.714" y="1462" type="line"/>
			<point x="203.714" y="479.429" type="line" smooth="yes"/>
			<point x="203.714" y="156.857"/>
			<point x="355" y="-4.42857"/>
		</contour>
		<contour>
			<point x="658.429" y="86.1429" type="curve" smooth="yes"/>
			<point x="421.714" y="86.1429"/>
			<point x="306.429" y="216.857"/>
			<point x="306.429" y="496.429" type="curve" smooth="yes"/>
			<point x="306.429" y="733.429" type="line"/>
			<point x="572.143" y="733.429" type="line" smooth="yes"/>
			<point x="833" y="733.429"/>
			<point x="983.429" y="665.714"/>
			<point x="983.429" y="422.143" type="curve" smooth="yes"/>
			<point x="983.429" y="209.714"/>
			<point x="860.571" y="86.1429"/>
		</contour>
	</outline>
	<anchor name="bottom" x="609.857" y="0"/>
	<anchor name="top" x="609.857" y="1462"/>
</glyph>
<glyph name="uni018C" format="2">
	<unicode hex="018C"/>
	<advance width="1214"/>
	<outline>
		<contour>
			<point x="566.143" y="-20" type="curve" smooth="yes"/>
			<point x="773.857" y="-20"/>
			<point x="884.143" y="88.7143"/>
			<point x="933.143" y="217.286" type="curve"/>
			<point x="939.286" y="217.286" type="line"/>
			<point x="953.429" y="0" type="line"/>
			<point x="1036.29" y="0" type="line"/>
			<point x="1036.29" y="1556" type="line"/>
			<point x="237.429" y="1556" type="line"/>
			<point x="237.429" y="1470.29" type="line"/>
			<point x="933.143" y="1470.29" type="line"/>
			<point x="933.143" y="1122.29" type="line" smooth="yes"/>
			<point x="933.143" y="1035.43"/>
			<point x="937.571" y="939.143"/>
			<point x="941.571" y="865.571" type="curve"/>
			<point x="935.571" y="865.571" type="line"/>
			<point x="890.286" y="998.286"/>
			<point x="773.571" y="1104.86"/>
			<point x="581.714" y="1104.86" type="curve" smooth="yes"/>
			<point x="284.857" y="1104.86"/>
			<point x="115.143" y="899.143"/>
			<point x="115.143" y="527" type="curve" smooth="yes"/>
			<point x="115.143" y="171.714"/>
			<point x="266.286" y="-20"/>
		</contour>
		<contour>
			<point x="588.429" y="68.4286" type="curve" smooth="yes"/>
			<point x="339.286" y="68.4286"/>
			<point x="219.571" y="220.429"/>
			<point x="219.571" y="526.143" type="curve" smooth="yes"/>
			<point x="219.571" y="851.571"/>
			<point x="357.286" y="1015.86"/>
			<point x="601.286" y="1015.86" type="curve" smooth="yes"/>
			<point x="830" y="1015.86"/>
			<point x="937.286" y="849.286"/>
			<point x="937.286" y="547" type="curve" smooth="yes"/>
			<point x="937.286" y="536.286" type="line"/>
			<point x="936.429" y="239.143"/>
			<point x="838.857" y="68.4286"/>
		</contour>
	</outline>
	<anchor name="bottom" x="607.714" y="0"/>
	<anchor name="top" x="607.714" y="1556"/>
</glyph>
<glyph name="uni0191" format="2">
	<unicode hex="0191"/>
	<advance width="1261"/>
	<outline>
		<contour>
			<point x="281.714" y="-31" type="curve" smooth="yes"/>
			<point x="483.429" y="-31"/>
			<point x="580.429" y="113.143"/>
			<point x="580.429" y="323.571" type="curve" smooth="yes"/>
			<point x="580.429" y="713.429" type="line"/>
			<point x="1200" y="713.429" type="line"/>
			<point x="1200" y="803.571" type="line"/>
			<point x="580.429" y="803.571" type="line"/>
			<point x="580.429" y="1371.86" type="line"/>
			<point x="1238.43" y="1371.86" type="line"/>
			<point x="1238.43" y="1462" type="line"/>
			<point x="479.429" y="1462" type="line"/>
			<point x="479.429" y="324.429" type="line" smooth="yes"/>
			<point x="479.429" y="158.143"/>
			<point x="411.571" y="50.8571"/>
			<point x="272.429" y="50.8571" type="curve" smooth="yes"/>
			<point x="155.143" y="50.8571"/>
			<point x="78.4286" y="123"/>
			<point x="78.4286" y="242" type="curve" smooth="yes"/>
			<point x="78.4286" y="301.286"/>
			<point x="89.8571" y="337.429"/>
			<point x="99.5714" y="362.429" type="curve"/>
			<point x="12.7143" y="391.857" type="line"/>
			<point x="-0.857143" y="354"/>
			<point x="-13.8571" y="305.286"/>
			<point x="-13.8571" y="244.571" type="curve" smooth="yes"/>
			<point x="-13.8571" y="75.8571"/>
			<point x="99.8571" y="-31"/>
		</contour>
	</outline>
	<anchor name="bottom" x="279.429" y="-8.57143"/>
	<anchor name="top" x="859.714" y="1462"/>
	<anchor name="topright" x="1271" y="1462"/>
</glyph>
<glyph name="uni0193" format="2">
	<unicode hex="0193"/>
	<advance width="1476"/>
	<outline>
		<contour>
			<point x="1411.43" y="1765.86" type="curve" smooth="yes"/>
			<point x="1294.29" y="1765.86"/>
			<point x="1208" y="1693.43"/>
			<point x="1208" y="1546.86" type="curve" smooth="yes"/>
			<point x="1208" y="1427.57" type="line"/>
			<point x="1103.57" y="1468.14"/>
			<point x="993.143" y="1486.43"/>
			<point x="870.714" y="1486.43" type="curve" smooth="yes"/>
			<point x="405.571" y="1486.43"/>
			<point x="127" y="1166.29"/>
			<point x="127" y="728.143" type="curve" smooth="yes"/>
			<point x="127" y="246.286"/>
			<point x="377.429" y="-20"/>
			<point x="843.143" y="-20" type="curve" smooth="yes"/>
			<point x="1013.86" y="-20"/>
			<point x="1175.29" y="10.2857"/>
			<point x="1310.43" y="72.1429" type="curve"/>
			<point x="1310.43" y="737.143" type="line"/>
			<point x="747.571" y="737.143" type="line"/>
			<point x="747.571" y="646.286" type="line"/>
			<point x="1208" y="646.286" type="line"/>
			<point x="1208" y="132.714" type="line"/>
			<point x="1112.14" y="94.4286"/>
			<point x="993.714" y="71.2857"/>
			<point x="849" y="71.2857" type="curve" smooth="yes"/>
			<point x="469.143" y="71.2857"/>
			<point x="233.143" y="272"/>
			<point x="233.143" y="728.429" type="curve" smooth="yes"/>
			<point x="233.143" y="1113"/>
			<point x="474.857" y="1395"/>
			<point x="869" y="1395" type="curve" smooth="yes"/>
			<point x="998.286" y="1395"/>
			<point x="1126.86" y="1370"/>
			<point x="1257.43" y="1307" type="curve"/>
			<point x="1297" y="1392.29" type="line"/>
			<point x="1297" y="1528.71" type="line" smooth="yes"/>
			<point x="1297" y="1636.43"/>
			<point x="1342" y="1679"/>
			<point x="1420.71" y="1679" type="curve" smooth="yes"/>
			<point x="1469.43" y="1679"/>
			<point x="1509" y="1667"/>
			<point x="1532.29" y="1657.29" type="curve"/>
			<point x="1532.29" y="1745.71" type="line"/>
			<point x="1511" y="1754.29"/>
			<point x="1468.86" y="1765.86"/>
		</contour>
	</outline>
	<anchor name="bottom" x="743.429" y="0"/>
	<anchor name="top" x="755.143" y="1505.86"/>
</glyph>
<glyph name="uni0194" format="2">
	<unicode hex="0194"/>
	<advance width="1282"/>
	<outline>
		<contour>
			<point x="598.286" y="-492" type="curve" smooth="yes"/>
			<point x="743" y="-492"/>
			<point x="824" y="-389.714"/>
			<point x="824" y="-245" type="curve" smooth="yes"/>
			<point x="824" y="-81.8571"/>
			<point x="749.143" y="58"/>
			<point x="658.857" y="235" type="curve"/>
			<point x="1208.71" y="1462" type="line"/>
			<point x="1095.29" y="1462" type="line"/>
			<point x="710.857" y="585" type="line" smooth="yes"/>
			<point x="660.429" y="469.857"/>
			<point x="624.143" y="386"/>
			<point x="603.714" y="326.571" type="curve"/>
			<point x="581.429" y="385.714"/>
			<point x="541.857" y="474.714"/>
			<point x="493.429" y="583.857" type="curve" smooth="yes"/>
			<point x="107.429" y="1462" type="line"/>
			<point x="-5.14286" y="1462" type="line"/>
			<point x="547.286" y="234.143" type="line"/>
			<point x="454" y="56.5714"/>
			<point x="376" y="-96.5714"/>
			<point x="376" y="-244.714" type="curve" smooth="yes"/>
			<point x="376" y="-392.857"/>
			<point x="457" y="-492"/>
		</contour>
		<contour>
			<point x="602" y="-408.143" type="curve" smooth="yes"/>
			<point x="519.571" y="-408.143"/>
			<point x="465.286" y="-351.429"/>
			<point x="465.286" y="-239" type="curve" smooth="yes"/>
			<point x="465.286" y="-115.857"/>
			<point x="533.286" y="16.5714"/>
			<point x="603.714" y="156" type="curve"/>
			<point x="671" y="15.7143"/>
			<point x="734.714" y="-110"/>
			<point x="734.714" y="-238.714" type="curve" smooth="yes"/>
			<point x="734.714" y="-348.286"/>
			<point x="686.143" y="-408.143"/>
		</contour>
	</outline>
	<anchor name="bottom" x="640.857" y="-492"/>
	<anchor name="top" x="640.857" y="1462"/>
</glyph>
<glyph name="uni0197" format="2">
	<unicode hex="0197"/>
	<advance width="622"/>
	<outline>
		<contour>
			<point x="510.143" y="1462" type="line"/>
			<point x="113.857" y="1462" type="line"/>
			<point x="113.857" y="1394.71" type="line"/>
			<point x="260" y="1372" type="line"/>
			<point x="260" y="809.571" type="line"/>
			<point x="70.1429" y="809.571" type="line"/>
			<point x="70.1429" y="717.571" type="line"/>
			<point x="260" y="717.571" type="line"/>
			<point x="260" y="88.2857" type="line"/>
			<point x="113.857" y="67.2857" type="line"/>
			<point x="113.857" y="0" type="line"/>
			<point x="510.143" y="0" type="line"/>
			<point x="510.143" y="67.2857" type="line"/>
			<point x="363" y="88.2857" type="line"/>
			<point x="363" y="717.571" type="line"/>
			<point x="552.143" y="717.571" type="line"/>
			<point x="552.143" y="809.571" type="line"/>
			<point x="363" y="809.571" type="line"/>
			<point x="363" y="1372" type="line"/>
			<point x="510.143" y="1394.71" type="line"/>
		</contour>
	</outline>
	<anchor name="bottom" x="312" y="0"/>
	<anchor name="top" x="312" y="1462"/>
</glyph>
<glyph name="uni019B" format="2">
	<unicode hex="019B"/>
	<advance width="1037"/>
	<outline>
		<contour>
			<point x="-10.2857" y="0" type="line"/>
			<point x="100" y="0" type="line"/>
			<point x="447.143" y="825.857" type="line" smooth="yes"/>
			<point x="466.857" y="872.571"/>
			<point x="486.429" y="924.429"/>
			<point x="504.429" y="975.857" type="curve"/>
			<point x="509" y="975.857" type="line"/>
			<point x="523.143" y="925.429"/>
			<point x="539.143" y="879.714"/>
			<point x="563" y="811.571" type="curve" smooth="yes"/>
			<point x="794.857" y="135.429" type="line" smooth="yes"/>
			<point x="828.286" y="36.8571"/>
			<point x="874.857" y="-15.7143"/>
			<point x="970.143" y="-15.7143" type="curve" smooth="yes"/>
			<point x="1007.29" y="-15.7143"/>
			<point x="1029.57" y="-9.71429"/>
			<point x="1046.43" y="-2.57143" type="curve"/>
			<point x="1046.43" y="79.2857" type="line"/>
			<point x="1032.71" y="75"/>
			<point x="1015.14" y="71"/>
			<point x="991.143" y="71" type="curve" smooth="yes"/>
			<point x="947.143" y="71"/>
			<point x="915.286" y="91"/>
			<point x="885.143" y="175.714" type="curve"/>
			<point x="517.714" y="1244" type="line"/>
			<point x="753.286" y="1312.43" type="line"/>
			<point x="731.143" y="1385.14" type="line"/>
			<point x="490.143" y="1315.43" type="line"/>
			<point x="418.143" y="1510.29"/>
			<point x="364.857" y="1569"/>
			<point x="218.857" y="1569" type="curve" smooth="yes"/>
			<point x="171.429" y="1569"/>
			<point x="132" y="1562.71"/>
			<point x="103.571" y="1553.71" type="curve"/>
			<point x="103.571" y="1468.86" type="line"/>
			<point x="131.143" y="1477.14"/>
			<point x="161.286" y="1485.71"/>
			<point x="198.286" y="1485.71" type="curve" smooth="yes"/>
			<point x="298.714" y="1485.71"/>
			<point x="340.571" y="1437.71"/>
			<point x="392.714" y="1285" type="curve"/>
			<point x="165" y="1219.71" type="line"/>
			<point x="186.429" y="1147.71" type="line"/>
			<point x="422.143" y="1216.43" type="line"/>
			<point x="463" y="1093.86" type="line"/>
		</contour>
	</outline>
	<anchor name="bottom" x="519.143" y="0"/>
	<anchor name="top" x="519.143" y="1569"/>
</glyph>
<glyph name="uni019C" format="2">
	<unicode hex="019C"/>
	<advance width="1996"/>
	<outline>
		<contour>
			<point x="564.571" y="-20" type="curve" smooth="yes"/>
			<point x="783.571" y="-20"/>
			<point x="903.429" y="76.4286"/>
			<point x="959.286" y="218.143" type="curve"/>
			<point x="965.429" y="218.143" type="line"/>
			<point x="1012.86" y="73.8571"/>
			<point x="1112" y="-20"/>
			<point x="1322.14" y="-20" type="curve" smooth="yes"/>
			<point x="1556.57" y="-20"/>
			<point x="1656.86" y="94.1429"/>
			<point x="1704.86" y="204.286" type="curve"/>
			<point x="1711.43" y="204.286" type="line"/>
			<point x="1726.71" y="0" type="line"/>
			<point x="1806.86" y="0" type="line"/>
			<point x="1806.86" y="1462" type="line"/>
			<point x="1702.71" y="1462" type="line"/>
			<point x="1702.71" y="501.857" type="line" smooth="yes"/>
			<point x="1702.71" y="184.286"/>
			<point x="1562.86" y="71.2857"/>
			<point x="1341.29" y="71.2857" type="curve" smooth="yes"/>
			<point x="1148.71" y="71.2857"/>
			<point x="1044.29" y="161.571"/>
			<point x="1044.29" y="420.857" type="curve" smooth="yes"/>
			<point x="1044.29" y="1462" type="line"/>
			<point x="940.571" y="1462" type="line"/>
			<point x="940.571" y="497.857" type="line" smooth="yes"/>
			<point x="940.571" y="182.571"/>
			<point x="809.571" y="71.2857"/>
			<point x="579.143" y="71.2857" type="curve" smooth="yes"/>
			<point x="387.143" y="71.2857"/>
			<point x="281.571" y="161.857"/>
			<point x="281.571" y="420.857" type="curve" smooth="yes"/>
			<point x="281.571" y="1462" type="line"/>
			<point x="178.571" y="1462" type="line"/>
			<point x="178.571" y="400.429" type="line" smooth="yes"/>
			<point x="178.571" y="94"/>
			<point x="319.429" y="-20"/>
		</contour>
	</outline>
	<anchor name="bottom" x="999" y="0"/>
	<anchor name="top" x="999" y="1462"/>
</glyph>
<glyph name="uni01A2" format="2">
	<unicode hex="01A2"/>
	<advance width="2195"/>
	<outline>
		<contour>
			<point x="1392.14" y="733" type="curve" smooth="yes"/>
			<point x="1392.14" y="926.857"/>
			<point x="1352.71" y="1087.29"/>
			<point x="1281.43" y="1208" type="curve"/>
			<point x="1338.71" y="1321.43"/>
			<point x="1445.71" y="1390.43"/>
			<point x="1591.43" y="1390.43" type="curve" smooth="yes"/>
			<point x="1784.43" y="1390.43"/>
			<point x="1901.43" y="1267"/>
			<point x="1901.43" y="1025.71" type="curve" smooth="yes"/>
			<point x="1901.43" y="0" type="line"/>
			<point x="2004.57" y="0" type="line"/>
			<point x="2004.57" y="1041.57" type="line" smooth="yes"/>
			<point x="2004.57" y="1332.14"/>
			<point x="1847" y="1481.57"/>
			<point x="1611.57" y="1481.57" type="curve" smooth="yes"/>
			<point x="1425.57" y="1481.57"/>
			<point x="1304.14" y="1391.86"/>
			<point x="1234.71" y="1279.29" type="curve"/>
			<point x="1128.57" y="1412.43"/>
			<point x="972" y="1485"/>
			<point x="769.571" y="1485" type="curve" smooth="yes"/>
			<point x="356.857" y="1485"/>
			<point x="127" y="1178"/>
			<point x="127" y="735" type="curve" smooth="yes"/>
			<point x="127" y="289.429"/>
			<point x="341.429" y="-20"/>
			<point x="759" y="-20" type="curve" smooth="yes"/>
			<point x="1181.29" y="-20"/>
			<point x="1392.14" y="289.429"/>
		</contour>
		<contour>
			<point x="234.429" y="734.714" type="curve" smooth="yes"/>
			<point x="234.429" y="1119.71"/>
			<point x="414.286" y="1394.14"/>
			<point x="769.571" y="1394.14" type="curve" smooth="yes"/>
			<point x="1098.29" y="1394.14"/>
			<point x="1284.86" y="1151"/>
			<point x="1284.86" y="733" type="curve" smooth="yes"/>
			<point x="1284.86" y="340.143"/>
			<point x="1116.29" y="71.2857"/>
			<point x="760.714" y="71.2857" type="curve" smooth="yes"/>
			<point x="407.714" y="71.2857"/>
			<point x="234.429" y="345.857"/>
		</contour>
	</outline>
	<anchor name="bottom" x="1098.29" y="0"/>
	<anchor name="top" x="1098.29" y="1462"/>
</glyph>
<glyph name="uni01A3" format="2">
	<unicode hex="01A3"/>
	<advance width="1708"/>
	<outline>
		<contour>
			<point x="1069.86" y="545" type="curve" smooth="yes"/>
			<point x="1069.86" y="692.429"/>
			<point x="1036.71" y="825.857"/>
			<point x="969.857" y="922.286" type="curve"/>
			<point x="1025" y="981.571"/>
			<point x="1095.29" y="1020.86"/>
			<point x="1202.29" y="1020.86" type="curve" smooth="yes"/>
			<point x="1358.71" y="1020.86"/>
			<point x="1439.14" y="922.857"/>
			<point x="1439.14" y="718.714" type="curve" smooth="yes"/>
			<point x="1439.14" y="-492" type="line"/>
			<point x="1541.29" y="-492" type="line"/>
			<point x="1541.29" y="739.286" type="line" smooth="yes"/>
			<point x="1541.29" y="982.857"/>
			<point x="1425.86" y="1109.29"/>
			<point x="1219.86" y="1109.29" type="curve" smooth="yes"/>
			<point x="1080.86" y="1109.29"/>
			<point x="988" y="1051.71"/>
			<point x="925.429" y="984.143" type="curve"/>
			<point x="848.571" y="1064.86"/>
			<point x="742.571" y="1109.29"/>
			<point x="601.571" y="1109.29" type="curve" smooth="yes"/>
			<point x="296.714" y="1109.29"/>
			<point x="115.143" y="894.857"/>
			<point x="115.143" y="545" type="curve" smooth="yes"/>
			<point x="115.143" y="211.429"/>
			<point x="279" y="-20"/>
			<point x="590.286" y="-20" type="curve" smooth="yes"/>
			<point x="912" y="-20"/>
			<point x="1069.86" y="216.571"/>
		</contour>
		<contour>
			<point x="220.143" y="545" type="curve" smooth="yes"/>
			<point x="220.143" y="844.857"/>
			<point x="354.857" y="1020.57"/>
			<point x="600.857" y="1020.57" type="curve" smooth="yes"/>
			<point x="862.714" y="1020.57"/>
			<point x="964" y="814.571"/>
			<point x="964" y="545" type="curve" smooth="yes"/>
			<point x="964" y="262.429"/>
			<point x="849.571" y="68.7143"/>
			<point x="591" y="68.7143" type="curve" smooth="yes"/>
			<point x="339.429" y="68.7143"/>
			<point x="220.143" y="259.286"/>
		</contour>
	</outline>
	<anchor name="bottom" x="869" y="-492"/>
	<anchor name="top" x="869" y="1088.43"/>
</glyph>
<glyph name="uni01A5" format="2">
	<unicode hex="01A5"/>
	<advance width="1214"/>
	<outline>
		<contour>
			<point x="461.286" y="1567" type="curve" smooth="yes"/>
			<point x="284.143" y="1567"/>
			<point x="182.571" y="1460.86"/>
			<point x="182.571" y="1266.29" type="curve" smooth="yes"/>
			<point x="182.571" y="-477.429" type="line"/>
			<point x="285.571" y="-477.429" type="line"/>
			<point x="285.571" y="-31" type="line" smooth="yes"/>
			<point x="285.571" y="51"/>
			<point x="285.286" y="135.714"/>
			<point x="280.714" y="217.429" type="curve"/>
			<point x="286.143" y="217.429" type="line"/>
			<point x="332" y="86.4286"/>
			<point x="447.429" y="-20"/>
			<point x="654.571" y="-20" type="curve" smooth="yes"/>
			<point x="933.857" y="-20"/>
			<point x="1103.57" y="183.143"/>
			<point x="1103.57" y="553.571" type="curve" smooth="yes"/>
			<point x="1103.57" y="916.857"/>
			<point x="950.429" y="1109.29"/>
			<point x="671.429" y="1109.29" type="curve" smooth="yes"/>
			<point x="457.143" y="1109.29"/>
			<point x="332" y="989.286"/>
			<point x="285.571" y="854.429" type="curve"/>
			<point x="280.429" y="854.429" type="line"/>
			<point x="283" y="923.286"/>
			<point x="285.571" y="1023.71"/>
			<point x="285.571" y="1087.29" type="curve" smooth="yes"/>
			<point x="285.571" y="1259.71" type="line" smooth="yes"/>
			<point x="285.571" y="1411.86"/>
			<point x="347.429" y="1478.43"/>
			<point x="471.286" y="1478.43" type="curve" smooth="yes"/>
			<point x="525.714" y="1478.43"/>
			<point x="569.286" y="1468.43"/>
			<point x="596.429" y="1459.29" type="curve"/>
			<point x="596.429" y="1547.43" type="line"/>
			<point x="568.857" y="1556.86"/>
			<point x="521.857" y="1567"/>
		</contour>
		<contour>
			<point x="651.143" y="1020.86" type="curve" smooth="yes"/>
			<point x="880.143" y="1020.86"/>
			<point x="998.571" y="869.429"/>
			<point x="998.571" y="554.857" type="curve" smooth="yes"/>
			<point x="998.571" y="231.857"/>
			<point x="863.286" y="69.2857"/>
			<point x="635" y="69.2857" type="curve" smooth="yes"/>
			<point x="417.429" y="69.2857"/>
			<point x="287.286" y="217.857"/>
			<point x="287.286" y="542.143" type="curve" smooth="yes"/>
			<point x="287.286" y="552" type="line"/>
			<point x="288.143" y="848.286"/>
			<point x="410.571" y="1020.86"/>
		</contour>
	</outline>
	<anchor name="bottom" x="607.714" y="-477.429"/>
	<anchor name="top" x="607.714" y="1567"/>
</glyph>
<glyph name="uni01A8" format="2">
	<unicode hex="01A8"/>
	<advance width="954"/>
	<outline>
		<contour>
			<point x="466.714" y="1109.29" type="curve" smooth="yes"/>
			<point x="335.286" y="1109.29"/>
			<point x="210.286" y="1082.29"/>
			<point x="115.429" y="1042.43" type="curve"/>
			<point x="145.857" y="958.571" type="line"/>
			<point x="228.143" y="997.857"/>
			<point x="350.714" y="1024.57"/>
			<point x="457.429" y="1024.57" type="curve" smooth="yes"/>
			<point x="632.714" y="1024.57"/>
			<point x="735.143" y="965.714"/>
			<point x="735.143" y="837.571" type="curve" smooth="yes"/>
			<point x="735.143" y="700.143"/>
			<point x="603.286" y="661.429"/>
			<point x="432.143" y="603.286" type="curve" smooth="yes"/>
			<point x="241.429" y="537.571"/>
			<point x="72.8571" y="470.571"/>
			<point x="72.8571" y="270" type="curve" smooth="yes"/>
			<point x="72.8571" y="81.1429"/>
			<point x="197.429" y="-20"/>
			<point x="475.286" y="-20" type="curve" smooth="yes"/>
			<point x="623.857" y="-20"/>
			<point x="764.429" y="13.4286"/>
			<point x="849.429" y="53.1429" type="curve"/>
			<point x="849.429" y="140" type="line"/>
			<point x="744.143" y="92.7143"/>
			<point x="606.571" y="64"/>
			<point x="484" y="64" type="curve" smooth="yes"/>
			<point x="260.857" y="64"/>
			<point x="175.857" y="136.286"/>
			<point x="175.857" y="271.571" type="curve" smooth="yes"/>
			<point x="175.857" y="408"/>
			<point x="295.857" y="461"/>
			<point x="494" y="526.429" type="curve" smooth="yes"/>
			<point x="687.857" y="589.857"/>
			<point x="838.714" y="651.857"/>
			<point x="838.714" y="841.857" type="curve" smooth="yes"/>
			<point x="838.714" y="1022.71"/>
			<point x="698.571" y="1109.29"/>
		</contour>
	</outline>
	<anchor name="bottom" x="476.857" y="0"/>
	<anchor name="top" x="476.857" y="1088.43"/>
</glyph>
<glyph name="uni01AB" format="2">
	<unicode hex="01AB"/>
	<advance width="700"/>
	<outline>
		<contour>
			<point x="412.286" y="-492" type="curve" smooth="yes"/>
			<point x="551.571" y="-492"/>
			<point x="640.714" y="-406.143"/>
			<point x="640.714" y="-244.571" type="curve" smooth="yes"/>
			<point x="640.714" y="96.8571" type="line"/>
			<point x="592" y="79.5714"/>
			<point x="540.571" y="68.4286"/>
			<point x="472.714" y="68.4286" type="curve" smooth="yes"/>
			<point x="334.429" y="68.4286"/>
			<point x="290.286" y="152.429"/>
			<point x="290.286" y="309.429" type="curve" smooth="yes"/>
			<point x="290.286" y="1002.57" type="line"/>
			<point x="636.429" y="1002.57" type="line"/>
			<point x="636.429" y="1088.43" type="line"/>
			<point x="290.286" y="1088.43" type="line"/>
			<point x="290.286" y="1351.14" type="line"/>
			<point x="216.571" y="1351.14" type="line"/>
			<point x="190.143" y="1087.71" type="line"/>
			<point x="25.2857" y="1064.14" type="line"/>
			<point x="25.2857" y="1002.57" type="line"/>
			<point x="187.286" y="1002.57" type="line"/>
			<point x="187.286" y="299.286" type="line" smooth="yes"/>
			<point x="187.286" y="89.8571"/>
			<point x="263.857" y="-20"/>
			<point x="451.286" y="-20" type="curve" smooth="yes"/>
			<point x="491.571" y="-20"/>
			<point x="522.429" y="-16.5714"/>
			<point x="550.286" y="-9.71429" type="curve"/>
			<point x="550.286" y="-240.143" type="line" smooth="yes"/>
			<point x="550.286" y="-357.571"/>
			<point x="493.571" y="-409"/>
			<point x="402.571" y="-409" type="curve" smooth="yes"/>
			<point x="355.857" y="-409"/>
			<point x="316" y="-399.286"/>
			<point x="284.286" y="-384.429" type="curve"/>
			<point x="284.286" y="-468.143" type="line"/>
			<point x="314.143" y="-481"/>
			<point x="353.714" y="-492"/>
		</contour>
	</outline>
	<anchor name="bottom" x="351.429" y="-492"/>
	<anchor name="top" x="351.429" y="1351.14"/>
</glyph>
<glyph name="uhorn" format="2">
	<unicode hex="01B0"/>
	<advance width="1243"/>
	<outline>
		<contour>
			<point x="1265.43" y="1256" type="line"/>
			<point x="1173" y="1256" type="line"/>
			<point x="1173" y="1075.86"/>
			<point x="1109.86" y="992.571"/>
			<point x="1021" y="958.714" type="curve"/>
			<point x="1021" y="1088.43" type="line"/>
			<point x="919.429" y="1088.43" type="line"/>
			<point x="919.429" y="487.857" type="line" smooth="yes"/>
			<point x="919.429" y="202.857"/>
			<point x="777" y="67.8571"/>
			<point x="554.429" y="67.8571" type="curve" smooth="yes"/>
			<point x="366.714" y="67.8571"/>
			<point x="264.286" y="171.571"/>
			<point x="264.286" y="400" type="curve" smooth="yes"/>
			<point x="264.286" y="1088.43" type="line"/>
			<point x="163" y="1088.43" type="line"/>
			<point x="163" y="376.143" type="line" smooth="yes"/>
			<point x="163" y="115.143"/>
			<point x="296.429" y="-20"/>
			<point x="535.429" y="-20" type="curve" smooth="yes"/>
			<point x="751.143" y="-20"/>
			<point x="870.429" y="91.2857"/>
			<point x="920.857" y="214.714" type="curve"/>
			<point x="928.143" y="214.714" type="line"/>
			<point x="942" y="0" type="line"/>
			<point x="1021" y="0" type="line"/>
			<point x="1021" y="882.857" type="line"/>
			<point x="1194.29" y="926.857"/>
			<point x="1267.71" y="1044.86"/>
			<point x="1276.14" y="1244.29" type="curve"/>
		</contour>
	</outline>
	<anchor name="bottom" x="599.429" y="0"/>
	<anchor name="top" x="601.429" y="1088.43"/>
</glyph>
<glyph name="uni01B1" format="2">
	<unicode hex="01B1"/>
	<advance width="1585"/>
	<outline>
		<contour>
			<point x="795.286" y="69.5714" type="curve" smooth="yes"/>
			<point x="468.143" y="69.5714"/>
			<point x="238.286" y="286.857"/>
			<point x="238.286" y="672.286" type="curve" smooth="yes"/>
			<point x="238.286" y="1019.43"/>
			<point x="381.286" y="1221.71"/>
			<point x="652.429" y="1368.86" type="curve"/>
			<point x="652.429" y="1462" type="line"/>
			<point x="79.8571" y="1462" type="line"/>
			<point x="79.8571" y="1370.57" type="line"/>
			<point x="528.571" y="1370.57" type="line"/>
			<point x="293.571" y="1237"/>
			<point x="131.143" y="1023.71"/>
			<point x="131.143" y="659.286" type="curve" smooth="yes"/>
			<point x="131.143" y="229.286"/>
			<point x="399.286" y="-22.5714"/>
			<point x="795.286" y="-22.5714" type="curve" smooth="yes"/>
			<point x="1186.71" y="-22.5714"/>
			<point x="1455.43" y="254.429"/>
			<point x="1455.43" y="658.714" type="curve" smooth="yes"/>
			<point x="1455.43" y="1020.71"/>
			<point x="1285.86" y="1232.57"/>
			<point x="1057.57" y="1370.57" type="curve"/>
			<point x="1506.71" y="1370.57" type="line"/>
			<point x="1506.71" y="1462" type="line"/>
			<point x="936.714" y="1462" type="line"/>
			<point x="936.714" y="1368.86" type="line"/>
			<point x="1184.14" y="1220"/>
			<point x="1349.14" y="1030.57"/>
			<point x="1349.14" y="672.857" type="curve" smooth="yes"/>
			<point x="1349.14" y="301.143"/>
			<point x="1118.43" y="69.5714"/>
		</contour>
	</outline>
	<anchor name="bottom" x="793.857" y="0"/>
	<anchor name="top" x="793.857" y="1462"/>
</glyph>
<glyph name="uni01B3" format="2">
	<unicode hex="01B3"/>
	<advance width="1188"/>
	<outline>
		<contour>
			<point x="492.143" y="0" type="line"/>
			<point x="594.429" y="0" type="line"/>
			<point x="594.429" y="564.143" type="line"/>
			<point x="935.857" y="1241.57" type="line" smooth="yes"/>
			<point x="987.714" y="1345"/>
			<point x="1018" y="1393.86"/>
			<point x="1100" y="1393.86" type="curve" smooth="yes"/>
			<point x="1132.57" y="1393.86"/>
			<point x="1158.71" y="1384.71"/>
			<point x="1176.29" y="1376.43" type="curve"/>
			<point x="1176.29" y="1464" type="line"/>
			<point x="1155.86" y="1474.57"/>
			<point x="1120.71" y="1484.71"/>
			<point x="1079" y="1484.71" type="curve" smooth="yes"/>
			<point x="958.714" y="1484.71"/>
			<point x="908.714" y="1406.86"/>
			<point x="861.571" y="1310" type="curve" smooth="yes"/>
			<point x="541.143" y="657.714" type="line"/>
			<point x="113.714" y="1462" type="line"/>
			<point x="0" y="1462" type="line"/>
			<point x="492.143" y="555.571" type="line"/>
		</contour>
	</outline>
	<anchor name="bottom" x="584.286" y="0"/>
	<anchor name="top" x="584.286" y="1462"/>
</glyph>
<glyph name="uni01B5" format="2">
	<unicode hex="01B5"/>
	<advance width="1185"/>
	<outline>
		<contour>
			<point x="161.286" y="797.286" type="line"/>
			<point x="161.286" y="706.429" type="line"/>
			<point x="501.714" y="706.429" type="line"/>
			<point x="68.4286" y="68.2857" type="line"/>
			<point x="68.4286" y="0" type="line"/>
			<point x="1109.57" y="0" type="line"/>
			<point x="1109.57" y="90.5714" type="line"/>
			<point x="201.143" y="90.5714" type="line"/>
			<point x="617.429" y="706.429" type="line"/>
			<point x="1007.14" y="706.429" type="line"/>
			<point x="1007.14" y="797.286" type="line"/>
			<point x="680.714" y="797.286" type="line"/>
			<point x="1085.57" y="1393.71" type="line"/>
			<point x="1085.57" y="1462" type="line"/>
			<point x="118.429" y="1462" type="line"/>
			<point x="118.429" y="1371.57" type="line"/>
			<point x="953.143" y="1371.57" type="line"/>
			<point x="564.714" y="797.286" type="line"/>
		</contour>
	</outline>
	<anchor name="bottom" x="592.286" y="0"/>
	<anchor name="top" x="592.286" y="1462"/>
</glyph>
<glyph name="uni01B9" format="2">
	<unicode hex="01B9"/>
	<advance width="953"/>
	<outline>
		<contour>
			<point x="537.857" y="-492" type="curve"/>
			<point x="684.143" y="-492"/>
			<point x="797.857" y="-466.143"/>
			<point x="900" y="-422.429" type="curve"/>
			<point x="900" y="-326.286" type="line"/>
			<point x="796.429" y="-376.143"/>
			<point x="672.143" y="-402.286"/>
			<point x="546" y="-402.286" type="curve" smooth="yes"/>
			<point x="291.286" y="-402.286"/>
			<point x="159.857" y="-260.571"/>
			<point x="159.857" y="-41.8571" type="curve" smooth="yes"/>
			<point x="159.857" y="202.286"/>
			<point x="313.571" y="334"/>
			<point x="665.429" y="334" type="curve" smooth="yes"/>
			<point x="748.714" y="334" type="line"/>
			<point x="748.714" y="412.286" type="line"/>
			<point x="236.429" y="1002" type="line"/>
			<point x="877.429" y="1002" type="line"/>
			<point x="877.429" y="1088.43" type="line"/>
			<point x="98.1429" y="1088.43" type="line"/>
			<point x="98.1429" y="1016.71" type="line"/>
			<point x="624.714" y="418.714" type="line"/>
			<point x="223.286" y="408.429"/>
			<point x="55.4286" y="227.714"/>
			<point x="55.4286" y="-48.8571" type="curve"/>
			<point x="55.7143" y="-318.857"/>
			<point x="225.143" y="-491.571"/>
		</contour>
	</outline>
	<anchor name="bottom" x="477.857" y="-492"/>
	<anchor name="top" x="477.857" y="1088.43"/>
</glyph>
<glyph name="uni01BA" format="2">
	<unicode hex="01BA"/>
	<advance width="976"/>
	<outline>
		<contour>
			<point x="422.571" y="-492" type="curve" smooth="yes"/>
			<point x="580.857" y="-492"/>
			<point x="712.143" y="-464.429"/>
			<point x="792.714" y="-434.429" type="curve"/>
			<point x="792.714" y="-348.714" type="line"/>
			<point x="687" y="-383.429"/>
			<point x="575.714" y="-406.714"/>
			<point x="430.143" y="-406.714" type="curve" smooth="yes"/>
			<point x="248.714" y="-406.714"/>
			<point x="155.286" y="-349.714"/>
			<point x="155.286" y="-237.571" type="curve" smooth="yes"/>
			<point x="155.286" y="-126.286"/>
			<point x="216.571" y="-65.8571"/>
			<point x="416.714" y="-48.1429" type="curve" smooth="yes"/>
			<point x="696.571" y="-24.2857"/>
			<point x="833" y="60.1429"/>
			<point x="833" y="290.286" type="curve" smooth="yes"/>
			<point x="833" y="559.571"/>
			<point x="597.286" y="600.714"/>
			<point x="368.571" y="598.714" type="curve"/>
			<point x="795.429" y="1020.43" type="line"/>
			<point x="795.429" y="1088.43" type="line"/>
			<point x="108.857" y="1088.43" type="line"/>
			<point x="108.857" y="1005.14" type="line"/>
			<point x="657.857" y="1005.14" type="line"/>
			<point x="252.143" y="596.143" type="line"/>
			<point x="252.143" y="523.429" type="line"/>
			<point x="333.429" y="523.429" type="line" smooth="yes"/>
			<point x="551.143" y="523.429"/>
			<point x="727.714" y="497.143"/>
			<point x="727.714" y="291.714" type="curve" smooth="yes"/>
			<point x="727.714" y="106.571"/>
			<point x="610.571" y="55.7143"/>
			<point x="399.571" y="33.2857" type="curve"/>
			<point x="159.571" y="9.42857"/>
			<point x="57.5714" y="-76.7143"/>
			<point x="57.5714" y="-235.286" type="curve" smooth="yes"/>
			<point x="57.5714" y="-401.857"/>
			<point x="184.857" y="-492"/>
		</contour>
	</outline>
	<anchor name="bottom" x="489" y="-492"/>
	<anchor name="top" x="489" y="1088.43"/>
</glyph>
<glyph name="uni01BC" format="2">
	<unicode hex="01BC"/>
	<advance width="1167"/>
	<outline>
		<contour>
			<point x="536.571" y="-20" type="curve" smooth="yes"/>
			<point x="823.571" y="-20"/>
			<point x="1039.86" y="133.571"/>
			<point x="1039.86" y="456.571" type="curve" smooth="yes"/>
			<point x="1039.86" y="743"/>
			<point x="839.857" y="876.571"/>
			<point x="547.857" y="876.571" type="curve" smooth="yes"/>
			<point x="426.714" y="876.571" type="line"/>
			<point x="426.714" y="1369.14" type="line"/>
			<point x="990.714" y="1369.14" type="line"/>
			<point x="990.714" y="1462" type="line"/>
			<point x="124.429" y="1462" type="line"/>
			<point x="124.429" y="1369.14" type="line"/>
			<point x="330" y="1369.14" type="line"/>
			<point x="330" y="789" type="line"/>
			<point x="511.714" y="789" type="line" smooth="yes"/>
			<point x="770.286" y="789"/>
			<point x="934.857" y="690.571"/>
			<point x="934.857" y="452.143" type="curve" smooth="yes"/>
			<point x="934.857" y="183.429"/>
			<point x="751.286" y="70.1429"/>
			<point x="532.143" y="70.1429" type="curve" smooth="yes"/>
			<point x="368.714" y="70.1429"/>
			<point x="257" y="115.143"/>
			<point x="167.571" y="165.571" type="curve"/>
			<point x="167.571" y="64.7143" type="line"/>
			<point x="233" y="29.8571"/>
			<point x="354.714" y="-20"/>
		</contour>
	</outline>
	<anchor name="bottom" x="584.714" y="0"/>
	<anchor name="top" x="584.714" y="1462"/>
</glyph>
<glyph name="uni01BE" format="2">
	<unicode hex="01BE"/>
	<advance width="922"/>
	<outline>
		<contour>
			<point x="423.857" y="-20" type="curve" smooth="yes"/>
			<point x="718" y="-20"/>
			<point x="835" y="118.286"/>
			<point x="835" y="298.571" type="curve" smooth="yes"/>
			<point x="835" y="493.143"/>
			<point x="679.857" y="547.714"/>
			<point x="536.714" y="597.714" type="curve" smooth="yes"/>
			<point x="447.857" y="628.143"/>
			<point x="402.143" y="662.429"/>
			<point x="402.143" y="819.857" type="curve" smooth="yes"/>
			<point x="402.143" y="1002.57" type="line"/>
			<point x="741.857" y="1002.57" type="line"/>
			<point x="741.857" y="1088.43" type="line"/>
			<point x="402.143" y="1088.43" type="line"/>
			<point x="402.143" y="1351.14" type="line"/>
			<point x="328.429" y="1351.14" type="line"/>
			<point x="302" y="1087.71" type="line"/>
			<point x="130.714" y="1064.14" type="line"/>
			<point x="130.714" y="1002.57" type="line"/>
			<point x="302.857" y="1002.57" type="line"/>
			<point x="302.857" y="806.857" type="line" smooth="yes"/>
			<point x="302.857" y="608"/>
			<point x="368.571" y="564"/>
			<point x="484" y="524" type="curve" smooth="yes"/>
			<point x="604.429" y="482.714"/>
			<point x="732.857" y="451.286"/>
			<point x="732.857" y="290.857" type="curve" smooth="yes"/>
			<point x="732.857" y="161.857"/>
			<point x="659" y="64"/>
			<point x="419.857" y="64" type="curve" smooth="yes"/>
			<point x="292.571" y="64"/>
			<point x="188.571" y="91.4286"/>
			<point x="99.8571" y="130.429" type="curve"/>
			<point x="99.8571" y="35.2857" type="line"/>
			<point x="160" y="8.57143"/>
			<point x="275.714" y="-20"/>
		</contour>
	</outline>
	<anchor name="bottom" x="462.571" y="0"/>
	<anchor name="top" x="462.571" y="1351.14"/>
</glyph>
<glyph name="uni01C0" format="2">
	<unicode hex="01C0"/>
	<advance width="733"/>
	<outline>
		<contour>
			<point x="322.143" y="0" type="line"/>
			<point x="410.571" y="0" type="line"/>
			<point x="410.571" y="1556" type="line"/>
			<point x="322.143" y="1556" type="line"/>
		</contour>
	</outline>
	<anchor name="bottom" x="367" y="0"/>
	<anchor name="top" x="367" y="1556"/>
</glyph>
<glyph name="uni01E4" format="2">
	<unicode hex="01E4"/>
	<advance width="1476"/>
	<outline>
		<contour>
			<point x="846.143" y="-20" type="curve" smooth="yes"/>
			<point x="1016.86" y="-20"/>
			<point x="1178.57" y="11.4286"/>
			<point x="1310.43" y="72.1429" type="curve"/>
			<point x="1310.43" y="332.143" type="line"/>
			<point x="1440" y="332.143" type="line"/>
			<point x="1440" y="409.429" type="line"/>
			<point x="1310.43" y="409.429" type="line"/>
			<point x="1310.43" y="745.714" type="line"/>
			<point x="748.143" y="745.714" type="line"/>
			<point x="748.143" y="668.286" type="line"/>
			<point x="1208" y="668.286" type="line"/>
			<point x="1208" y="409.429" type="line"/>
			<point x="802.143" y="409.429" type="line"/>
			<point x="802.143" y="332.143" type="line"/>
			<point x="1208" y="332.143" type="line"/>
			<point x="1208" y="129.571" type="line"/>
			<point x="1112.14" y="89.8571"/>
			<point x="993.429" y="67"/>
			<point x="851.857" y="67" type="curve" smooth="yes"/>
			<point x="475" y="67"/>
			<point x="233.143" y="254.429"/>
			<point x="233.143" y="725.571" type="curve" smooth="yes"/>
			<point x="233.143" y="1115.86"/>
			<point x="470.143" y="1395"/>
			<point x="866" y="1395" type="curve" smooth="yes"/>
			<point x="995.286" y="1395"/>
			<point x="1127.71" y="1370.57"/>
			<point x="1258.29" y="1307.57" type="curve"/>
			<point x="1296.43" y="1396.14" type="line"/>
			<point x="1168.57" y="1457.43"/>
			<point x="1026.29" y="1486.43"/>
			<point x="870.714" y="1486.43" type="curve" smooth="yes"/>
			<point x="405.571" y="1486.43"/>
			<point x="127" y="1163.43"/>
			<point x="127" y="722.286" type="curve" smooth="yes"/>
			<point x="127" y="240.429"/>
			<point x="383.286" y="-20"/>
		</contour>
	</outline>
	<anchor name="bottom" x="749.286" y="0"/>
	<anchor name="top" x="752.286" y="1462"/>
</glyph>
<glyph name="uni01E5" format="2">
	<unicode hex="01E5"/>
	<advance width="1214"/>
	<outline>
		<contour>
			<point x="582.571" y="1109.29" type="curve" smooth="yes"/>
			<point x="275.143" y="1109.29"/>
			<point x="115.143" y="892.714"/>
			<point x="115.143" y="536.286" type="curve" smooth="yes"/>
			<point x="115.143" y="180.571"/>
			<point x="279.286" y="-4.28571"/>
			<point x="554.143" y="-4.28571" type="curve" smooth="yes"/>
			<point x="745.143" y="-4.28571"/>
			<point x="877" y="78.7143"/>
			<point x="929.714" y="240.571" type="curve"/>
			<point x="934.429" y="240.571" type="line"/>
			<point x="930" y="167.286"/>
			<point x="929.714" y="120"/>
			<point x="929.714" y="63.2857" type="curve" smooth="yes"/>
			<point x="929.714" y="-124.143" type="line"/>
			<point x="557.857" y="-124.143" type="line"/>
			<point x="557.857" y="-195.714" type="line"/>
			<point x="922" y="-195.714" type="line"/>
			<point x="895.857" y="-338.143"/>
			<point x="778.143" y="-409.571"/>
			<point x="559.286" y="-409.571" type="curve" smooth="yes"/>
			<point x="406.571" y="-409.571"/>
			<point x="277.857" y="-373"/>
			<point x="172.714" y="-324.857" type="curve"/>
			<point x="172.714" y="-417.714" type="line"/>
			<point x="277" y="-459.286"/>
			<point x="398.857" y="-492"/>
			<point x="563.429" y="-492" type="curve" smooth="yes"/>
			<point x="848.429" y="-492"/>
			<point x="995.857" y="-386.143"/>
			<point x="1026.43" y="-195.714" type="curve"/>
			<point x="1190" y="-195.714" type="line"/>
			<point x="1190" y="-124.143" type="line"/>
			<point x="1032.86" y="-124.143" type="line"/>
			<point x="1032.86" y="1088.43" type="line"/>
			<point x="946.286" y="1088.43" type="line"/>
			<point x="932.714" y="910.857" type="line"/>
			<point x="928.143" y="910.857" type="line"/>
			<point x="868.143" y="1027.71"/>
			<point x="771.571" y="1109.29"/>
		</contour>
		<contour>
			<point x="601.286" y="1020" type="curve" smooth="yes"/>
			<point x="853.429" y="1020"/>
			<point x="933.857" y="846.571"/>
			<point x="933.857" y="600" type="curve" smooth="yes"/>
			<point x="933.857" y="511.571" type="line" smooth="yes"/>
			<point x="933.857" y="302"/>
			<point x="865.429" y="81.2857"/>
			<point x="577.286" y="81.2857" type="curve" smooth="yes"/>
			<point x="347.857" y="81.2857"/>
			<point x="220.143" y="238.143"/>
			<point x="220.143" y="536.286" type="curve" smooth="yes"/>
			<point x="220.143" y="840.286"/>
			<point x="340.714" y="1020"/>
		</contour>
	</outline>
	<anchor name="bottom" x="607.714" y="-492"/>
	<anchor name="top" x="607.714" y="1088.43"/>
</glyph>
<glyph name="Aringacute" format="2">
	<unicode hex="01FA"/>
	<advance width="1223"/>
	<outline>
		<contour>
			<point x="-13.7143" y="0" type="line"/>
			<point x="100.571" y="0" type="line"/>
			<point x="311.714" y="448" type="line"/>
			<point x="917" y="448" type="line"/>
			<point x="1119.29" y="0" type="line"/>
			<point x="1234.14" y="0" type="line"/>
			<point x="681.857" y="1213.29" type="line"/>
			<point x="775.714" y="1235.57"/>
			<point x="838" y="1301.43"/>
			<point x="838" y="1411" type="curve" smooth="yes"/>
			<point x="838" y="1540.29"/>
			<point x="750.143" y="1626.14"/>
			<point x="619.857" y="1626.14" type="curve" smooth="yes"/>
			<point x="490.286" y="1626.14"/>
			<point x="399.571" y="1538.57"/>
			<point x="399.571" y="1412.43" type="curve" smooth="yes"/>
			<point x="399.571" y="1298"/>
			<point x="465" y="1230.71"/>
			<point x="556.714" y="1215.57" type="curve"/>
		</contour>
		<contour>
			<point x="344.857" y="538.571" type="line"/>
			<point x="561" y="991.857" type="line"/>
			<point x="580.571" y="1039"/>
			<point x="600.714" y="1087.29"/>
			<point x="618.714" y="1140.14" type="curve"/>
			<point x="636.857" y="1087.29"/>
			<point x="659.571" y="1031.29"/>
			<point x="676.714" y="990.143" type="curve"/>
			<point x="883" y="538.571" type="line"/>
		</contour>
		<contour>
			<point x="618.143" y="1251.29" type="curve" smooth="yes"/>
			<point x="528" y="1251.29"/>
			<point x="462.143" y="1310.29"/>
			<point x="462.143" y="1410.71" type="curve" smooth="yes"/>
			<point x="462.143" y="1503.71"/>
			<point x="524" y="1565"/>
			<point x="618.143" y="1565" type="curve" smooth="yes"/>
			<point x="712.286" y="1565"/>
			<point x="774.143" y="1503.71"/>
			<point x="774.143" y="1410.71" type="curve" smooth="yes"/>
			<point x="774.143" y="1310.29"/>
			<point x="710.571" y="1251.29"/>
		</contour>
		<contour>
			<point x="571" y="1698.29" type="line"/>
			<point x="645" y="1698.29" type="line"/>
			<point x="748.571" y="1780.43"/>
			<point x="850.143" y="1871.29"/>
			<point x="915.429" y="1959.14" type="curve"/>
			<point x="915.429" y="1974" type="line"/>
			<point x="801.571" y="1974" type="line"/>
			<point x="746.571" y="1888.14"/>
			<point x="654.714" y="1788.71"/>
			<point x="571" y="1713" type="curve"/>
		</contour>
	</outline>
	<anchor name="bottom" x="611.571" y="0"/>
	<anchor name="top" x="611.571" y="1974"/>
</glyph>
<glyph name="uni021C" format="2">
	<unicode hex="021C"/>
	<advance width="1138"/>
	<outline>
		<contour>
			<point x="86.8571" y="-369" type="line"/>
			<point x="745.143" y="-212.714"/>
			<point x="1024" y="-17.1429"/>
			<point x="1024" y="323.571" type="curve" smooth="yes"/>
			<point x="1024" y="547.857"/>
			<point x="906" y="668.571"/>
			<point x="743.429" y="744.571" type="curve"/>
			<point x="900" y="822.857"/>
			<point x="996.143" y="930"/>
			<point x="996.143" y="1109.57" type="curve" smooth="yes"/>
			<point x="996.143" y="1365.86"/>
			<point x="801.857" y="1483"/>
			<point x="557" y="1483" type="curve" smooth="yes"/>
			<point x="369.714" y="1483"/>
			<point x="237" y="1425.29"/>
			<point x="97.8571" y="1327.29" type="curve"/>
			<point x="148.143" y="1253.14" type="line"/>
			<point x="262.857" y="1332.86"/>
			<point x="391.571" y="1393"/>
			<point x="551.143" y="1393" type="curve" smooth="yes"/>
			<point x="710.714" y="1393"/>
			<point x="891.714" y="1327.14"/>
			<point x="891.714" y="1103.71" type="curve" smooth="yes"/>
			<point x="891.714" y="855.714"/>
			<point x="685.143" y="785.286"/>
			<point x="324.143" y="695.857" type="curve"/>
			<point x="344.143" y="610.857" type="line"/>
			<point x="460.857" y="638.857"/>
			<point x="564.429" y="666.429"/>
			<point x="655.286" y="701.714" type="curve"/>
			<point x="826.857" y="619.571"/>
			<point x="919" y="509.143"/>
			<point x="919" y="325.143" type="curve" smooth="yes"/>
			<point x="919" y="55.2857"/>
			<point x="700" y="-120.286"/>
			<point x="86.8571" y="-272.286" type="curve"/>
		</contour>
	</outline>
	<anchor name="bottom" x="574.857" y="-210.714"/>
	<anchor name="top" x="540.714" y="1462"/>
</glyph>
<glyph name="uni021D" format="2">
	<unicode hex="021D"/>
	<advance width="977"/>
	<outline>
		<contour>
			<point x="61.2857" y="-493.714" type="line"/>
			<point x="541" y="-387.286"/>
			<point x="875.571" y="-256.571"/>
			<point x="875.571" y="96.7143" type="curve" smooth="yes"/>
			<point x="875.571" y="291"/>
			<point x="760.429" y="400.714"/>
			<point x="629.143" y="457.286" type="curve"/>
			<point x="763.143" y="523.571"/>
			<point x="843.429" y="627"/>
			<point x="843.429" y="774.571" type="curve" smooth="yes"/>
			<point x="843.429" y="990.429"/>
			<point x="679.143" y="1110.14"/>
			<point x="440.286" y="1110.14" type="curve" smooth="yes"/>
			<point x="307.714" y="1110.14"/>
			<point x="192.571" y="1073.71"/>
			<point x="88.1429" y="1022.43" type="curve"/>
			<point x="121.714" y="944" type="line"/>
			<point x="210.571" y="988.143"/>
			<point x="323.429" y="1022.29"/>
			<point x="437.571" y="1022.29" type="curve" smooth="yes"/>
			<point x="594" y="1022.29"/>
			<point x="744.714" y="954.429"/>
			<point x="744.714" y="770.714" type="curve" smooth="yes"/>
			<point x="744.714" y="576.714"/>
			<point x="591.571" y="498"/>
			<point x="271.143" y="415.429" type="curve"/>
			<point x="292" y="336" type="line"/>
			<point x="385.714" y="360.286"/>
			<point x="470.857" y="386.143"/>
			<point x="544.857" y="415.429" type="curve"/>
			<point x="687.571" y="349"/>
			<point x="771.571" y="254.143"/>
			<point x="771.571" y="97.7143" type="curve" smooth="yes"/>
			<point x="771.571" y="-179.429"/>
			<point x="504" y="-298.571"/>
			<point x="61.2857" y="-400.571" type="curve"/>
		</contour>
	</outline>
	<anchor name="bottom" x="494.143" y="-357.571"/>
	<anchor name="top" x="425.714" y="1088.43"/>
</glyph>
<glyph name="uni0221" format="2">
	<unicode hex="0221"/>
	<advance width="1739"/>
	<outline>
		<contour>
			<point x="1100" y="-201.857" type="line"/>
			<point x="1102.29" y="-139.857"/>
			<point x="1113.43" y="-41.7143"/>
			<point x="1126.14" y="10.2857" type="curve"/>
			<point x="1155.57" y="5.14286"/>
			<point x="1260.57" y="0"/>
			<point x="1375.14" y="0" type="curve" smooth="yes"/>
			<point x="1625.71" y="0"/>
			<point x="1716.29" y="103.286"/>
			<point x="1716.29" y="245" type="curve" smooth="yes"/>
			<point x="1716.29" y="377.429"/>
			<point x="1611.43" y="450.143"/>
			<point x="1459" y="450.143" type="curve" smooth="yes"/>
			<point x="1219.43" y="450.143"/>
			<point x="1121.57" y="258.429"/>
			<point x="1078.29" y="129.286" type="curve"/>
			<point x="1048.86" y="169.143"/>
			<point x="1036.29" y="245.571"/>
			<point x="1036.29" y="335.286" type="curve" smooth="yes"/>
			<point x="1036.29" y="1556" type="line"/>
			<point x="933.143" y="1556" type="line"/>
			<point x="933.143" y="1126.29" type="line" smooth="yes"/>
			<point x="933.143" y="1039.71"/>
			<point x="937.571" y="943.286"/>
			<point x="941.571" y="869.857" type="curve"/>
			<point x="935.571" y="869.857" type="line"/>
			<point x="890.286" y="1002.43"/>
			<point x="773.571" y="1109.29"/>
			<point x="581.714" y="1109.29" type="curve" smooth="yes"/>
			<point x="284.857" y="1109.29"/>
			<point x="115.143" y="903.714"/>
			<point x="115.143" y="527" type="curve" smooth="yes"/>
			<point x="115.143" y="169.714"/>
			<point x="266.286" y="-20"/>
			<point x="574.714" y="-20" type="curve" smooth="yes"/>
			<point x="787.286" y="-20"/>
			<point x="901.429" y="92.1429"/>
			<point x="953.143" y="212.143" type="curve"/>
			<point x="957.714" y="212.143" type="line"/>
			<point x="969.429" y="111.857"/>
			<point x="998.143" y="57.1429"/>
			<point x="1042.57" y="28.1429" type="curve"/>
			<point x="1028.29" y="-40.1429"/>
			<point x="1018" y="-135.143"/>
			<point x="1015.29" y="-197" type="curve"/>
		</contour>
		<contour>
			<point x="588.429" y="68.4286" type="curve" smooth="yes"/>
			<point x="339.286" y="68.4286"/>
			<point x="219.571" y="220.429"/>
			<point x="219.571" y="526.143" type="curve" smooth="yes"/>
			<point x="219.571" y="854.429"/>
			<point x="357.286" y="1020"/>
			<point x="601.286" y="1020" type="curve" smooth="yes"/>
			<point x="830" y="1020"/>
			<point x="937.286" y="852.429"/>
			<point x="937.286" y="547" type="curve" smooth="yes"/>
			<point x="937.286" y="536.286" type="line"/>
			<point x="936.429" y="234"/>
			<point x="838.857" y="68.4286"/>
		</contour>
		<contour>
			<point x="1377.57" y="74.4286" type="curve" smooth="yes"/>
			<point x="1277" y="74.4286"/>
			<point x="1186.57" y="79.5714"/>
			<point x="1142.57" y="84.7143" type="curve"/>
			<point x="1184.29" y="225.143"/>
			<point x="1259" y="376.429"/>
			<point x="1453" y="376.429" type="curve" smooth="yes"/>
			<point x="1571.71" y="376.429"/>
			<point x="1633.14" y="329.286"/>
			<point x="1633.14" y="240.571" type="curve" smooth="yes"/>
			<point x="1633.14" y="140.429"/>
			<point x="1573.29" y="74.4286"/>
		</contour>
	</outline>
	<anchor name="bottom" x="870.143" y="-201.857"/>
	<anchor name="top" x="870.143" y="1556"/>
</glyph>
<glyph name="uni0222" format="2">
	<unicode hex="0222"/>
	<advance width="1358"/>
	<outline>
		<contour>
			<point x="682.857" y="-24.2857" type="curve" smooth="yes"/>
			<point x="1054.29" y="-24.2857"/>
			<point x="1246.71" y="147.857"/>
			<point x="1249.86" y="458.286" type="curve" smooth="yes"/>
			<point x="1253.29" y="729.714"/>
			<point x="1091" y="862"/>
			<point x="917.286" y="895.429" type="curve"/>
			<point x="1081.86" y="937.714"/>
			<point x="1181.86" y="1033.43"/>
			<point x="1181.86" y="1301" type="curve" smooth="yes"/>
			<point x="1181.86" y="1495.71" type="line"/>
			<point x="1078.29" y="1495.71" type="line"/>
			<point x="1078.29" y="1313.29" type="line" smooth="yes"/>
			<point x="1078.29" y="1024.29"/>
			<point x="970.571" y="941.143"/>
			<point x="673.429" y="941.143" type="curve" smooth="yes"/>
			<point x="377.571" y="941.143"/>
			<point x="282.286" y="1025.71"/>
			<point x="282.286" y="1301" type="curve" smooth="yes"/>
			<point x="282.286" y="1495.71" type="line"/>
			<point x="178.286" y="1495.71" type="line"/>
			<point x="178.286" y="1295.86" type="line" smooth="yes"/>
			<point x="178.286" y="1034.57"/>
			<point x="267" y="930"/>
			<point x="445" y="895.429" type="curve"/>
			<point x="276.571" y="860"/>
			<point x="109.714" y="726.286"/>
			<point x="109.714" y="463.429" type="curve" smooth="yes"/>
			<point x="109.714" y="160.429"/>
			<point x="306.429" y="-24.2857"/>
		</contour>
		<contour>
			<point x="682.571" y="68.7143" type="curve" smooth="yes"/>
			<point x="382.857" y="68.7143"/>
			<point x="218.714" y="214.286"/>
			<point x="218.714" y="465" type="curve" smooth="yes"/>
			<point x="218.714" y="713.714"/>
			<point x="372.286" y="848.286"/>
			<point x="673.429" y="848.286" type="curve" smooth="yes"/>
			<point x="1005.57" y="848.286"/>
			<point x="1141" y="718"/>
			<point x="1141" y="459.286" type="curve" smooth="yes"/>
			<point x="1141" y="209.143"/>
			<point x="983.571" y="68.7143"/>
		</contour>
	</outline>
	<anchor name="bottom" x="679.429" y="0"/>
	<anchor name="top" x="679.429" y="1462"/>
</glyph>
<glyph name="uni0223" format="2">
	<unicode hex="0223"/>
	<advance width="1235"/>
	<outline>
		<contour>
			<point x="621.286" y="-24.2857" type="curve" smooth="yes"/>
			<point x="913.286" y="-24.2857"/>
			<point x="1100.71" y="142.286"/>
			<point x="1103.86" y="468.857" type="curve" smooth="yes"/>
			<point x="1107.29" y="756.429"/>
			<point x="959.286" y="887.714"/>
			<point x="804.714" y="919.143" type="curve"/>
			<point x="952.714" y="960.286"/>
			<point x="1048.29" y="1058.86"/>
			<point x="1048.29" y="1316" type="curve" smooth="yes"/>
			<point x="1048.29" y="1510.57" type="line"/>
			<point x="945.714" y="1510.57" type="line"/>
			<point x="945.714" y="1327.71" type="line" smooth="yes"/>
			<point x="945.714" y="1037.43"/>
			<point x="844.286" y="966.286"/>
			<point x="612.286" y="966.286" type="curve" smooth="yes"/>
			<point x="381.286" y="966.286"/>
			<point x="294.143" y="1050"/>
			<point x="294.143" y="1316.57" type="curve" smooth="yes"/>
			<point x="294.143" y="1510.57" type="line"/>
			<point x="191.857" y="1510.57" type="line"/>
			<point x="191.857" y="1310.86" type="line" smooth="yes"/>
			<point x="191.857" y="1050.29"/>
			<point x="274" y="953.714"/>
			<point x="434.857" y="919.143" type="curve"/>
			<point x="285" y="885.143"/>
			<point x="133.429" y="753.857"/>
			<point x="133.429" y="472.857" type="curve" smooth="yes"/>
			<point x="133.429" y="154.857"/>
			<point x="329.714" y="-24.2857"/>
		</contour>
		<contour>
			<point x="622.143" y="64.7143" type="curve" smooth="yes"/>
			<point x="391" y="64.7143"/>
			<point x="239.286" y="209.286"/>
			<point x="239.286" y="474.571" type="curve" smooth="yes"/>
			<point x="239.286" y="742.571"/>
			<point x="378.429" y="877.429"/>
			<point x="612.286" y="877.429" type="curve" smooth="yes"/>
			<point x="877.429" y="877.429"/>
			<point x="999.143" y="747.429"/>
			<point x="999.143" y="470.143" type="curve" smooth="yes"/>
			<point x="999.143" y="204.714"/>
			<point x="852.571" y="64.7143"/>
		</contour>
	</outline>
	<anchor name="bottom" x="617" y="0"/>
	<anchor name="top" x="617" y="1148.86"/>
</glyph>
<glyph name="uni0234" format="2">
	<unicode hex="0234"/>
	<advance width="741"/>
	<outline>
		<contour>
			<point x="127.571" y="-47.1429" type="line"/>
			<point x="149.571" y="26.7143"/>
			<point x="188" y="114"/>
			<point x="224.571" y="158.429" type="curve"/>
			<point x="259.571" y="49.4286"/>
			<point x="333.286" y="-20"/>
			<point x="462.857" y="-20" type="curve" smooth="yes"/>
			<point x="600.571" y="-20"/>
			<point x="711" y="61.5714"/>
			<point x="711" y="197.571" type="curve" smooth="yes"/>
			<point x="711" y="322.286"/>
			<point x="626.143" y="403.571"/>
			<point x="485.857" y="403.571" type="curve" smooth="yes"/>
			<point x="393.857" y="403.571"/>
			<point x="325.143" y="365.714"/>
			<point x="283.857" y="331.143" type="curve"/>
			<point x="283.857" y="1556" type="line"/>
			<point x="180.857" y="1556" type="line"/>
			<point x="180.857" y="387.286" type="line" smooth="yes"/>
			<point x="180.857" y="333.571"/>
			<point x="184.857" y="275.857"/>
			<point x="193.571" y="235.143" type="curve"/>
			<point x="137.429" y="171.571"/>
			<point x="86.1429" y="66.7143"/>
			<point x="57.7143" y="-27.7143" type="curve"/>
		</contour>
		<contour>
			<point x="469.857" y="55.8571" type="curve" smooth="yes"/>
			<point x="361.429" y="55.8571"/>
			<point x="298.429" y="139.429"/>
			<point x="288.714" y="241.571" type="curve"/>
			<point x="330.714" y="295.429"/>
			<point x="397.714" y="329.714"/>
			<point x="475.286" y="329.714" type="curve" smooth="yes"/>
			<point x="571.857" y="329.714"/>
			<point x="627" y="277.857"/>
			<point x="627" y="194.857" type="curve" smooth="yes"/>
			<point x="627" y="113.286"/>
			<point x="563.429" y="55.8571"/>
		</contour>
	</outline>
	<anchor name="bottom" x="371.714" y="0"/>
	<anchor name="top" x="351.143" y="1556"/>
</glyph>
<glyph name="uni0238" format="2">
	<unicode hex="0238"/>
	<advance width="1969"/>
	<outline>
		<contour>
			<point x="576.571" y="-20" type="curve" smooth="yes"/>
			<point x="790.286" y="-20"/>
			<point x="930.143" y="85.2857"/>
			<point x="984.143" y="286.714" type="curve"/>
			<point x="1038.14" y="85.2857"/>
			<point x="1177.71" y="-20"/>
			<point x="1390.43" y="-20" type="curve" smooth="yes"/>
			<point x="1709.43" y="-20"/>
			<point x="1854" y="214.571"/>
			<point x="1854" y="541" type="curve" smooth="yes"/>
			<point x="1854" y="908.286"/>
			<point x="1695.71" y="1111"/>
			<point x="1405.57" y="1111" type="curve" smooth="yes"/>
			<point x="1198.14" y="1111"/>
			<point x="1080.14" y="992.429"/>
			<point x="1036.29" y="854.714" type="curve"/>
			<point x="1030.71" y="854.714" type="line"/>
			<point x="1033" y="916.857"/>
			<point x="1036.29" y="1024"/>
			<point x="1036.29" y="1093.71" type="curve" smooth="yes"/>
			<point x="1036.29" y="1556" type="line"/>
			<point x="933.143" y="1556" type="line"/>
			<point x="933.143" y="1093.71" type="line" smooth="yes"/>
			<point x="933.143" y="1025.14"/>
			<point x="937" y="917.714"/>
			<point x="939.571" y="854.714" type="curve"/>
			<point x="933.143" y="854.714" type="line"/>
			<point x="889.571" y="991.857"/>
			<point x="772.143" y="1111"/>
			<point x="564.714" y="1111" type="curve" smooth="yes"/>
			<point x="273.143" y="1111"/>
			<point x="115.143" y="908.857"/>
			<point x="115.143" y="542.143" type="curve" smooth="yes"/>
			<point x="115.143" y="217.143"/>
			<point x="256.714" y="-20"/>
		</contour>
		<contour>
			<point x="579.857" y="69" type="curve" smooth="yes"/>
			<point x="340.429" y="69"/>
			<point x="220.143" y="231.571"/>
			<point x="220.143" y="541.857" type="curve" smooth="yes"/>
			<point x="220.143" y="855.429"/>
			<point x="343" y="1022.57"/>
			<point x="585" y="1022.57" type="curve" smooth="yes"/>
			<point x="821.571" y="1022.57"/>
			<point x="933.143" y="854.571"/>
			<point x="933.143" y="544.143" type="curve" smooth="yes"/>
			<point x="933.143" y="226.286"/>
			<point x="821.857" y="69"/>
		</contour>
		<contour>
			<point x="1389.29" y="69" type="curve" smooth="yes"/>
			<point x="1153.29" y="69"/>
			<point x="1036.29" y="221.429"/>
			<point x="1036.29" y="544.143" type="curve" smooth="yes"/>
			<point x="1036.29" y="854.857"/>
			<point x="1149" y="1022.57"/>
			<point x="1385" y="1022.57" type="curve" smooth="yes"/>
			<point x="1626.43" y="1022.57"/>
			<point x="1749.29" y="854.571"/>
			<point x="1749.29" y="541" type="curve" smooth="yes"/>
			<point x="1749.29" y="230.286"/>
			<point x="1629" y="69"/>
		</contour>
	</outline>
	<anchor name="bottom" x="984.714" y="0"/>
	<anchor name="top" x="984.714" y="1556"/>
</glyph>
<glyph name="uni0239" format="2">
	<unicode hex="0239"/>
	<advance width="1969"/>
	<outline>
		<contour>
			<point x="1392.57" y="1111" type="curve" smooth="yes"/>
			<point x="1180" y="1111"/>
			<point x="1039.29" y="1004.86"/>
			<point x="985.286" y="803.429" type="curve"/>
			<point x="931" y="1004.86"/>
			<point x="792.571" y="1111"/>
			<point x="579" y="1111" type="curve" smooth="yes"/>
			<point x="259.714" y="1111"/>
			<point x="115.143" y="875.571"/>
			<point x="115.143" y="549.857" type="curve" smooth="yes"/>
			<point x="115.143" y="181.714"/>
			<point x="273.714" y="-20"/>
			<point x="564.714" y="-20" type="curve" smooth="yes"/>
			<point x="772.143" y="-20"/>
			<point x="889.286" y="97.5714"/>
			<point x="933.143" y="235.286" type="curve"/>
			<point x="939.571" y="235.286" type="line"/>
			<point x="936.714" y="170.286"/>
			<point x="933.143" y="67"/>
			<point x="933.143" y="-4" type="curve" smooth="yes"/>
			<point x="933.143" y="-477.143" type="line"/>
			<point x="1036.29" y="-477.143" type="line"/>
			<point x="1036.29" y="-4" type="line" smooth="yes"/>
			<point x="1036.29" y="65.7143"/>
			<point x="1033.71" y="169.429"/>
			<point x="1030.71" y="235.286" type="curve"/>
			<point x="1036.29" y="235.286" type="line"/>
			<point x="1079.57" y="98.1429"/>
			<point x="1197.86" y="-20"/>
			<point x="1405.57" y="-20" type="curve" smooth="yes"/>
			<point x="1696" y="-20"/>
			<point x="1854" y="181.143"/>
			<point x="1854" y="548.714" type="curve" smooth="yes"/>
			<point x="1854" y="873"/>
			<point x="1712.71" y="1111"/>
		</contour>
		<contour>
			<point x="580.143" y="1022" type="curve" smooth="yes"/>
			<point x="816.143" y="1022"/>
			<point x="933.143" y="869.143"/>
			<point x="933.143" y="546.429" type="curve" smooth="yes"/>
			<point x="933.143" y="235.286"/>
			<point x="821.286" y="68.4286"/>
			<point x="585" y="68.4286" type="curve" smooth="yes"/>
			<point x="343" y="68.4286"/>
			<point x="220.143" y="235.286"/>
			<point x="220.143" y="549.857" type="curve" smooth="yes"/>
			<point x="220.143" y="859.714"/>
			<point x="340.429" y="1022"/>
		</contour>
		<contour>
			<point x="1389.57" y="1022" type="curve" smooth="yes"/>
			<point x="1628.71" y="1022"/>
			<point x="1749.29" y="858.571"/>
			<point x="1749.29" y="548.714" type="curve" smooth="yes"/>
			<point x="1749.29" y="234.714"/>
			<point x="1626.43" y="68.4286"/>
			<point x="1385" y="68.4286" type="curve" smooth="yes"/>
			<point x="1148.71" y="68.4286"/>
			<point x="1036.29" y="235.286"/>
			<point x="1036.29" y="546.429" type="curve" smooth="yes"/>
			<point x="1036.29" y="864.286"/>
			<point x="1148.43" y="1022"/>
		</contour>
	</outline>
	<anchor name="bottom" x="984.714" y="-477.143"/>
	<anchor name="top" x="984.714" y="1088.43"/>
</glyph>
<glyph name="uni023A" format="2">
	<unicode hex="023A"/>
	<advance width="1227"/>
	<outline>
		<component base="A"/>
		<contour>
			<point x="1020.71" y="1556" type="line"/>
			<point x="939.857" y="1556" type="line"/>
			<point x="345.857" y="-154" type="line"/>
			<point x="426.714" y="-154" type="line"/>
		</contour>
	</outline>
	<anchor name="bottom" x="613.571" y="0"/>
	<anchor name="top" x="613.571" y="1462"/>
</glyph>
<glyph name="uni023B" format="2">
	<unicode hex="023B"/>
	<advance width="1266"/>
	<outline>
		<component base="C"/>
		<contour>
			<point x="1106.29" y="1556" type="line"/>
			<point x="1024.57" y="1556" type="line"/>
			<point x="430.571" y="-154" type="line"/>
			<point x="512.286" y="-154" type="line"/>
		</contour>
	</outline>
	<anchor name="bottom" x="755.429" y="0"/>
	<anchor name="top" x="786.571" y="1462"/>
</glyph>
<glyph name="uni023F" format="2">
	<unicode hex="023F"/>
	<advance width="960"/>
	<outline>
		<contour>
			<point x="689" y="-492" type="curve" smooth="yes"/>
			<point x="766.429" y="-492"/>
			<point x="821.571" y="-475.286"/>
			<point x="854" y="-463.286" type="curve"/>
			<point x="854" y="-379.429" type="line"/>
			<point x="821.286" y="-392.714"/>
			<point x="768.857" y="-406.429"/>
			<point x="709" y="-406.429" type="curve" smooth="yes"/>
			<point x="558" y="-406.429"/>
			<point x="537" y="-338.571"/>
			<point x="491" y="-163.143" type="curve" smooth="yes"/>
			<point x="474.429" y="-99.2857"/>
			<point x="457" y="-47"/>
			<point x="417.714" y="-19.4286" type="curve"/>
			<point x="693" y="-22.2857"/>
			<point x="866" y="72.2857"/>
			<point x="866" y="284.571" type="curve" smooth="yes"/>
			<point x="866" y="490.429"/>
			<point x="693.857" y="542.429"/>
			<point x="511.571" y="603.571" type="curve" smooth="yes"/>
			<point x="342.286" y="659.714"/>
			<point x="216" y="685"/>
			<point x="216" y="835.143" type="curve" smooth="yes"/>
			<point x="216" y="963.714"/>
			<point x="324.571" y="1027.86"/>
			<point x="501.429" y="1027.86" type="curve" smooth="yes"/>
			<point x="604.429" y="1027.86"/>
			<point x="726.286" y="1001.71"/>
			<point x="807.571" y="962.714" type="curve"/>
			<point x="841.571" y="1042.43" type="line"/>
			<point x="747.714" y="1081.43"/>
			<point x="633" y="1109.29"/>
			<point x="501.143" y="1109.29" type="curve" smooth="yes"/>
			<point x="264.714" y="1109.29"/>
			<point x="115.571" y="1006.57"/>
			<point x="115.571" y="831.857" type="curve" smooth="yes"/>
			<point x="115.571" y="633"/>
			<point x="259.857" y="587"/>
			<point x="450.429" y="527" type="curve" smooth="yes"/>
			<point x="632" y="469.571"/>
			<point x="765.286" y="425"/>
			<point x="765.286" y="280.857" type="curve" smooth="yes"/>
			<point x="765.286" y="145.857"/>
			<point x="672.286" y="64.2857"/>
			<point x="447.143" y="64.2857" type="curve" smooth="yes"/>
			<point x="326" y="64.2857"/>
			<point x="198.857" y="90.4286"/>
			<point x="85.8571" y="146" type="curve"/>
			<point x="85.8571" y="50.1429" type="line"/>
			<point x="117.857" y="35.5714"/>
			<point x="179.429" y="15"/>
			<point x="230" y="3.85714" type="curve"/>
			<point x="334.571" y="-22.8571"/>
			<point x="374.714" y="-76.5714"/>
			<point x="403.714" y="-195.714" type="curve" smooth="yes"/>
			<point x="452" y="-387.714"/>
			<point x="496.429" y="-492"/>
		</contour>
	</outline>
	<anchor name="bottom" x="480.143" y="-492"/>
	<anchor name="top" x="480.143" y="1088.43"/>
</glyph>
<glyph name="uni0240" format="2">
	<unicode hex="0240"/>
	<advance width="947"/>
	<outline>
		<contour>
			<point x="741.429" y="-492" type="curve" smooth="yes"/>
			<point x="825" y="-492"/>
			<point x="886.143" y="-476.143"/>
			<point x="923.571" y="-463.286" type="curve"/>
			<point x="923.571" y="-375.714" type="line"/>
			<point x="885.714" y="-389.429"/>
			<point x="828.429" y="-401.714"/>
			<point x="760" y="-401.714" type="curve" smooth="yes"/>
			<point x="598.286" y="-401.714"/>
			<point x="550.143" y="-329.571"/>
			<point x="480.714" y="-149.429" type="curve" smooth="yes"/>
			<point x="422.571" y="3.71429"/>
			<point x="335.286" y="62.4286"/>
			<point x="197.571" y="73.1429" type="curve"/>
			<point x="864" y="1025.43" type="line"/>
			<point x="864" y="1088.43" type="line"/>
			<point x="128.857" y="1088.43" type="line"/>
			<point x="128.857" y="1002" type="line"/>
			<point x="733.714" y="1002" type="line"/>
			<point x="78.1429" y="63.2857" type="line"/>
			<point x="78.1429" y="0" type="line"/>
			<point x="110.143" y="0" type="line" smooth="yes"/>
			<point x="256.857" y="0"/>
			<point x="336.714" y="-45.8571"/>
			<point x="391.429" y="-195.714" type="curve" smooth="yes"/>
			<point x="461.286" y="-382.857"/>
			<point x="527.857" y="-492"/>
		</contour>
	</outline>
	<anchor name="bottom" x="473.429" y="-492"/>
	<anchor name="top" x="473.429" y="1088.43"/>
</glyph>
<glyph name="uni0241" format="2">
	<unicode hex="0241"/>
	<advance width="846"/>
	<outline>
		<contour>
			<point x="383.571" y="1481.57" type="curve" smooth="yes"/>
			<point x="223.857" y="1481.57"/>
			<point x="116.143" y="1440.57"/>
			<point x="15.1429" y="1388.57" type="curve"/>
			<point x="53.2857" y="1307.86" type="line"/>
			<point x="127.429" y="1344.57"/>
			<point x="233.286" y="1392.43"/>
			<point x="376" y="1392.43" type="curve" smooth="yes"/>
			<point x="569.714" y="1392.43"/>
			<point x="693.429" y="1278"/>
			<point x="693.429" y="1070" type="curve" smooth="yes"/>
			<point x="693.429" y="812.286"/>
			<point x="519.286" y="707.286"/>
			<point x="304" y="622.571" type="curve"/>
			<point x="304" y="0" type="line"/>
			<point x="407.857" y="0" type="line"/>
			<point x="407.857" y="571.429" type="line"/>
			<point x="598.857" y="657.429"/>
			<point x="798.286" y="774.286"/>
			<point x="798.286" y="1075.71" type="curve" smooth="yes"/>
			<point x="798.286" y="1324.29"/>
			<point x="641.286" y="1481.57"/>
		</contour>
	</outline>
	<anchor name="bottom" x="424.571" y="0"/>
	<anchor name="top" x="424.571" y="1462"/>
</glyph>
<glyph name="uni0242" format="2">
	<unicode hex="0242"/>
	<advance width="840"/>
	<outline>
		<contour>
			<point x="383.571" y="1105.86" type="curve" smooth="yes"/>
			<point x="223.857" y="1105.86"/>
			<point x="116.143" y="1064.86"/>
			<point x="15.1429" y="1012.86" type="curve"/>
			<point x="53.2857" y="932.143" type="line"/>
			<point x="127.429" y="969.714"/>
			<point x="232.429" y="1016.86"/>
			<point x="375.143" y="1016.86" type="curve" smooth="yes"/>
			<point x="569.143" y="1016.86"/>
			<point x="692.571" y="902.286"/>
			<point x="692.571" y="708" type="curve" smooth="yes"/>
			<point x="692.571" y="468.857"/>
			<point x="518.714" y="363.857"/>
			<point x="303.714" y="284.571" type="curve"/>
			<point x="303.714" y="0" type="line"/>
			<point x="407.571" y="0" type="line"/>
			<point x="407.571" y="233.429" type="line"/>
			<point x="598.286" y="314.286"/>
			<point x="797.286" y="438"/>
			<point x="797.286" y="713.857" type="curve" smooth="yes"/>
			<point x="797.286" y="948.571"/>
			<point x="641.286" y="1105.86"/>
		</contour>
	</outline>
	<anchor name="bottom" x="420.714" y="0"/>
	<anchor name="top" x="420.714" y="1088.43"/>
</glyph>
<glyph name="uni0244" format="2">
	<unicode hex="0244"/>
	<advance width="1471"/>
	<outline>
		<component base="U"/>
		<contour>
			<point x="22.5714" y="769.286" type="line"/>
			<point x="1448" y="769.286" type="line"/>
			<point x="1448" y="860.143" type="line"/>
			<point x="22.5714" y="860.143" type="line"/>
		</contour>
	</outline>
	<anchor name="bottom" x="735.143" y="0"/>
	<anchor name="top" x="735.714" y="1462"/>
</glyph>
<glyph name="uni0247" format="2">
	<unicode hex="0247"/>
	<advance width="1126"/>
	<outline>
		<component base="e"/>
		<contour>
			<point x="915.429" y="1408.57" type="line"/>
			<point x="832.857" y="1408.57" type="line"/>
			<point x="226.857" y="-340" type="line"/>
			<point x="308.571" y="-340" type="line"/>
		</contour>
	</outline>
	<anchor name="bottom" x="571.429" y="-340"/>
	<anchor name="top" x="564.429" y="1408.57"/>
</glyph>
<glyph name="uni0248" format="2">
	<unicode hex="0248"/>
	<advance width="513"/>
	<outline>
		<contour>
			<point x="-28.4286" y="-370.714" type="curve" smooth="yes"/>
			<point x="206.571" y="-370.714"/>
			<point x="313.571" y="-246.714"/>
			<point x="313.571" y="7.57143" type="curve" smooth="yes"/>
			<point x="313.571" y="665" type="line"/>
			<point x="510.571" y="665" type="line"/>
			<point x="510.571" y="756.143" type="line"/>
			<point x="313.571" y="756.143" type="line"/>
			<point x="313.571" y="1462" type="line"/>
			<point x="210.857" y="1462" type="line"/>
			<point x="210.857" y="756.143" type="line"/>
			<point x="15.7143" y="756.143" type="line"/>
			<point x="15.7143" y="665" type="line"/>
			<point x="210.857" y="665" type="line"/>
			<point x="210.857" y="2.42857" type="line" smooth="yes"/>
			<point x="210.857" y="-176.286"/>
			<point x="145.143" y="-277.286"/>
			<point x="-37.7143" y="-277.286" type="curve" smooth="yes"/>
			<point x="-98.4286" y="-277.286"/>
			<point x="-151.143" y="-267.286"/>
			<point x="-190.143" y="-251.143" type="curve"/>
			<point x="-190.143" y="-345.143" type="line"/>
			<point x="-153.714" y="-358.571"/>
			<point x="-99.2857" y="-370.714"/>
		</contour>
	</outline>
	<anchor name="bottom" x="258.143" y="-370.714"/>
	<anchor name="top" x="258.143" y="1462"/>
</glyph>
<glyph name="uni024A" format="2">
	<unicode hex="024A"/>
	<advance width="1517"/>
	<outline>
		<contour>
			<point x="744.429" y="1479.86" type="curve" smooth="yes"/>
			<point x="344.714" y="1479.86"/>
			<point x="130.143" y="1189.29"/>
			<point x="130.143" y="736.143" type="curve" smooth="yes"/>
			<point x="130.143" y="284.143"/>
			<point x="333.286" y="-20"/>
			<point x="739" y="-20" type="curve" smooth="yes"/>
			<point x="1016.57" y="-20"/>
			<point x="1178.29" y="129.571"/>
			<point x="1244.86" y="321.429" type="curve"/>
			<point x="1250.71" y="321.429" type="line"/>
			<point x="1248.71" y="247.286"/>
			<point x="1247.29" y="153.143"/>
			<point x="1247.29" y="81.8571" type="curve" smooth="yes"/>
			<point x="1247.29" y="-232.571" type="line" smooth="yes"/>
			<point x="1247.29" y="-409.286"/>
			<point x="1331.71" y="-497.143"/>
			<point x="1488.57" y="-497.143" type="curve" smooth="yes"/>
			<point x="1539.71" y="-497.143"/>
			<point x="1583.43" y="-486.714"/>
			<point x="1613.29" y="-474.143" type="curve"/>
			<point x="1613.29" y="-387.714" type="line"/>
			<point x="1582" y="-398.857"/>
			<point x="1549" y="-408"/>
			<point x="1502.86" y="-408" type="curve" smooth="yes"/>
			<point x="1401.86" y="-408"/>
			<point x="1350.29" y="-350"/>
			<point x="1350.29" y="-220.286" type="curve" smooth="yes"/>
			<point x="1350.29" y="1462" type="line"/>
			<point x="1254.14" y="1462" type="line"/>
			<point x="1248" y="1151.29" type="line"/>
			<point x="1243.43" y="1151.29" type="line"/>
			<point x="1183.43" y="1332.71"/>
			<point x="1011.14" y="1479.86"/>
		</contour>
		<contour>
			<point x="760" y="1387.29" type="curve" smooth="yes"/>
			<point x="1028.14" y="1387.29"/>
			<point x="1247.29" y="1226.29"/>
			<point x="1247.29" y="835.286" type="curve" smooth="yes"/>
			<point x="1247.29" y="648.143" type="line" smooth="yes"/>
			<point x="1247.29" y="244.857"/>
			<point x="1028" y="71.5714"/>
			<point x="761.429" y="71.5714" type="curve" smooth="yes"/>
			<point x="396.714" y="71.5714"/>
			<point x="237.857" y="341.714"/>
			<point x="237.857" y="733.571" type="curve" smooth="yes"/>
			<point x="237.857" y="1119.29"/>
			<point x="402.429" y="1387.29"/>
		</contour>
	</outline>
	<anchor name="bottom" x="759.857" y="-497.143"/>
	<anchor name="top" x="759.857" y="1462"/>
</glyph>
<glyph name="uni024B" format="2">
	<unicode hex="024B"/>
	<advance width="1214"/>
	<outline>
		<contour>
			<point x="571.429" y="1109.29" type="curve" smooth="yes"/>
			<point x="256" y="1109.29"/>
			<point x="110" y="865"/>
			<point x="110" y="541.286" type="curve" smooth="yes"/>
			<point x="110" y="173.143"/>
			<point x="262.286" y="-22.5714"/>
			<point x="542.143" y="-22.5714" type="curve" smooth="yes"/>
			<point x="742.714" y="-22.5714"/>
			<point x="882.714" y="87"/>
			<point x="928" y="233.571" type="curve"/>
			<point x="933.571" y="233.571" type="line"/>
			<point x="930.714" y="167.429"/>
			<point x="928" y="64"/>
			<point x="928" y="-1.28571" type="curve" smooth="yes"/>
			<point x="928" y="-234.286" type="line" smooth="yes"/>
			<point x="928" y="-401.714"/>
			<point x="1002" y="-497.143"/>
			<point x="1164.14" y="-497.143" type="curve" smooth="yes"/>
			<point x="1216.14" y="-497.143"/>
			<point x="1260.14" y="-488.143"/>
			<point x="1292" y="-473.857" type="curve"/>
			<point x="1292" y="-387.714" type="line"/>
			<point x="1257.86" y="-399.714"/>
			<point x="1227.86" y="-407.714"/>
			<point x="1182.57" y="-407.714" type="curve" smooth="yes"/>
			<point x="1080.86" y="-407.714"/>
			<point x="1031.14" y="-348.714"/>
			<point x="1031.14" y="-221.714" type="curve" smooth="yes"/>
			<point x="1031.14" y="1088.43" type="line"/>
			<point x="944.571" y="1088.43" type="line"/>
			<point x="932.429" y="885.857" type="line"/>
			<point x="927.857" y="885.857" type="line"/>
			<point x="879.429" y="1008.14"/>
			<point x="761.714" y="1109.29"/>
		</contour>
		<contour>
			<point x="591.286" y="1020" type="curve" smooth="yes"/>
			<point x="822.286" y="1020"/>
			<point x="932.143" y="860.143"/>
			<point x="932.143" y="561.857" type="curve" smooth="yes"/>
			<point x="932.143" y="538" type="line"/>
			<point x="931.286" y="241.714"/>
			<point x="817.429" y="65.8571"/>
			<point x="564.429" y="65.8571" type="curve" smooth="yes"/>
			<point x="330.286" y="65.8571"/>
			<point x="215" y="226.143"/>
			<point x="215" y="540.714" type="curve" smooth="yes"/>
			<point x="215" y="845.857"/>
			<point x="344" y="1020"/>
		</contour>
	</outline>
	<anchor name="bottom" x="607.714" y="-497.143"/>
	<anchor name="top" x="607.714" y="1088.43"/>
</glyph>
<glyph name="uni024D" format="2">
	<unicode hex="024D"/>
	<advance width="796"/>
	<outline>
		<component base="r"/>
		<contour>
			<point x="564.429" y="603.429" type="line"/>
			<point x="24.8571" y="603.429" type="line"/>
			<point x="24.8571" y="523.714" type="line"/>
			<point x="564.429" y="523.714" type="line"/>
		</contour>
	</outline>
	<anchor name="bottom" x="230.857" y="0"/>
	<anchor name="top" x="403.429" y="1088.43"/>
</glyph>
<glyph name="uni024F" format="2">
	<unicode hex="024F"/>
	<advance width="933"/>
	<outline>
		<component base="y"/>
		<contour>
			<point x="924.714" y="714.143" type="line"/>
			<point x="3.85714" y="714.143" type="line"/>
			<point x="3.85714" y="634.143" type="line"/>
			<point x="924.714" y="634.143" type="line"/>
		</contour>
	</outline>
	<anchor name="bottom" x="127.857" y="-497.143"/>
	<anchor name="top" x="464.714" y="1088.43"/>
</glyph>
<glyph name="uni0251" format="2">
	<unicode hex="0251"/>
	<advance width="1214"/>
	<outline>
		<contour>
			<point x="555.429" y="-20" type="curve" smooth="yes"/>
			<point x="772.857" y="-20"/>
			<point x="887.714" y="90"/>
			<point x="938.286" y="226.714" type="curve"/>
			<point x="943.429" y="226.714" type="line"/>
			<point x="952.286" y="48.2857"/>
			<point x="993.143" y="-20"/>
			<point x="1121.57" y="-20" type="curve" smooth="yes"/>
			<point x="1152.86" y="-20"/>
			<point x="1192.43" y="-12.8571"/>
			<point x="1210.71" y="-4.28571" type="curve"/>
			<point x="1210.71" y="79.2857" type="line"/>
			<point x="1189.57" y="71.8571"/>
			<point x="1162.86" y="67.5714"/>
			<point x="1137.14" y="67.5714" type="curve" smooth="yes"/>
			<point x="1069.29" y="67.5714"/>
			<point x="1036.29" y="113"/>
			<point x="1036.29" y="267.429" type="curve" smooth="yes"/>
			<point x="1036.29" y="1088.43" type="line"/>
			<point x="948.286" y="1088.43" type="line"/>
			<point x="936.714" y="864.571" type="line"/>
			<point x="931.857" y="864.571" type="line"/>
			<point x="886.429" y="1003"/>
			<point x="768.571" y="1109.29"/>
			<point x="568.571" y="1109.29" type="curve" smooth="yes"/>
			<point x="279.143" y="1109.29"/>
			<point x="116" y="910"/>
			<point x="116" y="533.286" type="curve" smooth="yes"/>
			<point x="116" y="176.286"/>
			<point x="268.857" y="-20"/>
		</contour>
		<contour>
			<point x="574.429" y="67.5714" type="curve" smooth="yes"/>
			<point x="342.714" y="67.5714"/>
			<point x="219.571" y="226.714"/>
			<point x="219.571" y="533" type="curve" smooth="yes"/>
			<point x="219.571" y="863.714"/>
			<point x="351.286" y="1020.57"/>
			<point x="589.286" y="1020.57" type="curve" smooth="yes"/>
			<point x="820" y="1020.57"/>
			<point x="936.714" y="855.714"/>
			<point x="936.714" y="551.143" type="curve" smooth="yes"/>
			<point x="936.714" y="539.286" type="line" smooth="yes"/>
			<point x="936.714" y="241"/>
			<point x="828.286" y="67.5714"/>
		</contour>
	</outline>
	<anchor name="bottom" x="607.714" y="0"/>
	<anchor name="top" x="607.714" y="1088.43"/>
</glyph>
<glyph name="uni0252" format="2">
	<unicode hex="0252"/>
	<advance width="1214"/>
	<outline>
		<contour>
			<point x="658.143" y="1108.43" type="curve" smooth="yes"/>
			<point x="440.714" y="1108.43"/>
			<point x="325.857" y="998.429"/>
			<point x="275.286" y="861.714" type="curve"/>
			<point x="270.143" y="861.714" type="line"/>
			<point x="261.286" y="1040.14"/>
			<point x="220.429" y="1108.43"/>
			<point x="92" y="1108.43" type="curve" smooth="yes"/>
			<point x="60.7143" y="1108.43"/>
			<point x="21.1429" y="1101.29"/>
			<point x="2.85714" y="1092.71" type="curve"/>
			<point x="2.85714" y="1009.14" type="line"/>
			<point x="24" y="1016.57"/>
			<point x="50.7143" y="1020.86"/>
			<point x="76.4286" y="1020.86" type="curve" smooth="yes"/>
			<point x="144.286" y="1020.86"/>
			<point x="177.286" y="975.429"/>
			<point x="177.286" y="821" type="curve" smooth="yes"/>
			<point x="177.286" y="0" type="line"/>
			<point x="265.286" y="0" type="line"/>
			<point x="276.857" y="223.857" type="line"/>
			<point x="281.714" y="223.857" type="line"/>
			<point x="327.143" y="85.4286"/>
			<point x="445" y="-20.8571"/>
			<point x="645" y="-20.8571" type="curve" smooth="yes"/>
			<point x="934.429" y="-20.8571"/>
			<point x="1097.57" y="178.429"/>
			<point x="1097.57" y="555.143" type="curve" smooth="yes"/>
			<point x="1097.57" y="912.143"/>
			<point x="944.714" y="1108.43"/>
		</contour>
		<contour>
			<point x="639.143" y="1020.86" type="curve" smooth="yes"/>
			<point x="870.857" y="1020.86"/>
			<point x="994" y="861.714"/>
			<point x="994" y="555.429" type="curve" smooth="yes"/>
			<point x="994" y="224.714"/>
			<point x="862.286" y="67.8571"/>
			<point x="624.286" y="67.8571" type="curve" smooth="yes"/>
			<point x="393.571" y="67.8571"/>
			<point x="276.857" y="232.714"/>
			<point x="276.857" y="537.286" type="curve" smooth="yes"/>
			<point x="276.857" y="549.143" type="line" smooth="yes"/>
			<point x="276.857" y="847.429"/>
			<point x="385.286" y="1020.86"/>
		</contour>
	</outline>
	<anchor name="bottom" x="607.714" y="0"/>
	<anchor name="top" x="607.714" y="1088.43"/>
</glyph>
<glyph name="uni0255" format="2">
	<unicode hex="0255"/>
	<advance width="1034"/>
	<outline>
		<contour>
			<point x="657.143" y="1109.29" type="curve" smooth="yes"/>
			<point x="322.857" y="1109.29"/>
			<point x="115.143" y="877.857"/>
			<point x="115.143" y="538.714" type="curve" smooth="yes"/>
			<point x="115.143" y="388.143"/>
			<point x="151.286" y="259.857"/>
			<point x="219.429" y="161.714" type="curve"/>
			<point x="180.857" y="93.5714"/>
			<point x="150.714" y="17.8571"/>
			<point x="129.714" y="-61.5714" type="curve"/>
			<point x="199.429" y="-83.8571" type="line"/>
			<point x="219" y="-14.4286"/>
			<point x="241.571" y="51.4286"/>
			<point x="274" y="107" type="curve"/>
			<point x="354.571" y="29.1429"/>
			<point x="468.857" y="-20"/>
			<point x="624.571" y="-20" type="curve" smooth="yes"/>
			<point x="840.286" y="-20"/>
			<point x="957.429" y="79.4286"/>
			<point x="957.429" y="224.571" type="curve" smooth="yes"/>
			<point x="957.429" y="354.286"/>
			<point x="853.143" y="442.714"/>
			<point x="683.429" y="442.714" type="curve" smooth="yes"/>
			<point x="507" y="442.714"/>
			<point x="371.286" y="359.286"/>
			<point x="291" y="252.857" type="curve"/>
			<point x="241.857" y="330.714"/>
			<point x="220.143" y="433.286"/>
			<point x="220.143" y="543.143" type="curve" smooth="yes"/>
			<point x="220.143" y="825.714"/>
			<point x="387" y="1020.57"/>
			<point x="660" y="1020.57" type="curve" smooth="yes"/>
			<point x="740.714" y="1020.57"/>
			<point x="820.857" y="1005.57"/>
			<point x="904.429" y="968" type="curve"/>
			<point x="927.857" y="1054.71" type="line"/>
			<point x="850.714" y="1088"/>
			<point x="768.857" y="1109.29"/>
		</contour>
		<contour>
			<point x="671.286" y="368.857" type="curve" smooth="yes"/>
			<point x="797.857" y="368.857"/>
			<point x="871.143" y="310.714"/>
			<point x="871.143" y="220.857" type="curve" smooth="yes"/>
			<point x="871.143" y="135.571"/>
			<point x="791.143" y="63.1429"/>
			<point x="629.714" y="63.1429" type="curve" smooth="yes"/>
			<point x="494.143" y="63.1429"/>
			<point x="392.429" y="111.286"/>
			<point x="326.714" y="188.571" type="curve"/>
			<point x="401" y="294.143"/>
			<point x="524.429" y="368.857"/>
		</contour>
	</outline>
	<anchor name="bottom" x="517.143" y="0"/>
	<anchor name="top" x="517.143" y="1088.43"/>
</glyph>
<glyph name="uni0259" format="2">
	<unicode hex="0259"/>
	<advance width="1129"/>
	<outline>
		<contour>
			<point x="512" y="1109.29" type="curve" smooth="yes"/>
			<point x="371.571" y="1109.29"/>
			<point x="269.714" y="1086"/>
			<point x="165.143" y="1039" type="curve"/>
			<point x="165.143" y="951.714" type="line"/>
			<point x="291.857" y="1009.14"/>
			<point x="372.714" y="1025.71"/>
			<point x="505.286" y="1025.71" type="curve" smooth="yes"/>
			<point x="768" y="1025.71"/>
			<point x="911.714" y="855.286"/>
			<point x="909.143" y="556.286" type="curve"/>
			<point x="119.429" y="556.286" type="line"/>
			<point x="119.429" y="486.857" type="line" smooth="yes"/>
			<point x="119.429" y="194"/>
			<point x="249" y="-20"/>
			<point x="532.714" y="-20" type="curve" smooth="yes"/>
			<point x="851.143" y="-20"/>
			<point x="1012.86" y="234.571"/>
			<point x="1012.86" y="554.143" type="curve" smooth="yes"/>
			<point x="1012.86" y="883.571"/>
			<point x="852.286" y="1109.29"/>
		</contour>
		<contour>
			<point x="906.286" y="476.571" type="line"/>
			<point x="883.429" y="204.143"/>
			<point x="740.857" y="61.7143"/>
			<point x="530.571" y="61.7143" type="curve" smooth="yes"/>
			<point x="319.143" y="61.7143"/>
			<point x="215.714" y="230.857"/>
			<point x="217.143" y="476.571" type="curve"/>
		</contour>
	</outline>
	<anchor name="bottom" x="564.429" y="0"/>
	<anchor name="top" x="562.714" y="1088.43"/>
</glyph>
<glyph name="uni025E" format="2">
	<unicode hex="025E"/>
	<advance width="1111"/>
	<outline>
		<contour>
			<point x="620.714" y="1109.29" type="curve" smooth="yes"/>
			<point x="288.571" y="1109.29"/>
			<point x="115.143" y="882"/>
			<point x="115.143" y="535.571" type="curve" smooth="yes"/>
			<point x="115.143" y="186.143"/>
			<point x="271.429" y="-20"/>
			<point x="587.143" y="-20" type="curve" smooth="yes"/>
			<point x="872.714" y="-20"/>
			<point x="1019.43" y="113.714"/>
			<point x="1019.43" y="307.714" type="curve" smooth="yes"/>
			<point x="1019.43" y="460.571"/>
			<point x="934.143" y="541"/>
			<point x="776.286" y="578.286" type="curve"/>
			<point x="776.286" y="582.857" type="line"/>
			<point x="910.714" y="612"/>
			<point x="983.857" y="702.286"/>
			<point x="983.857" y="828" type="curve" smooth="yes"/>
			<point x="983.857" y="1007"/>
			<point x="840.857" y="1109.29"/>
		</contour>
		<contour>
			<point x="625.143" y="1024.57" type="curve" smooth="yes"/>
			<point x="788.857" y="1024.57"/>
			<point x="887" y="943.857"/>
			<point x="887" y="819.714" type="curve" smooth="yes"/>
			<point x="887" y="677.286"/>
			<point x="781.857" y="615.143"/>
			<point x="566.143" y="615.143" type="curve" smooth="yes"/>
			<point x="491.571" y="615.143" type="line"/>
			<point x="491.571" y="536.429" type="line"/>
			<point x="577" y="536.429" type="line" smooth="yes"/>
			<point x="790.429" y="536.429"/>
			<point x="917.571" y="475.714"/>
			<point x="917.571" y="313" type="curve" smooth="yes"/>
			<point x="917.571" y="176.571"/>
			<point x="816.286" y="66.7143"/>
			<point x="594.714" y="66.7143" type="curve" smooth="yes"/>
			<point x="336.429" y="66.7143"/>
			<point x="219.286" y="234"/>
			<point x="219.286" y="535.571" type="curve" smooth="yes"/>
			<point x="219.286" y="829.714"/>
			<point x="345.857" y="1024.57"/>
		</contour>
	</outline>
	<anchor name="bottom" x="556.286" y="0"/>
	<anchor name="top" x="556.286" y="1088.43"/>
</glyph>
<glyph name="uni025F" format="2">
	<unicode hex="025F"/>
	<advance width="463"/>
	<outline>
		<contour>
			<point x="31.7143" y="-492" type="curve" smooth="yes"/>
			<point x="180.571" y="-492"/>
			<point x="282.143" y="-395.571"/>
			<point x="282.143" y="-222.286" type="curve" smooth="yes"/>
			<point x="282.143" y="503.143" type="line"/>
			<point x="456.571" y="503.143" type="line"/>
			<point x="456.571" y="582.857" type="line"/>
			<point x="282.143" y="582.857" type="line"/>
			<point x="282.143" y="1088.43" type="line"/>
			<point x="179.143" y="1088.43" type="line"/>
			<point x="179.143" y="582.857" type="line"/>
			<point x="11.1429" y="582.857" type="line"/>
			<point x="11.1429" y="503.143" type="line"/>
			<point x="179.143" y="503.143" type="line"/>
			<point x="179.143" y="-205.143" type="line" smooth="yes"/>
			<point x="179.143" y="-334.571"/>
			<point x="123.429" y="-402.286"/>
			<point x="20.2857" y="-402.286" type="curve" smooth="yes"/>
			<point x="-23.8571" y="-402.286"/>
			<point x="-66" y="-398"/>
			<point x="-108.143" y="-380.857" type="curve"/>
			<point x="-108.143" y="-470.429" type="line"/>
			<point x="-73.1429" y="-482.714"/>
			<point x="-23.7143" y="-492"/>
		</contour>
	</outline>
	<anchor name="bottom" x="232.571" y="-492"/>
	<anchor name="top" x="232.571" y="1088.43"/>
	<anchor name="topright" x="415.143" y="1086.71"/>
</glyph>
<glyph name="uni0260" format="2">
	<unicode hex="0260"/>
	<advance width="1214"/>
	<outline>
		<contour>
			<point x="1172.57" y="1566.71" type="curve" smooth="yes"/>
			<point x="1034.57" y="1566.71"/>
			<point x="929.714" y="1480.57"/>
			<point x="929.714" y="1303.14" type="curve" smooth="yes"/>
			<point x="929.714" y="1088.29" type="line" smooth="yes"/>
			<point x="929.714" y="1016"/>
			<point x="931.857" y="963.857"/>
			<point x="935.571" y="905" type="curve"/>
			<point x="931" y="905" type="line"/>
			<point x="871.571" y="1020.57"/>
			<point x="768.714" y="1109.29"/>
			<point x="580.286" y="1109.29" type="curve" smooth="yes"/>
			<point x="275.143" y="1109.29"/>
			<point x="115.143" y="890.286"/>
			<point x="115.143" y="530.143" type="curve" smooth="yes"/>
			<point x="115.143" y="171.286"/>
			<point x="279.286" y="-20"/>
			<point x="554.143" y="-20" type="curve" smooth="yes"/>
			<point x="745.143" y="-20"/>
			<point x="877" y="63.2857"/>
			<point x="929.714" y="225" type="curve"/>
			<point x="933.429" y="225" type="line"/>
			<point x="929.429" y="151.143"/>
			<point x="929.714" y="106.714"/>
			<point x="929.714" y="32.2857" type="curve" smooth="yes"/>
			<point x="929.714" y="-43.7143" type="line" smooth="yes"/>
			<point x="929.714" y="-267.714"/>
			<point x="829.286" y="-407.571"/>
			<point x="563.714" y="-407.571" type="curve" smooth="yes"/>
			<point x="410.857" y="-407.571"/>
			<point x="278.714" y="-370.571"/>
			<point x="172.714" y="-321.571" type="curve"/>
			<point x="172.714" y="-417.714" type="line"/>
			<point x="277" y="-460.429"/>
			<point x="396" y="-492"/>
			<point x="560.429" y="-492" type="curve" smooth="yes"/>
			<point x="897.857" y="-492"/>
			<point x="1032.86" y="-312.571"/>
			<point x="1032.86" y="-42.5714" type="curve" smooth="yes"/>
			<point x="1032.86" y="1289.57" type="line" smooth="yes"/>
			<point x="1032.86" y="1407.86"/>
			<point x="1084.71" y="1477.43"/>
			<point x="1185.43" y="1477.43" type="curve" smooth="yes"/>
			<point x="1228.43" y="1477.43"/>
			<point x="1271.14" y="1471.86"/>
			<point x="1309" y="1455.29" type="curve"/>
			<point x="1309" y="1543.43" type="line"/>
			<point x="1277.43" y="1555.43"/>
			<point x="1231.14" y="1566.71"/>
		</contour>
		<contour>
			<point x="599.857" y="1020" type="curve" smooth="yes"/>
			<point x="852.857" y="1020"/>
			<point x="933.857" y="845.143"/>
			<point x="933.857" y="595.286" type="curve" smooth="yes"/>
			<point x="933.857" y="506" type="line" smooth="yes"/>
			<point x="933.857" y="286.857"/>
			<point x="864.429" y="67.5714"/>
			<point x="576.429" y="67.5714" type="curve" smooth="yes"/>
			<point x="345.714" y="67.5714"/>
			<point x="220.143" y="227.857"/>
			<point x="220.143" y="529.571" type="curve" smooth="yes"/>
			<point x="220.143" y="838.429"/>
			<point x="339.143" y="1020"/>
		</contour>
	</outline>
	<anchor name="bottom" x="607.714" y="-492"/>
	<anchor name="top" x="607.714" y="1566.71"/>
</glyph>
<glyph name="uni0262" format="2">
	<unicode hex="0262"/>
	<advance width="1185"/>
	<outline>
		<contour>
			<point x="692.429" y="1112.43" type="curve" smooth="yes"/>
			<point x="319.286" y="1112.43"/>
			<point x="101.143" y="862.429"/>
			<point x="101.143" y="546.429" type="curve" smooth="yes"/>
			<point x="101.143" y="203.857"/>
			<point x="309.143" y="-17"/>
			<point x="669.143" y="-17" type="curve" smooth="yes"/>
			<point x="815.571" y="-17"/>
			<point x="932.143" y="15"/>
			<point x="1035.57" y="58" type="curve"/>
			<point x="1035.57" y="549.714" type="line"/>
			<point x="619.429" y="549.714" type="line"/>
			<point x="619.429" y="469.429" type="line"/>
			<point x="935.714" y="469.429" type="line"/>
			<point x="935.714" y="118.714" type="line"/>
			<point x="868.714" y="94.4286"/>
			<point x="779.857" y="71.8571"/>
			<point x="676.857" y="71.8571" type="curve" smooth="yes"/>
			<point x="370.143" y="71.8571"/>
			<point x="206.714" y="253.571"/>
			<point x="206.714" y="548.143" type="curve" smooth="yes"/>
			<point x="206.714" y="835.143"/>
			<point x="404.857" y="1023.71"/>
			<point x="690.714" y="1023.71" type="curve" smooth="yes"/>
			<point x="810.286" y="1023.71"/>
			<point x="905.714" y="994.143"/>
			<point x="991.143" y="948.857" type="curve"/>
			<point x="1025.71" y="1037" type="line"/>
			<point x="926.714" y="1085"/>
			<point x="819.429" y="1112.43"/>
		</contour>
	</outline>
	<anchor name="bottom" x="593.286" y="0"/>
	<anchor name="top" x="593.286" y="1088.43"/>
	<anchor name="topright" x="1091.29" y="1088.43"/>
</glyph>
<glyph name="uni0263" format="2">
	<unicode hex="0263"/>
	<advance width="936"/>
	<outline>
		<contour>
			<point x="473.429" y="-492" type="curve" smooth="yes"/>
			<point x="606.429" y="-492"/>
			<point x="685" y="-398.857"/>
			<point x="685" y="-267.143" type="curve" smooth="yes"/>
			<point x="685" y="-119.714"/>
			<point x="619.857" y="5.14286"/>
			<point x="537.857" y="169.429" type="curve"/>
			<point x="957" y="1088.43" type="line"/>
			<point x="845.143" y="1088.43" type="line"/>
			<point x="576" y="477.429" type="line" smooth="yes"/>
			<point x="533.571" y="381.571"/>
			<point x="500.143" y="303.714"/>
			<point x="482.714" y="252" type="curve"/>
			<point x="478.286" y="252" type="line"/>
			<point x="456.286" y="303.429"/>
			<point x="420.571" y="389.857"/>
			<point x="381" y="476.143" type="curve"/>
			<point x="111.714" y="1088.43" type="line"/>
			<point x="0" y="1088.43" type="line"/>
			<point x="418.143" y="169.143" type="line"/>
			<point x="334.143" y="3.71429"/>
			<point x="265.143" y="-130"/>
			<point x="265.143" y="-266.571" type="curve" smooth="yes"/>
			<point x="265.143" y="-402.143"/>
			<point x="343" y="-492"/>
		</contour>
		<contour>
			<point x="477.143" y="-411.429" type="curve" smooth="yes"/>
			<point x="401.857" y="-411.429"/>
			<point x="355.571" y="-363"/>
			<point x="355.571" y="-260.429" type="curve" smooth="yes"/>
			<point x="355.571" y="-152"/>
			<point x="412.429" y="-29.4286"/>
			<point x="478.857" y="101.571" type="curve"/>
			<point x="539.286" y="-30.4286"/>
			<point x="595.429" y="-145.857"/>
			<point x="595.429" y="-261" type="curve" smooth="yes"/>
			<point x="595.429" y="-359.571"/>
			<point x="554.429" y="-411.429"/>
		</contour>
	</outline>
	<anchor name="bottom" x="467.571" y="-492"/>
	<anchor name="top" x="467.571" y="1088.43"/>
</glyph>
<glyph name="uni0268" format="2">
	<unicode hex="0268"/>
	<advance width="459"/>
	<outline>
		<contour>
			<point x="442" y="616.286" type="line"/>
			<point x="15.7143" y="616.286" type="line"/>
			<point x="15.7143" y="537.143" type="line"/>
			<point x="442" y="537.143" type="line"/>
		</contour>
		<contour>
			<point x="279.429" y="1088.43" type="line"/>
			<point x="177.286" y="1088.43" type="line"/>
			<point x="177.286" y="0" type="line"/>
			<point x="279.429" y="0" type="line"/>
		</contour>
		<contour>
			<point x="228.571" y="1493" type="curve" smooth="yes"/>
			<point x="177" y="1493"/>
			<point x="155.286" y="1461.43"/>
			<point x="155.286" y="1413.29" type="curve" smooth="yes"/>
			<point x="155.286" y="1364"/>
			<point x="177" y="1334.71"/>
			<point x="228.571" y="1334.71" type="curve" smooth="yes"/>
			<point x="286.571" y="1334.71"/>
			<point x="305.571" y="1364"/>
			<point x="305.571" y="1413.29" type="curve" smooth="yes"/>
			<point x="305.571" y="1461.43"/>
			<point x="286.571" y="1493"/>
		</contour>
	</outline>
	<anchor name="bottom" x="231.143" y="0"/>
	<anchor name="top" x="230.286" y="1493"/>
</glyph>
<glyph name="uni026B" format="2">
	<unicode hex="026B"/>
	<advance width="518"/>
	<outline>
		<contour>
			<point x="208.286" y="0" type="line"/>
			<point x="311.571" y="0" type="line"/>
			<point x="311.571" y="725.714" type="line"/>
			<point x="339.571" y="704.286"/>
			<point x="372" y="688.857"/>
			<point x="414.857" y="688.857" type="curve" smooth="yes"/>
			<point x="525.286" y="688.857"/>
			<point x="605.714" y="764.857"/>
			<point x="614.286" y="910.857" type="curve"/>
			<point x="544.571" y="910.857" type="line"/>
			<point x="531.714" y="795.143"/>
			<point x="476.143" y="766.714"/>
			<point x="418.286" y="766.714" type="curve" smooth="yes"/>
			<point x="376.571" y="766.714"/>
			<point x="343.429" y="790.714"/>
			<point x="311.571" y="817.286" type="curve"/>
			<point x="311.571" y="1556" type="line"/>
			<point x="208.286" y="1556" type="line"/>
			<point x="208.286" y="867.857" type="line"/>
			<point x="178.286" y="891"/>
			<point x="144" y="909.857"/>
			<point x="98.5714" y="909.857" type="curve" smooth="yes"/>
			<point x="-12.8571" y="909.857"/>
			<point x="-87.2857" y="838.429"/>
			<point x="-96.1429" y="690.286" type="curve"/>
			<point x="-26" y="690.286" type="line"/>
			<point x="-14" y="802.143"/>
			<point x="40.5714" y="831.714"/>
			<point x="94.1429" y="831.714" type="curve" smooth="yes"/>
			<point x="141.714" y="831.714"/>
			<point x="173.429" y="805.143"/>
			<point x="208.286" y="777.714" type="curve"/>
		</contour>
	</outline>
	<anchor name="bottom" x="260.143" y="0"/>
	<anchor name="top" x="260.143" y="1556"/>
</glyph>
<glyph name="uni026E" format="2">
	<unicode hex="026E"/>
	<advance width="1219"/>
	<outline>
		<contour>
			<point x="660.286" y="-492" type="curve" smooth="yes"/>
			<point x="978.714" y="-492"/>
			<point x="1153.14" y="-298.571"/>
			<point x="1153.14" y="-14.5714" type="curve" smooth="yes"/>
			<point x="1153.14" y="254.429"/>
			<point x="990" y="413.143"/>
			<point x="583.286" y="416.857" type="curve"/>
			<point x="1121.86" y="1018.71" type="line"/>
			<point x="1121.86" y="1088.43" type="line"/>
			<point x="283.857" y="1088.43" type="line"/>
			<point x="283.857" y="1556" type="line"/>
			<point x="180.857" y="1556" type="line"/>
			<point x="180.857" y="0" type="line"/>
			<point x="283.857" y="0" type="line"/>
			<point x="283.857" y="1002" type="line"/>
			<point x="977.857" y="1002" type="line"/>
			<point x="459" y="410.571" type="line"/>
			<point x="459" y="336.286" type="line"/>
			<point x="545.143" y="336.286" type="line" smooth="yes"/>
			<point x="904.429" y="336.286"/>
			<point x="1049.14" y="217.714"/>
			<point x="1049.14" y="-19" type="curve" smooth="yes"/>
			<point x="1049.14" y="-248.286"/>
			<point x="911.286" y="-402.857"/>
			<point x="658" y="-402.857" type="curve" smooth="yes"/>
			<point x="526" y="-402.857"/>
			<point x="408.286" y="-372.714"/>
			<point x="305.571" y="-324" type="curve"/>
			<point x="305.571" y="-424.286" type="line"/>
			<point x="406.857" y="-466.429"/>
			<point x="512.714" y="-492"/>
		</contour>
	</outline>
	<anchor name="bottom" x="616" y="-492"/>
	<anchor name="top" x="616" y="1556"/>
</glyph>
<glyph name="uni0270" format="2">
	<unicode hex="0270"/>
	<advance width="1796"/>
	<outline>
		<contour>
			<point x="1513.71" y="-492" type="line"/>
			<point x="1616.86" y="-492" type="line"/>
			<point x="1616.86" y="1088.43" type="line"/>
			<point x="1513.71" y="1088.43" type="line"/>
			<point x="1513.71" y="447.857" type="line" smooth="yes"/>
			<point x="1513.71" y="181.714"/>
			<point x="1372.86" y="68.4286"/>
			<point x="1188.57" y="68.4286" type="curve" smooth="yes"/>
			<point x="1048" y="68.4286"/>
			<point x="941.857" y="159.857"/>
			<point x="941.857" y="369.143" type="curve" smooth="yes"/>
			<point x="941.857" y="1088.43" type="line"/>
			<point x="839.714" y="1088.43" type="line"/>
			<point x="839.714" y="442.857" type="line" smooth="yes"/>
			<point x="839.714" y="179.714"/>
			<point x="708.714" y="68.4286"/>
			<point x="513.714" y="68.4286" type="curve" smooth="yes"/>
			<point x="373.429" y="68.4286"/>
			<point x="267.286" y="159.857"/>
			<point x="267.286" y="367.143" type="curve" smooth="yes"/>
			<point x="267.286" y="1088.43" type="line"/>
			<point x="164.714" y="1088.43" type="line"/>
			<point x="164.714" y="349.571" type="line" smooth="yes"/>
			<point x="164.714" y="95.1429"/>
			<point x="300.143" y="-20"/>
			<point x="495.286" y="-20" type="curve" smooth="yes"/>
			<point x="669.143" y="-20"/>
			<point x="797.571" y="53.1429"/>
			<point x="852.286" y="191" type="curve"/>
			<point x="861" y="191" type="line"/>
			<point x="909.286" y="50.7143"/>
			<point x="1024.43" y="-20"/>
			<point x="1169.86" y="-20" type="curve" smooth="yes"/>
			<point x="1367.14" y="-20"/>
			<point x="1462.71" y="81.2857"/>
			<point x="1510.29" y="183.571" type="curve"/>
			<point x="1516.14" y="183.571" type="line"/>
			<point x="1515.29" y="129.143"/>
			<point x="1513.71" y="67.4286"/>
			<point x="1513.71" y="10.7143" type="curve" smooth="yes"/>
		</contour>
	</outline>
	<anchor name="bottom" x="897.857" y="-492"/>
	<anchor name="top" x="897.857" y="1088.43"/>
</glyph>
<glyph name="uni0271" format="2">
	<unicode hex="0271"/>
	<advance width="1796"/>
	<outline>
		<contour>
			<point x="1300.14" y="1109.29" type="curve" smooth="yes"/>
			<point x="1127.14" y="1109.29"/>
			<point x="1002.14" y="1033.14"/>
			<point x="943.571" y="899.857" type="curve"/>
			<point x="929.714" y="899.857" type="line"/>
			<point x="883.571" y="1040.86"/>
			<point x="771.714" y="1109.29"/>
			<point x="626" y="1109.29" type="curve" smooth="yes"/>
			<point x="428.714" y="1109.29"/>
			<point x="327.429" y="1002.57"/>
			<point x="280.286" y="900.143" type="curve"/>
			<point x="274" y="900.143" type="line"/>
			<point x="259" y="1088.43" type="line"/>
			<point x="179.143" y="1088.43" type="line"/>
			<point x="179.143" y="0" type="line"/>
			<point x="282.143" y="0" type="line"/>
			<point x="282.143" y="641.429" type="line" smooth="yes"/>
			<point x="282.143" y="906.714"/>
			<point x="423.143" y="1020.86"/>
			<point x="607.571" y="1020.86" type="curve" smooth="yes"/>
			<point x="748.143" y="1020.86"/>
			<point x="854" y="928.286"/>
			<point x="854" y="719.143" type="curve" smooth="yes"/>
			<point x="854" y="0" type="line"/>
			<point x="956.143" y="0" type="line"/>
			<point x="956.143" y="646" type="line" smooth="yes"/>
			<point x="956.143" y="908.714"/>
			<point x="1087.43" y="1020.86"/>
			<point x="1281.29" y="1020.86" type="curve" smooth="yes"/>
			<point x="1422.86" y="1020.86"/>
			<point x="1529" y="928.286"/>
			<point x="1529" y="721.286" type="curve" smooth="yes"/>
			<point x="1529" y="-208.429" type="line" smooth="yes"/>
			<point x="1529" y="-335.429"/>
			<point x="1474.43" y="-402.286"/>
			<point x="1374.57" y="-402.286" type="curve" smooth="yes"/>
			<point x="1333.29" y="-402.286"/>
			<point x="1292.29" y="-398"/>
			<point x="1251" y="-380.857" type="curve"/>
			<point x="1251" y="-470.143" type="line"/>
			<point x="1286" y="-482.429"/>
			<point x="1334.43" y="-492"/>
			<point x="1388.57" y="-492" type="curve" smooth="yes"/>
			<point x="1531.86" y="-492"/>
			<point x="1631.14" y="-396.714"/>
			<point x="1631.14" y="-224.857" type="curve" smooth="yes"/>
			<point x="1631.14" y="738.714" type="line" smooth="yes"/>
			<point x="1631.14" y="992.857"/>
			<point x="1495.86" y="1109.29"/>
		</contour>
	</outline>
	<anchor name="bottom" x="897.857" y="-492"/>
	<anchor name="top" x="897.857" y="1088.43"/>
	<anchor name="topright" x="1743.14" y="1088.43"/>
</glyph>
<glyph name="uni0272" format="2">
	<unicode hex="0272"/>
	<advance width="1207"/>
	<outline>
		<contour>
			<point x="664.286" y="1109.29" type="curve" smooth="yes"/>
			<point x="449.857" y="1109.29"/>
			<point x="330.857" y="997.429"/>
			<point x="280.286" y="873.571" type="curve"/>
			<point x="274" y="873.571" type="line"/>
			<point x="259" y="1088.43" type="line"/>
			<point x="179.143" y="1088.43" type="line"/>
			<point x="179.143" y="-218.286" type="line" smooth="yes"/>
			<point x="179.143" y="-333.286"/>
			<point x="128.714" y="-402.571"/>
			<point x="28.7143" y="-402.571" type="curve" smooth="yes"/>
			<point x="-12.5714" y="-402.571"/>
			<point x="-52.8571" y="-398"/>
			<point x="-93.5714" y="-380.857" type="curve"/>
			<point x="-93.5714" y="-468.714" type="line"/>
			<point x="-59.4286" y="-483"/>
			<point x="-12.8571" y="-492"/>
			<point x="42.2857" y="-492" type="curve" smooth="yes"/>
			<point x="184.714" y="-492"/>
			<point x="282.143" y="-396.714"/>
			<point x="282.143" y="-224.857" type="curve" smooth="yes"/>
			<point x="282.143" y="600.286" type="line" smooth="yes"/>
			<point x="282.143" y="884.143"/>
			<point x="423.429" y="1020.86"/>
			<point x="646.714" y="1020.86" type="curve" smooth="yes"/>
			<point x="829.857" y="1020.86"/>
			<point x="935.714" y="920"/>
			<point x="935.714" y="696.143" type="curve" smooth="yes"/>
			<point x="935.714" y="0" type="line"/>
			<point x="1038.29" y="0" type="line"/>
			<point x="1038.29" y="713" type="line" smooth="yes"/>
			<point x="1038.29" y="985.143"/>
			<point x="897.571" y="1109.29"/>
		</contour>
	</outline>
	<anchor name="bottom" x="604.714" y="-492"/>
	<anchor name="top" x="604.714" y="1088.43"/>
	<anchor name="topright" x="1157.29" y="1088.43"/>
</glyph>
<glyph name="uni0273" format="2">
	<unicode hex="0273"/>
	<advance width="1207"/>
	<outline>
		<contour>
			<point x="1038.29" y="-172.571" type="curve" smooth="yes"/>
			<point x="1038.29" y="713" type="line" smooth="yes"/>
			<point x="1038.29" y="985.143"/>
			<point x="897.571" y="1109.29"/>
			<point x="664.286" y="1109.29" type="curve" smooth="yes"/>
			<point x="449.857" y="1109.29"/>
			<point x="330.857" y="997.429"/>
			<point x="280.286" y="873.571" type="curve"/>
			<point x="274" y="873.571" type="line"/>
			<point x="259" y="1088.43" type="line"/>
			<point x="179.143" y="1088.43" type="line"/>
			<point x="179.143" y="0" type="line"/>
			<point x="282.143" y="0" type="line"/>
			<point x="282.143" y="600.286" type="line" smooth="yes"/>
			<point x="282.143" y="884.143"/>
			<point x="423.429" y="1020.86"/>
			<point x="646.714" y="1020.86" type="curve" smooth="yes"/>
			<point x="829.857" y="1020.86"/>
			<point x="935.714" y="920"/>
			<point x="935.714" y="696.143" type="curve" smooth="yes"/>
			<point x="935.714" y="-185.714" type="line" smooth="yes"/>
			<point x="935.714" y="-380.857"/>
			<point x="1029.14" y="-486"/>
			<point x="1213.57" y="-486" type="curve" smooth="yes"/>
			<point x="1267.29" y="-486"/>
			<point x="1322.43" y="-476.143"/>
			<point x="1351.71" y="-463.571" type="curve"/>
			<point x="1351.71" y="-377.429" type="line"/>
			<point x="1323.57" y="-387.714"/>
			<point x="1285.29" y="-397.429"/>
			<point x="1230.86" y="-397.429" type="curve" smooth="yes"/>
			<point x="1113.43" y="-397.429"/>
			<point x="1038.29" y="-335"/>
		</contour>
	</outline>
	<anchor name="bottom" x="604.714" y="-486"/>
	<anchor name="top" x="604.714" y="1088.43"/>
	<anchor name="topright" x="1157.29" y="1088.43"/>
</glyph>
<glyph name="uni0274" format="2">
	<unicode hex="0274"/>
	<advance width="1205"/>
	<outline>
		<contour>
			<point x="166.143" y="0" type="line"/>
			<point x="265.143" y="0" type="line"/>
			<point x="265.143" y="746.857" type="line" smooth="yes"/>
			<point x="265.143" y="807.571"/>
			<point x="264.857" y="882.286"/>
			<point x="262" y="960.571" type="curve"/>
			<point x="953.571" y="0" type="line"/>
			<point x="1060.29" y="0" type="line"/>
			<point x="1060.29" y="1103" type="line"/>
			<point x="960.857" y="1103" type="line"/>
			<point x="960.857" y="378.714" type="line" smooth="yes"/>
			<point x="960.857" y="301.571"/>
			<point x="961.429" y="232.571"/>
			<point x="964.571" y="144.286" type="curve"/>
			<point x="274" y="1103" type="line"/>
			<point x="166.143" y="1103" type="line"/>
		</contour>
	</outline>
	<anchor name="bottom" x="602.286" y="0"/>
	<anchor name="top" x="602.286" y="1088.43"/>
	<anchor name="topright" x="1179.71" y="1088.43"/>
</glyph>
<glyph name="omegaclosed" format="2">
	<unicode hex="0277"/>
	<advance width="1487"/>
	<outline>
		<contour>
			<point x="743.286" y="1108.43" type="curve" smooth="yes"/>
			<point x="350.714" y="1108.43"/>
			<point x="113.143" y="887.571"/>
			<point x="113.143" y="485.286" type="curve" smooth="yes"/>
			<point x="113.143" y="156.571"/>
			<point x="247.714" y="-20"/>
			<point x="466.286" y="-20" type="curve" smooth="yes"/>
			<point x="611.286" y="-20"/>
			<point x="708.429" y="63.4286"/>
			<point x="739.714" y="188.286" type="curve"/>
			<point x="745" y="188.286" type="line"/>
			<point x="777" y="64.5714"/>
			<point x="860.286" y="-20"/>
			<point x="1015.71" y="-20" type="curve" smooth="yes"/>
			<point x="1283.57" y="-20"/>
			<point x="1373.29" y="226.857"/>
			<point x="1373.29" y="485.286" type="curve" smooth="yes"/>
			<point x="1373.29" y="881.429"/>
			<point x="1134.14" y="1108.43"/>
		</contour>
		<contour>
			<point x="742" y="1017.29" type="curve" smooth="yes"/>
			<point x="1075.43" y="1017.29"/>
			<point x="1273.43" y="843.714"/>
			<point x="1273.43" y="484.429" type="curve" smooth="yes"/>
			<point x="1273.43" y="229.143"/>
			<point x="1189.86" y="67.5714"/>
			<point x="1007.29" y="67.5714" type="curve" smooth="yes"/>
			<point x="857" y="67.5714"/>
			<point x="792.429" y="172.286"/>
			<point x="792.429" y="365.286" type="curve" smooth="yes"/>
			<point x="792.429" y="687.714" type="line"/>
			<point x="695.714" y="687.714" type="line"/>
			<point x="695.714" y="366.429" type="line" smooth="yes"/>
			<point x="695.714" y="172.286"/>
			<point x="622.857" y="67.5714"/>
			<point x="478.143" y="67.5714" type="curve" smooth="yes"/>
			<point x="304.714" y="67.5714"/>
			<point x="212.857" y="212.857"/>
			<point x="212.857" y="485.286" type="curve" smooth="yes"/>
			<point x="212.857" y="846.571"/>
			<point x="403.286" y="1017.29"/>
		</contour>
	</outline>
	<anchor name="bottom" x="744.286" y="0"/>
	<anchor name="top" x="744.286" y="1088.43"/>
</glyph>
<glyph name="uni0278" format="2">
	<unicode hex="0278"/>
	<advance width="1372"/>
	<outline>
		<contour>
			<point x="734.429" y="1556" type="line"/>
			<point x="636" y="1556" type="line"/>
			<point x="636" y="1103" type="line"/>
			<point x="297.143" y="1084.57"/>
			<point x="114.286" y="872.714"/>
			<point x="114.286" y="546.143" type="curve" smooth="yes"/>
			<point x="114.286" y="217.714"/>
			<point x="298.429" y="1"/>
			<point x="636.714" y="-13.7143" type="curve"/>
			<point x="636.714" y="-492" type="line"/>
			<point x="734.429" y="-492" type="line"/>
			<point x="734.429" y="-13.7143" type="line"/>
			<point x="1072.14" y="7"/>
			<point x="1256" y="236"/>
			<point x="1256" y="546.143" type="curve" smooth="yes"/>
			<point x="1256" y="875.429"/>
			<point x="1073.29" y="1084.86"/>
			<point x="734.429" y="1103" type="curve"/>
		</contour>
		<contour>
			<point x="636" y="1017.71" type="curve"/>
			<point x="636" y="71.5714" type="line"/>
			<point x="369.286" y="79"/>
			<point x="216.714" y="256.571"/>
			<point x="216.714" y="546.143" type="curve" smooth="yes"/>
			<point x="216.714" y="824.143"/>
			<point x="369.429" y="1007.71"/>
		</contour>
		<contour>
			<point x="734.429" y="1017.71" type="line"/>
			<point x="1005.14" y="1006"/>
			<point x="1152.29" y="829.571"/>
			<point x="1152.29" y="546.143" type="curve" smooth="yes"/>
			<point x="1152.29" y="276"/>
			<point x="997.429" y="82.4286"/>
			<point x="734.429" y="71.5714" type="curve"/>
		</contour>
	</outline>
	<anchor name="bottom" x="686.429" y="-492"/>
	<anchor name="top" x="686.429" y="1556"/>
</glyph>
<glyph name="uni0279" format="2">
	<unicode hex="0279"/>
	<advance width="796"/>
	<outline>
		<contour>
			<point x="190.857" y="-17.4286" type="curve" smooth="yes"/>
			<point x="358.429" y="-17.4286"/>
			<point x="472" y="80.2857"/>
			<point x="514.143" y="203.286" type="curve"/>
			<point x="520.286" y="203.286" type="line"/>
			<point x="532.429" y="0" type="line"/>
			<point x="616.857" y="0" type="line"/>
			<point x="616.857" y="1088.43" type="line"/>
			<point x="514.714" y="1088.43" type="line"/>
			<point x="514.714" y="487.714" type="line" smooth="yes"/>
			<point x="514.714" y="227.857"/>
			<point x="406.429" y="79"/>
			<point x="197.857" y="79" type="curve" smooth="yes"/>
			<point x="134.429" y="79"/>
			<point x="94.2857" y="85.8571"/>
			<point x="46.8571" y="98.7143" type="curve"/>
			<point x="31.5714" y="4" type="line"/>
			<point x="76.8571" y="-9.42857"/>
			<point x="128.143" y="-17.4286"/>
		</contour>
	</outline>
	<anchor name="bottom" x="398.714" y="0"/>
	<anchor name="top" x="398.714" y="1088.43"/>
</glyph>
<glyph name="rlongleg" format="2">
	<unicode hex="027C"/>
	<advance width="796"/>
	<outline>
		<contour>
			<point x="604.714" y="1105.86" type="curve" smooth="yes"/>
			<point x="437.143" y="1105.86"/>
			<point x="323.571" y="1008.14"/>
			<point x="281.429" y="885.143" type="curve"/>
			<point x="275.286" y="885.143" type="line"/>
			<point x="263.143" y="1088.43" type="line"/>
			<point x="178.714" y="1088.43" type="line"/>
			<point x="178.714" y="-492" type="line"/>
			<point x="280.857" y="-492" type="line"/>
			<point x="280.857" y="600.714" type="line" smooth="yes"/>
			<point x="280.857" y="860.571"/>
			<point x="389.143" y="1009.43"/>
			<point x="597.714" y="1009.43" type="curve" smooth="yes"/>
			<point x="661.143" y="1009.43"/>
			<point x="701.286" y="1002.57"/>
			<point x="748.714" y="989.714" type="curve"/>
			<point x="764" y="1084.43" type="line"/>
			<point x="718.714" y="1097.86"/>
			<point x="667.429" y="1105.86"/>
		</contour>
	</outline>
	<anchor name="bottom" x="398.714" y="-492"/>
	<anchor name="top" x="398.714" y="1088.43"/>
</glyph>
<glyph name="uni027D" format="2">
	<unicode hex="027D"/>
	<advance width="800"/>
	<outline>
		<contour>
			<point x="608" y="1105.86" type="curve" smooth="yes"/>
			<point x="438" y="1105.86"/>
			<point x="326" y="1006.14"/>
			<point x="284.286" y="884.571" type="curve"/>
			<point x="278.286" y="884.571" type="line"/>
			<point x="266" y="1088.43" type="line"/>
			<point x="180.857" y="1088.43" type="line"/>
			<point x="180.857" y="-187.143" type="line" smooth="yes"/>
			<point x="180.857" y="-380.286"/>
			<point x="274.857" y="-486"/>
			<point x="457.429" y="-486" type="curve" smooth="yes"/>
			<point x="511.714" y="-486"/>
			<point x="566" y="-476.143"/>
			<point x="595.286" y="-463.571" type="curve"/>
			<point x="595.286" y="-377.429" type="line"/>
			<point x="567.143" y="-387.714"/>
			<point x="528.571" y="-397.429"/>
			<point x="474.714" y="-397.429" type="curve" smooth="yes"/>
			<point x="358.857" y="-397.429"/>
			<point x="283.857" y="-335"/>
			<point x="283.857" y="-173.714" type="curve" smooth="yes"/>
			<point x="283.857" y="600.429" type="line" smooth="yes"/>
			<point x="283.857" y="860.571"/>
			<point x="394.714" y="1008.86"/>
			<point x="605.857" y="1008.86" type="curve" smooth="yes"/>
			<point x="664.286" y="1008.86"/>
			<point x="705" y="1002.57"/>
			<point x="751.143" y="990" type="curve"/>
			<point x="764.857" y="1085.29" type="line"/>
			<point x="721.429" y="1098.43"/>
			<point x="668" y="1105.86"/>
		</contour>
	</outline>
	<anchor name="bottom" x="400.857" y="-486"/>
	<anchor name="top" x="400.857" y="1088.43"/>
</glyph>
<glyph name="rfishhookreversed" format="2">
	<unicode hex="027F"/>
	<advance width="699"/>
	<outline>
		<contour>
			<point x="222.143" y="1110.14" type="curve" smooth="yes"/>
			<point x="129.571" y="1110.14"/>
			<point x="63.2857" y="1090.71"/>
			<point x="28.4286" y="1077.14" type="curve"/>
			<point x="43.4286" y="987.857" type="line"/>
			<point x="79.2857" y="1004.71"/>
			<point x="135.429" y="1018.14"/>
			<point x="197" y="1018.14" type="curve" smooth="yes"/>
			<point x="367.571" y="1018.14"/>
			<point x="432" y="925.143"/>
			<point x="432" y="735.429" type="curve" smooth="yes"/>
			<point x="432" y="-492" type="line"/>
			<point x="534.143" y="-492" type="line"/>
			<point x="534.143" y="751.286" type="line" smooth="yes"/>
			<point x="534.143" y="980"/>
			<point x="438" y="1110.14"/>
		</contour>
	</outline>
	<anchor name="bottom" x="350.571" y="-492"/>
	<anchor name="top" x="350.571" y="1088.43"/>
</glyph>
<glyph name="uni0284" format="2">
	<unicode hex="0284"/>
	<advance width="455"/>
	<outline>
		<contour>
			<point x="9.14286" y="-492" type="curve" smooth="yes"/>
			<point x="192.143" y="-492"/>
			<point x="271.571" y="-370.143"/>
			<point x="271.571" y="-182.857" type="curve" smooth="yes"/>
			<point x="271.571" y="566.714" type="line"/>
			<point x="466.143" y="566.714" type="line"/>
			<point x="466.143" y="652.571" type="line"/>
			<point x="271.571" y="652.571" type="line"/>
			<point x="271.571" y="1259.43" type="line" smooth="yes"/>
			<point x="271.571" y="1406.71"/>
			<point x="336.857" y="1475.71"/>
			<point x="453.857" y="1475.71" type="curve" smooth="yes"/>
			<point x="491.714" y="1475.71"/>
			<point x="520.714" y="1470.14"/>
			<point x="541.429" y="1465.57" type="curve"/>
			<point x="541.429" y="1551.71" type="line"/>
			<point x="521" y="1558"/>
			<point x="483.571" y="1565"/>
			<point x="443" y="1565" type="curve" smooth="yes"/>
			<point x="265.286" y="1565"/>
			<point x="169.429" y="1458"/>
			<point x="169.429" y="1266.86" type="curve" smooth="yes"/>
			<point x="169.429" y="652.571" type="line"/>
			<point x="-13.7143" y="652.571" type="line"/>
			<point x="-13.7143" y="566.714" type="line"/>
			<point x="169.429" y="566.714" type="line"/>
			<point x="169.429" y="-177.143" type="line" smooth="yes"/>
			<point x="169.429" y="-325.571"/>
			<point x="113.857" y="-402.571"/>
			<point x="-4" y="-402.571" type="curve" smooth="yes"/>
			<point x="-54.7143" y="-402.571"/>
			<point x="-89.1429" y="-394.571"/>
			<point x="-125" y="-382.571" type="curve"/>
			<point x="-125" y="-470.429" type="line"/>
			<point x="-92.2857" y="-484.714"/>
			<point x="-49.1429" y="-492"/>
		</contour>
	</outline>
	<anchor name="bottom" x="227.429" y="-492"/>
	<anchor name="top" x="227.429" y="1565"/>
</glyph>
<glyph name="uni028B" format="2">
	<unicode hex="028B"/>
	<advance width="1137"/>
	<outline>
		<contour>
			<point x="727" y="1122.14" type="curve" smooth="yes"/>
			<point x="673.857" y="1122.14"/>
			<point x="636.143" y="1115.29"/>
			<point x="607.286" y="1106.29" type="curve"/>
			<point x="607.286" y="1020.14" type="line"/>
			<point x="632" y="1027.29"/>
			<point x="660.429" y="1034"/>
			<point x="706.571" y="1034" type="curve" smooth="yes"/>
			<point x="812.429" y="1034"/>
			<point x="872.286" y="966.143"/>
			<point x="872.286" y="822.286" type="curve" smooth="yes"/>
			<point x="872.286" y="368.429" type="line" smooth="yes"/>
			<point x="872.286" y="170.143"/>
			<point x="775.571" y="68.7143"/>
			<point x="573.143" y="68.7143" type="curve" smooth="yes"/>
			<point x="375.143" y="68.7143"/>
			<point x="267.286" y="171.857"/>
			<point x="267.286" y="368.429" type="curve" smooth="yes"/>
			<point x="267.286" y="1088.43" type="line"/>
			<point x="164.714" y="1088.43" type="line"/>
			<point x="164.714" y="365.286" type="line" smooth="yes"/>
			<point x="164.714" y="126.571"/>
			<point x="291.143" y="-20"/>
			<point x="570.429" y="-20" type="curve" smooth="yes"/>
			<point x="853.143" y="-20"/>
			<point x="974.429" y="134.286"/>
			<point x="974.429" y="365.286" type="curve" smooth="yes"/>
			<point x="974.429" y="841.714" type="line" smooth="yes"/>
			<point x="974.429" y="1013.86"/>
			<point x="893.571" y="1122.14"/>
		</contour>
	</outline>
	<anchor name="bottom" x="622.143" y="0"/>
	<anchor name="top" x="622.143" y="1088.43"/>
</glyph>
<glyph name="glottalturned" format="2">
	<unicode hex="0296"/>
	<advance width="846"/>
	<outline>
		<contour>
			<point x="379.286" y="-20" type="curve" smooth="yes"/>
			<point x="638.857" y="-20"/>
			<point x="798.286" y="138.429"/>
			<point x="798.286" y="387.143" type="curve" smooth="yes"/>
			<point x="798.286" y="688.429"/>
			<point x="598.286" y="805"/>
			<point x="407.571" y="889.714" type="curve"/>
			<point x="407.571" y="1543.43" type="line"/>
			<point x="303.714" y="1543.43" type="line"/>
			<point x="303.714" y="837.714" type="line"/>
			<point x="518.714" y="753.143"/>
			<point x="693.429" y="648.571"/>
			<point x="693.429" y="390.857" type="curve" smooth="yes"/>
			<point x="693.429" y="183.429"/>
			<point x="569.714" y="69"/>
			<point x="376" y="69" type="curve" smooth="yes"/>
			<point x="233.286" y="69"/>
			<point x="127.429" y="116.429"/>
			<point x="53.2857" y="153.571" type="curve"/>
			<point x="15.1429" y="73" type="line"/>
			<point x="114.143" y="20.1429"/>
			<point x="219.429" y="-20"/>
		</contour>
	</outline>
	<anchor name="bottom" x="424.571" y="0"/>
	<anchor name="top" x="424.571" y="1543.43"/>
</glyph>
<glyph name="cstretched" format="2">
	<unicode hex="0297"/>
	<advance width="997"/>
	<outline>
		<contour>
			<point x="630.571" y="-489.429" type="curve" smooth="yes"/>
			<point x="748" y="-489.429"/>
			<point x="837.857" y="-466.714"/>
			<point x="905.857" y="-435" type="curve"/>
			<point x="905.857" y="-343.286" type="line"/>
			<point x="835.286" y="-375.286"/>
			<point x="754.429" y="-400.286"/>
			<point x="647.714" y="-400.286" type="curve" smooth="yes"/>
			<point x="399.857" y="-400.286"/>
			<point x="220.143" y="-233.429"/>
			<point x="220.143" y="325.286" type="curve" smooth="yes"/>
			<point x="220.143" y="824.143"/>
			<point x="404.143" y="1020.57"/>
			<point x="660.571" y="1020.57" type="curve" smooth="yes"/>
			<point x="752.857" y="1020.57"/>
			<point x="823.571" y="1001.29"/>
			<point x="897" y="972.857" type="curve"/>
			<point x="922.571" y="1061.57" type="line"/>
			<point x="860.286" y="1086.86"/>
			<point x="776.143" y="1109.29"/>
			<point x="653.571" y="1109.29" type="curve" smooth="yes"/>
			<point x="344.714" y="1109.29"/>
			<point x="115.143" y="890.429"/>
			<point x="115.143" y="324.714" type="curve" smooth="yes"/>
			<point x="115.143" y="-290.286"/>
			<point x="328.286" y="-489.429"/>
		</contour>
	</outline>
	<anchor name="bottom" x="499.571" y="-489.429"/>
	<anchor name="top" x="499.571" y="1088.43"/>
</glyph>
<glyph name="uni0299" format="2">
	<unicode hex="0299"/>
	<advance width="1167"/>
	<outline>
		<contour>
			<point x="990.286" y="825.429" type="curve" smooth="yes"/>
			<point x="990.286" y="981.143"/>
			<point x="893.429" y="1088.43"/>
			<point x="636.286" y="1088.43" type="curve" smooth="yes"/>
			<point x="178.714" y="1088.43" type="line"/>
			<point x="178.714" y="0" type="line"/>
			<point x="651.429" y="0" type="line" smooth="yes"/>
			<point x="918.286" y="0"/>
			<point x="1036.43" y="117.143"/>
			<point x="1036.43" y="304.286" type="curve" smooth="yes"/>
			<point x="1036.43" y="460.429"/>
			<point x="953.143" y="551.571"/>
			<point x="805" y="574.857" type="curve"/>
			<point x="805" y="580.286" type="line"/>
			<point x="919.429" y="607.714"/>
			<point x="990.286" y="691"/>
		</contour>
		<contour>
			<point x="931.571" y="309.714" type="curve" smooth="yes"/>
			<point x="931.571" y="158.429"/>
			<point x="838.286" y="80.2857"/>
			<point x="636" y="80.2857" type="curve" smooth="yes"/>
			<point x="280.857" y="80.2857" type="line"/>
			<point x="280.857" y="534.714" type="line"/>
			<point x="629.714" y="534.714" type="line" smooth="yes"/>
			<point x="831.286" y="534.714"/>
			<point x="931.571" y="467.143"/>
		</contour>
		<contour>
			<point x="887.571" y="818" type="curve" smooth="yes"/>
			<point x="887.571" y="685.286"/>
			<point x="811.429" y="613.571"/>
			<point x="628.286" y="613.571" type="curve" smooth="yes"/>
			<point x="280.857" y="613.571" type="line"/>
			<point x="280.857" y="1008.14" type="line"/>
			<point x="627.714" y="1008.14" type="line" smooth="yes"/>
			<point x="816.857" y="1008.14"/>
			<point x="887.571" y="931.714"/>
		</contour>
	</outline>
	<anchor name="bottom" x="583.286" y="0"/>
	<anchor name="top" x="583.286" y="1088.43"/>
</glyph>
<glyph name="uni029B" format="2">
	<unicode hex="029B"/>
	<advance width="1190"/>
	<outline>
		<contour>
			<point x="1171.43" y="1571.86" type="curve" smooth="yes"/>
			<point x="1023.86" y="1571.86"/>
			<point x="934.714" y="1487.43"/>
			<point x="934.714" y="1305.43" type="curve" smooth="yes"/>
			<point x="934.714" y="1069.57" type="line"/>
			<point x="864" y="1095.57"/>
			<point x="783.571" y="1112.43"/>
			<point x="692.429" y="1112.43" type="curve" smooth="yes"/>
			<point x="319.286" y="1112.43"/>
			<point x="101.143" y="861.286"/>
			<point x="101.143" y="545.286" type="curve" smooth="yes"/>
			<point x="101.143" y="202.714"/>
			<point x="309.143" y="-17"/>
			<point x="666.286" y="-17" type="curve" smooth="yes"/>
			<point x="815.571" y="-17"/>
			<point x="929.143" y="15"/>
			<point x="1035.57" y="58" type="curve"/>
			<point x="1035.57" y="549.714" type="line"/>
			<point x="616.571" y="549.714" type="line"/>
			<point x="616.571" y="469.429" type="line"/>
			<point x="935.714" y="469.429" type="line"/>
			<point x="935.714" y="118.714" type="line"/>
			<point x="868.714" y="94.4286"/>
			<point x="779.857" y="71.8571"/>
			<point x="676.857" y="71.8571" type="curve" smooth="yes"/>
			<point x="370.143" y="71.8571"/>
			<point x="206.714" y="253.571"/>
			<point x="206.714" y="548.143" type="curve" smooth="yes"/>
			<point x="206.714" y="835.143"/>
			<point x="407.857" y="1023.71"/>
			<point x="690.714" y="1023.71" type="curve" smooth="yes"/>
			<point x="810.286" y="1023.71"/>
			<point x="905.714" y="994.143"/>
			<point x="991.143" y="948.857" type="curve"/>
			<point x="1025.71" y="1032.86" type="line"/>
			<point x="1025.71" y="1297.71" type="line" smooth="yes"/>
			<point x="1025.71" y="1435.86"/>
			<point x="1082.43" y="1488.29"/>
			<point x="1174.86" y="1488.29" type="curve" smooth="yes"/>
			<point x="1219.86" y="1488.29"/>
			<point x="1254.29" y="1477.14"/>
			<point x="1283.86" y="1465.71" type="curve"/>
			<point x="1283.86" y="1552.29" type="line"/>
			<point x="1259.71" y="1561.43"/>
			<point x="1225" y="1571.86"/>
		</contour>
	</outline>
	<anchor name="bottom" x="595" y="0"/>
	<anchor name="top" x="595" y="1571.86"/>
</glyph>
<glyph name="uni029D" format="2">
	<unicode hex="029D"/>
	<advance width="462"/>
	<outline>
		<contour>
			<point x="39.2857" y="-492" type="curve" smooth="yes"/>
			<point x="199.429" y="-492"/>
			<point x="275.143" y="-388.429"/>
			<point x="278.286" y="-153.714" type="curve"/>
			<point x="432.286" y="-153.714" type="line"/>
			<point x="432.286" y="-85.7143" type="line"/>
			<point x="280.714" y="-85.7143" type="line"/>
			<point x="280.714" y="1088" type="line"/>
			<point x="179.143" y="1088" type="line"/>
			<point x="179.143" y="-85.7143" type="line"/>
			<point x="80.1429" y="-85.7143" type="line" smooth="yes"/>
			<point x="-75.7143" y="-85.7143"/>
			<point x="-166.286" y="-164.286"/>
			<point x="-166.286" y="-292.571" type="curve" smooth="yes"/>
			<point x="-166.286" y="-412.429"/>
			<point x="-87.4286" y="-492"/>
		</contour>
		<contour>
			<point x="32" y="-421.571" type="curve" smooth="yes"/>
			<point x="-42.7143" y="-421.571"/>
			<point x="-91.7143" y="-374.143"/>
			<point x="-91.7143" y="-291.143" type="curve" smooth="yes"/>
			<point x="-91.7143" y="-204.429"/>
			<point x="-39.5714" y="-153.714"/>
			<point x="84.1429" y="-153.714" type="curve" smooth="yes"/>
			<point x="177.429" y="-153.714" type="line"/>
			<point x="177.429" y="-201" type="line" smooth="yes"/>
			<point x="177.429" y="-367.286"/>
			<point x="120.714" y="-421.571"/>
		</contour>
		<contour>
			<point x="230" y="1334.71" type="curve" smooth="yes"/>
			<point x="288.143" y="1334.71"/>
			<point x="306.429" y="1364"/>
			<point x="306.429" y="1413.29" type="curve" smooth="yes"/>
			<point x="306.429" y="1461.14"/>
			<point x="288.143" y="1492.71"/>
			<point x="230" y="1492.71" type="curve" smooth="yes"/>
			<point x="178.714" y="1492.71"/>
			<point x="157" y="1461.14"/>
			<point x="157" y="1413.29" type="curve" smooth="yes"/>
			<point x="157" y="1364"/>
			<point x="178.714" y="1334.71"/>
		</contour>
	</outline>
	<anchor name="bottom" x="231.714" y="-492"/>
	<anchor name="top" x="231.714" y="1492.71"/>
</glyph>
